<?xml version="1.0" encoding="UTF-8" standalone="no"?>
<!-- Created with Inkscape (http://www.inkscape.org/) -->

<svg
   xmlns:dc="http://purl.org/dc/elements/1.1/"
   xmlns:cc="http://creativecommons.org/ns#"
   xmlns:rdf="http://www.w3.org/1999/02/22-rdf-syntax-ns#"
   xmlns:svg="http://www.w3.org/2000/svg"
   xmlns="http://www.w3.org/2000/svg"
   xmlns:sodipodi="http://sodipodi.sourceforge.net/DTD/sodipodi-0.dtd"
   xmlns:inkscape="http://www.inkscape.org/namespaces/inkscape"
   version="1.1"
   id="svg48"
   width="133.33333"
   height="137.33333"
   viewBox="0 0 133.33333 137.33333"
   sodipodi:docname="document.svg"
   inkscape:version="0.92.1 r15371">
  <metadata
     id="metadata54">
    <rdf:RDF>
      <cc:Work
         rdf:about="">
        <dc:format>image/svg+xml</dc:format>
        <dc:type
           rdf:resource="http://purl.org/dc/dcmitype/StillImage" />
        <dc:title></dc:title>
      </cc:Work>
    </rdf:RDF>
  </metadata>
  <defs
     id="defs52" />
  <sodipodi:namedview
     pagecolor="#ffffff"
     bordercolor="#666666"
     borderopacity="1"
     objecttolerance="10"
     gridtolerance="10"
     guidetolerance="10"
     inkscape:pageopacity="0"
     inkscape:pageshadow="2"
     inkscape:window-width="1920"
     inkscape:window-height="1017"
     id="namedview50"
     showgrid="false"
     inkscape:zoom="1.7184467"
     inkscape:cx="66.666664"
     inkscape:cy="68.666664"
     inkscape:window-x="-8"
     inkscape:window-y="-8"
     inkscape:window-maximized="1"
     inkscape:current-layer="svg48" />
  <g
     id="g58"
     transform="translate(1.4797198e-6)">
    <path
       style="fill:#f3f3f4;stroke-width:1.33333325"
       d="M 0,134.66666 C 0,132.03555 0.88888887,132 66.666665,132 c 65.777775,0 66.666665,0.0356 66.666665,2.66666 0,2.63111 -0.88889,2.66667 -66.666665,2.66667 C 0.88888887,137.33333 0,137.29773 0,134.66666 Z M 0,63.333332 V 0 H 66.666665 133.33333 V 63.333332 126.66666 H 66.666665 0 Z M 23.999999,62.666665 V 5.3333332 H 14.666666 5.3333332 V 62.666665 120 h 9.3333328 9.333333 z M 8.8733166,110.89501 C 4.0437371,105.55838 7.7773433,97.333331 15.029382,97.333331 c 3.898044,0 7.637284,4.287309 7.637284,8.756689 0,6.36238 -9.415597,9.64235 -13.7933494,4.80499 z M 16,106 c 0,-1.1 -0.56459,-2 -1.254644,-2 -1.681304,0 -2.88546,2.08212 -1.820219,3.14736 C 14.426716,108.64894 16,108.06188 16,106 Z m 30.64701,7 c -0.01829,-6.51703 -0.13601,-6.77002 -1.706044,-3.66667 -1.369804,2.70757 -2.674191,3.33333 -6.948235,3.33333 -4.470057,0 -5.44598,-0.52357 -6.485496,-3.47942 -1.665188,-4.73494 -0.09059,-10.155726 3.258759,-11.218768 4.209462,-1.336032 9.212786,0.438339 10.540545,3.738078 0.733004,1.82166 1.223601,-16.141568 1.275612,-46.706551 L 46.666665,5.3333332 H 37.999999 29.333333 V 62.666665 120 h 8.666666 8.666666 l -0.01965,-7 z M 128,62.666665 V 5.3333332 H 90.666664 53.333332 V 62.666665 120 H 90.666664 128 Z m -64.000002,0.694273 v -3.360939 h 27.426068 27.426064 l -0.42606,2.999999 c -0.42387,2.984508 -0.5655,3.001864 -27.426072,3.36094 l -27,0.360942 z m 0,-12.027606 v -3.333333 h 18.666667 18.666665 v 3.333333 3.333333 H 82.666665 63.999998 Z m 0,-12.027606 v -3.360942 l 27,0.360942 c 26.860572,0.359076 27.002202,0.376432 27.426072,3.36094 l 0.42606,3 H 91.426066 63.999998 Z m 0,-12.01002 v -3.370959 l 18.333333,0.370959 c 17.868399,0.361552 18.344139,0.44704 18.759399,3.37096 0.42453,2.989149 0.35822,3 -18.333331,3 H 63.999998 Z M 39.083823,103.88382 c -1.043791,-1.04379 -1.700259,-1.04379 -2.345356,0 -1.387056,2.2443 0.574928,4.66945 2.345356,2.89902 1.043791,-1.04379 1.043791,-1.85523 0,-2.89902 z"
       id="path72"
       inkscape:connector-curvature="0" />
    <path
       style="fill:#e7e8e9;stroke-width:1.33333325"
       d="M 0,134.66666 C 0,132.03555 0.88888887,132 66.666665,132 c 65.777775,0 66.666665,0.0356 66.666665,2.66666 0,2.63111 -0.88889,2.66667 -66.666665,2.66667 C 0.88888887,137.33333 0,137.29773 0,134.66666 Z M 0,63.333332 V 0 H 66.666665 133.33333 V 63.333332 126.66666 H 66.666665 0 Z m 23.999999,0 V 5.3333332 H 14.666666 5.3333332 V 63.333332 121.33333 h 9.3333328 9.333333 z M 8.5504218,110.00971 C 4.029335,103.10966 10.575196,95.041092 17.963216,98.407299 c 7.295341,3.323981 4.732922,14.926031 -3.29655,14.926031 -2.726713,0 -4.608569,-1.02262 -6.1162442,-3.32362 z m 8.1880462,-3.45922 c 1.374028,-2.22323 -1.716279,-4.77268 -3.555625,-2.93334 C 11.644277,105.15572 12.607214,108 14.666666,108 c 0.646775,0 1.579086,-0.65228 2.071802,-1.44951 z M 46.666665,63.333332 V 5.3333332 H 37.999999 29.333333 V 63.333332 121.33333 h 8.666666 8.666666 z M 32.873317,110.89501 c -6.557792,-7.24628 3.480114,-18.351104 10.364777,-11.46644 3.029616,3.02961 2.729285,10.80494 -0.483774,12.52452 -3.845194,2.05788 -7.406185,1.67656 -9.881003,-1.05808 z m 6.872854,-5.22835 c -0.541244,-2.81045 -2.907576,-2.63324 -3.510604,0.26291 C 35.984044,107.13755 36.71903,108 37.999999,108 c 1.373277,0 2.02724,-0.87387 1.746172,-2.33334 z M 128,63.333332 V 5.3333332 H 89.999998 51.999999 V 63.333332 121.33333 H 89.999998 128 Z M 64.916241,65.80513 c -0.503933,-0.503933 -0.916243,-2.028666 -0.916243,-3.388294 0,-2.337679 1.467639,-2.452432 27,-2.111111 C 116.99079,60.653175 118,60.76634 118,63.333332 c 0,2.5635 -1.00912,2.680621 -26.08376,3.027353 -14.346066,0.198379 -26.496066,-0.05163 -26.999999,-0.555555 z m 0.0096,-11.990458 c -0.50924,-0.509181 -0.925843,-2.042716 -0.925843,-3.407855 0,-2.318181 1.210535,-2.457577 18.333333,-2.111112 17.320791,0.350472 18.333329,0.518239 18.333329,3.037627 0,2.511592 -1.012294,2.688196 -17.407545,3.036896 -9.57415,0.203625 -17.82415,-0.04637 -18.333333,-0.555556 z M 64.23694,39.69458 64.666665,36.666666 h 26.666666 c 25.777779,0 26.666669,0.08889 26.666669,2.666666 0,2.567338 -1.00931,2.680123 -27.096394,3.027915 L 63.807213,42.722495 Z M 63.999998,28.037626 c 0,-2.588731 0.801863,-2.704293 18.764432,-2.704293 17.152536,0 18.72598,0.200437 18.31677,2.333333 -0.39621,2.065199 -2.55253,2.375963 -18.764429,2.704293 -17.634766,0.357147 -18.316773,0.270267 -18.316773,-2.333333 z"
       id="path70"
       inkscape:connector-curvature="0" />
    <path
       style="fill:#e1e1e3;stroke-width:1.33333325"
       d="M 0,134.66666 C 0,132.03555 0.88888887,132 66.666665,132 c 65.777775,0 66.666665,0.0356 66.666665,2.66666 0,2.63111 -0.88889,2.66667 -66.666665,2.66667 C 0.88888887,137.33333 0,137.29773 0,134.66666 Z m 0.88888887,-8.88889 C 0.39999999,125.28889 0,96.788887 0,62.444442 V 0 H 66.666665 133.33333 V 63.333332 126.66666 H 67.555554 c -36.177777,0 -66.1777763,-0.4 -66.66666513,-0.88889 z M 23.999999,63.333332 V 5.3333332 H 14.666666 5.3333332 V 63.333332 121.33333 h 9.3333328 9.333333 z M 8.5504218,110.00971 C 4.029335,103.10966 10.575196,95.041092 17.963216,98.407299 c 7.295341,3.323981 4.732922,14.926031 -3.29655,14.926031 -2.726713,0 -4.608569,-1.02262 -6.1162442,-3.32362 z m 8.1880462,-3.45922 c 1.374028,-2.22323 -1.716279,-4.77268 -3.555625,-2.93334 C 11.644277,105.15572 12.607214,108 14.666666,108 c 0.646775,0 1.579086,-0.65228 2.071802,-1.44951 z M 46.666665,63.333332 V 5.3333332 H 37.999999 29.333333 V 63.333332 121.33333 h 8.666666 8.666666 z M 32.873317,110.89501 c -4.541254,-5.01803 -1.165572,-13.561679 5.358353,-13.561679 6.039069,0 9.446749,9.464439 5.006424,13.904759 -2.809778,2.80978 -7.656671,2.64934 -10.364777,-0.34308 z m 7.126682,-5.67279 c 0,-3.24939 -3.115697,-2.79009 -3.764432,0.55493 -0.255164,1.31569 0.425015,2.22285 1.666667,2.22285 1.236846,0 2.097765,-1.14 2.097765,-2.77778 z M 129.01416,62.999998 129.36166,5.3333332 H 90.680828 51.999999 V 63.353778 121.37423 l 38.333332,-0.35379 38.333329,-0.35378 z M 63.999998,62.666665 c 0,-2.577777 0.88889,-2.666666 26.666666,-2.666666 25.777776,0 26.666666,0.08889 26.666666,2.666666 0,2.577777 -0.88889,2.666667 -26.666666,2.666667 -25.777776,0 -26.666666,-0.08889 -26.666666,-2.666667 z m 0.4627,-10.050736 c -1.53129,-3.990477 1.593595,-4.702447 18.978817,-4.324114 16.211311,0.352788 17.225145,0.531805 17.225145,3.041517 0,2.513999 -1.012958,2.687976 -17.693586,3.038888 -15.195654,0.319672 -17.808902,0.07172 -18.510376,-1.756291 z m 0.42619,-10.838153 c -0.48889,-0.488888 -0.88889,-1.688888 -0.88889,-2.666666 0,-1.422222 5.333334,-1.777778 26.666666,-1.777778 25.777776,0 26.666666,0.08889 26.666666,2.666667 0,2.574712 -0.88889,2.666667 -25.777776,2.666667 -14.177779,0 -26.177778,-0.4 -26.666666,-0.88889 z m -0.88889,-13.74015 c 0,-2.588731 0.801863,-2.704293 18.764432,-2.704293 17.152536,0 18.72598,0.200437 18.31677,2.333333 -0.39621,2.065199 -2.55253,2.375963 -18.764429,2.704293 -17.634766,0.357147 -18.316773,0.270267 -18.316773,-2.333333 z"
       id="path68"
       inkscape:connector-curvature="0" />
    <path
       style="fill:#d5d5d8;stroke-width:1.33333325"
       d="M 0,134.66666 C 0,132.03555 0.88888887,132 66.666665,132 c 65.777775,0 66.666665,0.0356 66.666665,2.66666 0,2.63111 -0.88889,2.66667 -66.666665,2.66667 C 0.88888887,137.33333 0,137.29773 0,134.66666 Z M 0,62.666665 V 0 H 66.666665 133.33333 V 62.666665 125.33333 H 66.666665 0 Z m 23.999999,0 V 3.9999999 H 14.666666 5.3333332 V 62.666665 121.33333 h 9.3333328 9.333333 z M 9.2177888,110.55112 c -5.8561705,-5.85617 2.1039082,-16.745886 8.9159392,-12.197372 1.747616,1.166914 4.532938,6.221032 4.532938,8.225262 0,2.38752 -5.17215,6.75432 -8,6.75432 -1.466666,0 -3.918661,-1.25199 -5.4488772,-2.78221 z m 7.5206792,-4.00063 c 1.374028,-2.22323 -1.716279,-4.77268 -3.555625,-2.93334 C 11.644277,105.15572 12.607214,108 14.666666,108 c 0.646775,0 1.579086,-0.65228 2.071802,-1.44951 z M 46.666665,62.666665 V 3.9999999 H 37.999999 29.333333 V 62.666665 121.33333 h 8.666666 8.666666 z M 32.873317,110.89501 c -2.967068,-3.27857 -2.782384,-7.65261 0.460015,-10.895012 3.321536,-3.321536 6.918159,-3.405396 9.79335,-0.228346 2.914261,3.220218 2.804348,8.607468 -0.231671,11.355028 -3.198856,2.89493 -7.277492,2.80064 -10.021694,-0.23167 z m 7.126682,-5.56168 c 0,-1.48148 -0.888889,-2.66667 -2,-2.66667 -1.111111,0 -2,1.18519 -2,2.66667 0,1.48148 0.888889,2.66667 2,2.66667 1.111111,0 2,-1.18519 2,-2.66667 z M 129.01401,62.999998 128.66666,4.6666666 H 90.666664 52.666665 L 52.319317,62.999998 51.971969,121.33333 h 38.694695 38.694696 z m -64.761132,0 c 0.40615,-2.113417 2.928698,-2.367406 26.764433,-2.694853 25.638129,-0.352206 26.316019,-0.292101 26.316019,2.333333 0,2.614748 -0.79558,2.694854 -26.764431,2.694854 -24.77187,0 -26.731049,-0.173712 -26.316021,-2.333334 z m -0.25288,-11.666666 c 0,-1.679012 2.88889,-2 18,-2 15.11111,0 17.999999,0.320988 17.999999,2 0,1.679012 -2.888889,2 -17.999999,2 -15.11111,0 -18,-0.320988 -18,-2 z m 0.88889,-9.555556 c -0.48889,-0.488888 -0.88889,-1.688888 -0.88889,-2.666666 0,-1.422222 5.333334,-1.777778 26.666666,-1.777778 25.777776,0 26.666666,0.08889 26.666666,2.666667 0,2.574712 -0.88889,2.666667 -25.777776,2.666667 -14.177779,0 -26.177778,-0.4 -26.666666,-0.88889 z m 0,-11.999999 c -0.48889,-0.488888 -0.88889,-1.688888 -0.88889,-2.666667 0,-1.393689 3.88889,-1.777777 18,-1.777777 17.11111,0 17.999999,0.131693 17.999999,2.666666 0,2.528139 -0.888889,2.666667 -17.11111,2.666667 -9.411112,0 -17.511111,-0.4 -17.999999,-0.888889 z"
       id="path66"
       inkscape:connector-curvature="0" />
    <path
       style="fill:#c6c7cb;stroke-width:1.33333325"
       d="M 0,134.66666 C 0,132.03555 0.88888887,132 66.666665,132 c 65.777775,0 66.666665,0.0356 66.666665,2.66666 0,2.63111 -0.88889,2.66667 -66.666665,2.66667 C 0.88888887,137.33333 0,137.29773 0,134.66666 Z M 0,62.666665 V 0 H 66.666665 133.33333 V 62.666665 125.33333 H 66.666665 0 Z m 23.999999,-0.05841 V 3.8831744 L 14.333333,4.2749204 4.6666665,4.6666666 4.3185976,61.333332 C 4.1271598,92.499998 4.2583288,118.75 4.6100846,119.66666 c 0.4277375,1.11468 3.7445771,1.66667 10.0147354,1.66667 h 9.375179 z M 10.389473,111.66666 c -3.8886705,-3.05683 -4.0753297,-7.11151 -0.5157227,-11.20271 3.1718407,-3.645535 3.4535157,-3.715698 7.0483947,-1.755691 2.643588,1.441341 3.863696,3.254251 4.149858,6.166091 0.671727,6.83511 -5.575202,10.80712 -10.68253,6.79231 z m 6.277193,-6.35159 c 0,-2.85801 -3.874224,-2.4452 -4.436157,0.47268 -0.343155,1.78186 0.199879,2.32489 1.98174,1.98174 1.349929,-0.25997 2.454417,-1.36446 2.454417,-2.45442 z M 47.333332,62.666665 V 4.6666666 l -9,-0.3942532 -8.999999,-0.3942532 V 62.666665 121.45517 l 8.999999,-0.39425 9,-0.39426 z m -14,47.999995 C 31.866666,109.2 30.666666,106.8 30.666666,105.33333 c 0,-2.98136 4.414302,-7.999999 7.036658,-7.999999 6.529047,0 10.061825,9.385939 5.191687,13.793349 -3.240349,2.93248 -6.317216,2.78445 -9.561679,-0.46002 z m 7.333334,-5.33333 c 0,-1.07991 -1.05,-2.16569 -2.333334,-2.41284 -1.637132,-0.31528 -2.333333,0.40464 -2.333333,2.41284 0,2.0082 0.696201,2.72812 2.333333,2.41284 1.283334,-0.24715 2.333334,-1.33293 2.333334,-2.41284 z M 129.33333,62.666665 V 3.9999999 H 90.666664 51.999999 V 62.666665 121.33333 h 38.666665 38.666666 z m -65.080452,0.333333 c 0.40615,-2.113417 2.928698,-2.367406 26.764433,-2.694853 25.638129,-0.352206 26.316019,-0.292101 26.316019,2.333333 0,2.614748 -0.79558,2.694854 -26.764431,2.694854 -24.77187,0 -26.731049,-0.173712 -26.316021,-2.333334 z m -0.25288,-11.666666 c 0,-1.679012 2.88889,-2 18,-2 15.11111,0 17.999999,0.320988 17.999999,2 0,1.679012 -2.888889,2 -17.999999,2 -15.11111,0 -18,-0.320988 -18,-2 z m 0,-12 c 0,-1.71111 3.851852,-2 26.666666,-2 22.814816,0 26.666666,0.28889 26.666666,2 0,1.711111 -3.85185,2 -26.666666,2 -22.814814,0 -26.666666,-0.288889 -26.666666,-2 z m 0.88889,-9.555555 c -0.48889,-0.488888 -0.88889,-1.688888 -0.88889,-2.666667 0,-1.393689 3.88889,-1.777777 18,-1.777777 17.11111,0 17.999999,0.131693 17.999999,2.666666 0,2.528139 -0.888889,2.666667 -17.11111,2.666667 -9.411112,0 -17.511111,-0.4 -17.999999,-0.888889 z"
       id="path64"
       inkscape:connector-curvature="0" />
    <path
       style="fill:#babbc0;stroke-width:1.33333325"
       d="m 0,134.65421 c 0,-2.65198 0.67146512,-2.67561 66.315254,-2.33333 61.939076,0.32296 66.344896,0.49976 66.764426,2.67912 0.42296,2.19713 -3.44785,2.33333 -66.31525,2.33333 C 0.78549413,137.33333 0,137.30181 0,134.65421 Z M 0,62.666665 V 0 H 66.666665 133.33333 V 62.666665 125.33333 H 66.666665 0 Z m 23.999999,-0.05841 V 3.8831744 L 14.333333,4.2749204 4.6666665,4.6666666 4.3193184,62.999998 3.9719702,121.33333 H 13.985985 23.999999 Z M 10.20665,110.89501 c -3.3197595,-3.66829 -2.7945489,-9.115 1.126683,-11.684288 3.087828,-2.023223 3.578839,-2.023223 6.666667,0 4.034799,2.643698 4.487075,8.665188 0.895012,11.915958 -3.169178,2.86807 -5.950249,2.79391 -8.688362,-0.23167 z m 6.875804,-5.21303 C 16.413105,102.20633 12,101.81871 12,105.23557 12,107.1437 12.8563,108 14.764432,108 c 1.908132,0 2.626154,-0.71802 2.318022,-2.31802 z M 47.68068,62.999998 47.333332,4.6666666 H 37.999999 28.666666 L 28.319318,62.999998 27.97197,121.33333 H 37.999999 48.028028 Z M 33.333332,110.66666 c -4.934162,-4.93416 -2.134475,-12.333329 4.666667,-12.333329 6.965076,0 10.001393,8.980009 4.369992,12.924399 -3.916416,2.74316 -5.827427,2.61817 -9.036659,-0.59107 z m 7.667056,-4.99929 c 0.7878,-2.36606 -3.694717,-3.77999 -5.046978,-1.59199 -0.610934,0.98851 -0.794438,2.30916 -0.407784,2.93478 0.98683,1.59673 4.787542,0.66111 5.454762,-1.34279 z M 129.33333,62.666665 V 3.9999999 H 90.666664 51.999999 V 62.666665 121.33333 h 38.666665 38.666666 z m -63.999998,0.666667 c 0,-1.709401 3.777777,-2 25.999999,-2 22.222219,0 25.999999,0.290599 25.999999,2 0,1.709401 -3.77778,2 -25.999999,2 -22.222222,0 -25.999999,-0.290599 -25.999999,-2 z m 0,-12 c 0,-1.675213 2.814814,-2 17.333333,-2 14.518518,0 17.333332,0.324787 17.333332,2 0,1.675213 -2.814814,2 -17.333332,2 -14.518519,0 -17.333333,-0.324787 -17.333333,-2 z m 0,-12 c 0,-1.709401 3.777777,-2 25.999999,-2 22.222219,0 25.999999,0.290599 25.999999,2 0,1.709402 -3.77778,2 -25.999999,2 -22.222222,0 -25.999999,-0.290598 -25.999999,-2 z m 0,-11.999999 c 0,-1.675214 2.814814,-2 17.333333,-2 14.518518,0 17.333332,0.324786 17.333332,2 0,1.675213 -2.814814,2 -17.333332,2 -14.518519,0 -17.333333,-0.324787 -17.333333,-2 z"
       id="path62"
       inkscape:connector-curvature="0" />
    <path
       style="fill:#a4a5ab;stroke-width:1.33333325"
       d="m 0,135.33333 c 0,-1.75084 8.2222221,-2 65.999998,-2 57.777772,0 66.000002,0.24916 66.000002,2 0,1.75084 -8.22223,2 -66.000002,2 C 8.2222221,137.33333 0,137.08417 0,135.33333 Z M 1.3333333,62.666665 V 0 H 67.333332 133.33333 V 62.666665 125.33333 H 67.333332 1.3333333 Z m 22.6666657,0 V 3.9999999 H 14 3.9999999 V 62.666665 121.33333 H 14 23.999999 Z M 10.963341,111.25773 C 7.6986777,108.97107 6.9479396,102.91872 9.5999998,100.26666 10.48,99.386664 12.76,98.666664 14.666666,98.666664 c 4.46073,0 6.666667,2.269156 6.666667,6.857726 0,3.16769 -3.96234,7.80894 -6.666667,7.80894 -0.40699,0 -2.073487,-0.93402 -3.703325,-2.0756 z m 6.369992,-6.06705 c 0,-1.63513 -0.939127,-2.52402 -2.666667,-2.52402 -2.542287,0 -3.782836,3.77272 -1.869645,5.68591 1.492412,1.49242 4.536312,-0.62924 4.536312,-3.16189 z M 47.999999,62.666665 V 3.9999999 h -10 -10 V 62.666665 121.33333 h 10 10 z M 35.59095,112.39965 c -1.324976,-0.34339 -2.990917,-2.15478 -3.702091,-4.0253 -1.844438,-4.85125 1.538185,-9.707686 6.761632,-9.707686 6.458056,0 8.854825,7.161346 4.016175,11.999996 -2.73915,2.73915 -2.972698,2.79635 -7.075716,1.73299 z m 5.742382,-6.58415 c 0,-2.51084 -3.791988,-3.89018 -5.633114,-2.04905 -1.049602,1.0496 -0.997574,2.00366 0.187108,3.43112 1.904697,2.29502 5.446006,1.39632 5.446006,-1.38207 z M 129.33333,62.666665 V 3.9999999 H 90.666664 51.999999 V 62.666665 121.33333 h 38.666665 38.666666 z m -63.999998,0.666667 c 0,-1.709401 3.777777,-2 25.999999,-2 22.222219,0 25.999999,0.290599 25.999999,2 0,1.709401 -3.77778,2 -25.999999,2 -22.222222,0 -25.999999,-0.290599 -25.999999,-2 z m 0,-12 c 0,-1.675213 2.814814,-2 17.333333,-2 14.518518,0 17.333332,0.324787 17.333332,2 0,1.675213 -2.814814,2 -17.333332,2 -14.518519,0 -17.333333,-0.324787 -17.333333,-2 z m 0,-12 c 0,-1.709401 3.777777,-2 25.999999,-2 22.222219,0 25.999999,0.290599 25.999999,2 0,1.709402 -3.77778,2 -25.999999,2 -22.222222,0 -25.999999,-0.290598 -25.999999,-2 z m 0,-11.999999 c 0,-1.675214 2.814814,-2 17.333333,-2 14.518518,0 17.333332,0.324786 17.333332,2 0,1.675213 -2.814814,2 -17.333332,2 -14.518519,0 -17.333333,-0.324787 -17.333333,-2 z"
       id="path60"
       inkscape:connector-curvature="0" />
  </g>
</svg>
