<?xml version="1.0" encoding="UTF-8" standalone="no"?>
<!-- Created with Inkscape (http://www.inkscape.org/) -->

<svg
   xmlns:dc="http://purl.org/dc/elements/1.1/"
   xmlns:cc="http://creativecommons.org/ns#"
   xmlns:rdf="http://www.w3.org/1999/02/22-rdf-syntax-ns#"
   xmlns:svg="http://www.w3.org/2000/svg"
   xmlns="http://www.w3.org/2000/svg"
   xmlns:sodipodi="http://sodipodi.sourceforge.net/DTD/sodipodi-0.dtd"
   xmlns:inkscape="http://www.inkscape.org/namespaces/inkscape"
   version="1.1"
   id="svg162"
   width="133.33333"
   height="116"
   viewBox="0 0 133.33333 116"
   sodipodi:docname="download.svg"
   inkscape:version="0.92.1 r15371">
  <metadata
     id="metadata168">
    <rdf:RDF>
      <cc:Work
         rdf:about="">
        <dc:format>image/svg+xml</dc:format>
        <dc:type
           rdf:resource="http://purl.org/dc/dcmitype/StillImage" />
        <dc:title></dc:title>
      </cc:Work>
    </rdf:RDF>
  </metadata>
  <defs
     id="defs166" />
  <sodipodi:namedview
     pagecolor="#ffffff"
     bordercolor="#666666"
     borderopacity="1"
     objecttolerance="10"
     gridtolerance="10"
     guidetolerance="10"
     inkscape:pageopacity="0"
     inkscape:pageshadow="2"
     inkscape:window-width="1920"
     inkscape:window-height="1017"
     id="namedview164"
     showgrid="false"
     inkscape:zoom="2.0344828"
     inkscape:cx="66.666664"
     inkscape:cy="58"
     inkscape:window-x="-8"
     inkscape:window-y="-8"
     inkscape:window-maximized="1"
     inkscape:current-layer="svg162" />
  <g
     id="g172"
     transform="translate(0.49152203,0.49152498)">
    <path
       style="fill:#e2b1cb;stroke-width:1.33333337"
       d="M 55.278061,112.89208 C 43.642878,109.91781 35.645818,105.17723 26.241754,95.679653 L 17.150176,86.497667 9.7202528,87.425975 C 5.5082204,87.952233 2.5888857,87.844464 2.9796786,87.177141 3.3588207,86.529713 6.174314,78.010272 9.2363304,68.245049 12.298347,58.479828 15.300714,50.679828 15.908258,50.911716 c 1.411244,0.538648 26.758408,28.599732 26.758408,29.623429 0,0.421671 -2.413298,1.152576 -5.362884,1.624235 -2.949587,0.471657 -5.663832,1.344503 -6.031656,1.939656 -1.095857,1.773133 8.335602,10.323929 15.25423,13.829864 19.441202,9.8516 41.572734,6.12713 56.176364,-9.453809 5.68425,-6.064655 7.69231,-6.880055 10.36394,-4.208424 3.33293,3.33293 1.68807,7.798437 -5.4,14.660049 -10.149537,9.825274 -21.027182,14.586054 -34.720592,15.196054 -6.269228,0.27928 -13.818099,-0.24655 -17.668007,-1.23069 z M 103.66666,50.720325 C 96.516664,42.725155 90.666664,35.84942 90.666664,35.440915 c 0,-0.408504 2.413298,-1.128636 5.362884,-1.600295 2.949587,-0.471657 5.663832,-1.344503 6.031652,-1.939656 C 103.15706,30.127831 93.725602,21.577035 86.806974,18.0711 67.365772,8.2194969 45.23424,11.943968 30.630607,27.524909 c -5.68425,6.064655 -7.69231,6.880055 -10.363941,4.208424 -3.33293,-3.33293 -1.688069,-7.798437 5.4,-14.660049 C 38.951368,4.213016 56.63482,-0.97966059 74.933361,2.6063112 88.125458,5.1915713 96.95819,10.052636 107.09158,20.304477 l 9.09157,9.197856 7.42993,-0.928308 c 4.21203,-0.526258 7.13136,-0.418489 6.74057,0.248834 -0.37914,0.647428 -3.18211,9.127141 -6.22882,18.843808 -3.04671,9.716666 -5.97117,17.649492 -6.49882,17.628501 -0.52764,-0.02099 -6.80935,-6.579671 -13.95935,-14.574843 z"
       id="path186"
       inkscape:connector-curvature="0" />
    <path
       style="fill:#d58db2;stroke-width:1.33333337"
       d="M 56.334872,112.72846 C 42.271626,109.53211 28.917762,100.69154 20.583899,89.060476 18.100034,85.593899 17.751161,85.508523 11.572506,86.855205 8.0373851,87.625711 4.8284389,87.939551 4.441515,87.552627 3.7979127,86.909024 14.061081,52.161141 15.244236,50.977987 c 0.527836,-0.527836 4.885435,4.066253 19.307511,20.355346 l 8.263569,9.333334 -6.074325,1.223466 c -7.021026,1.414147 -7.501149,2.94836 -2.407659,7.69358 14.573519,13.577047 36.28404,17.947917 52.818899,10.633767 3.400721,-1.504305 9.440601,-5.815877 13.421949,-9.581275 8.20729,-7.762112 13.11358,-8.655976 13.82685,-2.519077 0.59087,5.083787 -14.2272,18.628512 -24.643338,22.525682 -9.885134,3.69851 -22.7849,4.50347 -33.42282,2.08565 z M 103.58001,50.240793 90.493347,35.333333 96.580006,34.109867 c 7.033234,-1.413736 7.515384,-2.946583 2.419992,-7.69358 C 84.426479,12.839239 62.715958,8.4683695 46.181099,15.782524 42.780378,17.286825 36.740498,21.598397 32.759146,25.363795 24.551857,33.125907 19.645568,34.019771 18.9323,27.882872 18.610804,25.116749 20.245851,22.828499 27.176259,16.345443 40.393482,3.9813787 55.067168,-0.44576128 72.88624,2.5544643 c 15.878483,2.6734856 30.88309,11.8520847 39.86319,24.3850597 2.48387,3.466577 2.83274,3.551953 9.01139,2.205271 3.53512,-0.770506 6.75141,-1.077011 7.14729,-0.681122 0.39589,0.395888 -1.48245,7.803516 -4.17409,16.461395 -2.69164,8.65788 -5.19836,16.791599 -5.57048,18.074932 -0.37212,1.283333 -1.08614,2.291691 -1.58673,2.240793 -0.50058,-0.05089 -6.79914,-6.800897 -13.9968,-15 z"
       id="path184"
       inkscape:connector-curvature="0" />
    <path
       style="fill:#c76799;stroke-width:1.33333337"
       d="M 59.999998,113.31728 C 45.081926,110.74209 30.977201,102.45536 22.71905,91.414181 17.804453,84.843343 18.355921,84.97726 6.9999998,87.597005 c -1.6499999,0.380646 -2.9928031,0.177038 -2.984007,-0.452461 0.0088,-0.629499 2.5680186,-9.193943 5.687161,-19.032097 L 15.374322,50.224893 29.043951,65.44578 42.71358,80.666667 36.023456,81.854191 c -3.679567,0.653138 -6.690123,1.626722 -6.690123,2.16352 0,2.320616 12.83413,12.512694 19.766471,15.697316 6.313407,2.900293 9.554667,3.487893 19.566861,3.547213 10.218898,0.0605 13.08845,-0.44075 19.333333,-3.377411 4.033333,-1.896676 10.133458,-6.294942 13.555832,-9.773924 7.09095,-7.208236 12.1434,-8.039477 12.83048,-2.110905 0.29323,2.530144 -1.31315,4.999584 -6.66667,10.248477 -8.340306,8.177313 -17.415488,12.978263 -28.297854,14.970103 -8.742405,1.60016 -10.667173,1.60994 -19.421788,0.0987 z M 104.28938,50.55422 90.61975,35.333333 97.309874,34.145809 C 100.98944,33.492671 104,32.519087 104,31.982289 104,29.661673 91.165867,19.469595 84.233526,16.284973 77.920119,13.38468 74.678859,12.797084 64.666665,12.737764 54.447767,12.677219 51.578215,13.178511 45.333332,16.115171 41.299999,18.011847 35.199874,22.410113 31.777499,25.889095 24.68655,33.097331 19.634105,33.928572 18.94702,28 18.447684,23.691428 29.862707,12.228103 39.333332,7.5274252 62.787132,-4.1137004 94.975594,3.5793603 110.61428,24.563612 c 4.91593,6.596273 4.35866,6.46016 15.71905,3.839383 1.65,-0.380646 2.9928,-0.177038 2.98401,0.452461 -0.009,0.629499 -2.56802,9.193943 -5.68716,19.032097 l -5.67117,17.887554 z"
       id="path182"
       inkscape:connector-curvature="0" />
    <path
       style="fill:#bd4b86;stroke-width:1.33333337"
       d="M 61.530153,113.24367 C 46.586196,111.17971 35.262219,104.91678 24.362259,92.6873 l -6.560666,-7.360904 -6.566415,1.226739 c -3.6115283,0.674706 -6.7089208,1.084233 -6.8830945,0.91006 -0.1741737,-0.174174 2.089593,-8.074646 5.0305928,-17.556604 2.9409997,-9.481959 5.5106197,-17.772682 5.7102657,-18.42383 0.34196,-1.115304 25.101738,26.05223 25.986942,28.514034 0.227271,0.632052 -2.322729,1.559465 -5.666666,2.06092 -3.343937,0.501454 -6.079885,1.367193 -6.079885,1.923864 0,2.330778 12.761798,12.519089 19.766471,15.780452 6.498239,3.025569 9.355699,3.525029 20.233528,3.536659 15.216041,0.0163 22.4068,-2.86409 32.246768,-12.916839 6.44356,-6.582902 8.73259,-7.535823 11.48656,-4.781851 2.64841,2.648404 1.86899,4.834433 -3.98997,11.190653 C 96.995375,109.89733 79.966586,115.78998 61.530153,113.24367 Z M 105.27203,51.426767 C 98.339079,43.57586 92.480716,36.635257 92.253446,36.003205 92.026175,35.371153 94.576175,34.44374 97.920112,33.942285 101.26405,33.440831 104,32.575092 104,32.018421 104,29.687643 91.238199,19.499332 84.233526,16.237969 77.735287,13.212401 74.877827,12.712941 63.999998,12.701315 48.783957,12.685052 41.593198,15.565397 31.753231,25.618149 25.194659,32.318547 22.708309,33.263313 20.053101,30.063984 17.623786,27.136837 19.405228,23.587917 26.754673,16.713372 38.81681,5.4306547 54.825623,0.46974832 71.603921,2.8152196 87.118128,4.9839813 97.912316,10.905055 108.97107,23.3127 l 6.56067,7.360904 6.56641,-1.226739 c 3.61153,-0.674706 6.70892,-1.084233 6.8831,-0.91006 0.17417,0.174174 -2.0896,8.074646 -5.0306,17.556604 -2.941,9.481959 -5.51062,17.772682 -5.71026,18.42383 -0.19965,0.651146 -6.03541,-5.239566 -12.96836,-13.090472 z"
       id="path180"
       inkscape:connector-curvature="0" />
    <path
       style="fill:#b22e73;stroke-width:1.33333337"
       d="M 54.156984,111.92243 C 44.554028,109.53415 33.369388,102.4482 25.296538,93.638104 l -7.833122,-8.548475 -6.381424,1.361026 C 7.5722091,87.199219 4.5739034,87.685015 4.41909,87.530201 3.8119395,86.923051 15.199794,52 16.004928,52 c 0.93354,0 25.328404,27.344276 25.328404,28.390683 0,0.351926 -2.7,1.044757 -6,1.539622 -3.299999,0.494866 -5.999999,1.338067 -5.999999,1.873782 0,2.28976 11.920742,12.314689 18.666666,15.698016 5.825348,2.921627 9.663856,3.788537 18.666666,4.215817 15.26748,0.7246 24.065146,-2.5077 34.077765,-12.520328 7.51203,-7.512027 9.85273,-8.494475 12.5358,-5.261576 2.42931,2.927147 0.64787,6.476067 -6.70157,13.350612 -10.342986,9.674652 -19.310993,13.200672 -34.578662,13.595562 -6.966666,0.18019 -14.996022,-0.2517 -17.843014,-0.95976 z M 104.23532,50.124592 C 97.505891,42.493117 91.999998,35.961244 91.999998,35.609317 c 0,-0.351926 2.7,-1.044757 6,-1.539622 C 101.3,33.574829 104,32.731628 104,32.195913 104,29.906153 92.079255,19.881224 85.333331,16.497897 79.507983,13.576272 75.669475,12.709355 66.666665,12.28208 51.399185,11.557481 42.601519,14.789784 32.588897,24.802408 28.630221,28.761084 24.551727,32 23.525578,32 20.687907,32 18.345894,28.444477 19.268602,25.537281 20.635842,21.229492 32.932829,10.70778 41.042579,6.9067415 47.932961,3.6772201 50.149111,3.3333333 64.071101,3.3333333 c 15.127986,0 15.586916,0.090204 25.572753,5.02642 7.62614,3.7697667 12.175616,7.2170297 18.197186,13.7885187 l 8.02887,8.762099 6.38143,-1.361026 c 3.50978,-0.748564 6.50809,-1.23436 6.6629,-1.079546 C 129.52139,29.076949 118.13354,64 117.3284,64 c -0.47177,0 -6.36366,-6.243933 -13.09308,-13.875408 z"
       id="path178"
       inkscape:connector-curvature="0" />
    <path
       style="fill:#aa1764;stroke-width:1.33333337"
       d="M 51.999999,110.82346 C 40.311968,107.05174 35.916071,104.23135 26.274054,94.317809 l -9.059277,-9.314396 -6.682089,1.321214 c -5.726056,1.132182 -6.5728081,1.036436 -5.9182884,-0.669216 0.4200896,-1.094736 2.9686791,-9.126726 5.6635324,-17.848864 2.694853,-8.72214 5.314009,-15.696762 5.820346,-15.499159 1.129688,0.440872 25.235054,27.280264 25.235054,28.097211 0,0.321852 -3.002444,0.983474 -6.672097,1.47027 l -6.672098,0.885086 2.938396,3.974392 c 1.616117,2.185916 6.012802,6.091818 9.770413,8.679782 19.257938,13.263451 44.626547,11.435291 60.415624,-4.353785 7.29867,-7.298673 10.12008,-8.215415 12.69581,-4.125163 3.04744,4.839335 -12.60675,18.969439 -26.377632,23.809519 -9.426601,3.31318 -25.2994,3.34847 -35.431749,0.0788 z M 104.33333,50.029687 C 97.549998,42.385176 91.999998,35.878495 91.999998,35.570396 c 0,-0.3081 3.002444,-0.958469 6.672097,-1.445265 l 6.672095,-0.885086 -2.93839,-3.974392 C 100.78968,27.079737 96.392995,23.173835 92.635384,20.585871 73.377446,7.3224199 48.008837,9.1505812 32.219763,24.939656 24.92109,32.238329 22.099679,33.155071 19.52395,29.064819 16.476506,24.225484 32.130698,10.095377 45.901582,5.2553016 59.298688,0.54659789 78.164117,2.3228913 92.666664,9.6585152 95.599998,11.142243 102.07667,16.550288 107.05928,21.676395 l 9.05927,9.320192 6.68209,-1.321214 c 5.72606,-1.132182 6.57281,-1.036436 5.91829,0.669216 -0.42009,1.094736 -2.96507,9.11505 -5.65552,17.82292 -2.69044,8.70787 -5.23034,15.816471 -5.64423,15.79689 -0.41388,-0.01958 -6.30252,-6.2902 -13.08585,-13.934712 z"
       id="path176"
       inkscape:connector-curvature="0" />
    <path
       style="fill:#a60b5c;stroke-width:1.33333337"
       d="M 51.682599,110.81957 C 39.073048,106.66437 25.435217,96.426217 20.309685,87.2674 19.100277,85.106307 18.139241,84.983048 11.658117,86.157795 L 4.36709,87.479341 7.5399882,77.406337 c 1.745094,-5.540152 4.1608688,-13.523004 5.3683888,-17.73967 1.20752,-4.216667 2.547121,-7.611047 2.976891,-7.543068 1.359253,0.215002 24.114731,26.282584 24.114731,27.624677 0,0.705251 -2.743512,1.693689 -6.096695,2.196529 l -6.096693,0.914256 3.244938,4.207784 c 11.844994,15.359675 38.565376,21.742335 56.787461,13.564755 4.48587,-2.013141 10.532053,-6.280599 14.25805,-10.063481 7.11021,-7.218759 9.09406,-7.904212 11.24491,-3.885316 2.72,5.082369 -7.87797,15.668567 -22.361354,22.336507 -10.271955,4.72906 -27.952275,5.53901 -39.298017,1.80026 z M 105,50.6434 C 98.583331,43.433229 93.333331,36.956975 93.333331,36.251724 c 0,-0.705251 2.743512,-1.693689 6.096695,-2.196529 l 6.096694,-0.914256 -3.24494,-4.207784 C 90.436787,13.573483 63.716405,7.1908176 45.49432,15.368403 41.00845,17.381541 34.962267,21.648999 31.236266,25.431881 24.126055,32.65064 22.142211,33.336093 19.991364,29.317197 18.823274,27.134603 19.204166,25.784043 22.034229,22.07364 34.106179,6.2464959 58.267159,-1.0855114 79.452711,4.6491505 92.566927,8.1990031 107.57182,18.990724 113.08098,28.83506 c 1.14286,2.042168 2.2003,2.166088 8.59423,1.007145 l 7.29103,-1.321546 -3.1729,10.073004 c -1.74509,5.540152 -4.16087,13.523004 -5.36839,17.73967 -1.20752,4.216667 -2.54712,7.611047 -2.97689,7.543068 C 117.01829,63.808421 111.41666,57.853571 105,50.6434 Z"
       id="path174"
       inkscape:connector-curvature="0" />
  </g>
</svg>
