<?xml version="1.0" encoding="UTF-8" standalone="no"?>
<!-- Created with Inkscape (http://www.inkscape.org/) -->

<svg
   xmlns:dc="http://purl.org/dc/elements/1.1/"
   xmlns:cc="http://creativecommons.org/ns#"
   xmlns:rdf="http://www.w3.org/1999/02/22-rdf-syntax-ns#"
   xmlns:svg="http://www.w3.org/2000/svg"
   xmlns="http://www.w3.org/2000/svg"
   xmlns:sodipodi="http://sodipodi.sourceforge.net/DTD/sodipodi-0.dtd"
   xmlns:inkscape="http://www.inkscape.org/namespaces/inkscape"
   version="1.1"
   id="svg238"
   width="133.33333"
   height="130.66667"
   viewBox="0 0 133.33333 130.66667"
   sodipodi:docname="facebook.svg"
   inkscape:version="0.92.1 r15371">
  <metadata
     id="metadata244">
    <rdf:RDF>
      <cc:Work
         rdf:about="">
        <dc:format>image/svg+xml</dc:format>
        <dc:type
           rdf:resource="http://purl.org/dc/dcmitype/StillImage" />
        <dc:title></dc:title>
      </cc:Work>
    </rdf:RDF>
  </metadata>
  <defs
     id="defs242" />
  <sodipodi:namedview
     pagecolor="#ffffff"
     bordercolor="#666666"
     borderopacity="1"
     objecttolerance="10"
     gridtolerance="10"
     guidetolerance="10"
     inkscape:pageopacity="0"
     inkscape:pageshadow="2"
     inkscape:window-width="1920"
     inkscape:window-height="1017"
     id="namedview240"
     showgrid="false"
     inkscape:zoom="1.8061224"
     inkscape:cx="66.666664"
     inkscape:cy="65.333336"
     inkscape:window-x="-8"
     inkscape:window-y="-8"
     inkscape:window-maximized="1"
     inkscape:current-layer="svg238" />
  <g
     id="g248"
     transform="translate(1.6610171)">
    <path
       style="fill:#ccd5ea;stroke-width:1.33333337"
       d="M 48.139507,128.55665 C 5.7531864,117.15832 -13.4821,66.857898 10.409637,29.892735 22.852355,10.641431 42.89271,0 66.704796,0 c 39.945564,0 71.801214,36.377996 65.463124,74.756539 -4.24679,25.715301 -22.6641,46.318621 -48.07659,53.782961 -8.939632,2.62581 -26.220474,2.63405 -35.951823,0.0171 z m 27.860491,-1.92825 c 4.812912,-0.75051 13.003636,-3.46546 18.420029,-6.10561 46.345053,-22.590298 46.345053,-87.780509 0,-110.381071 C 40.865447,-15.974635 -15.563548,38.131889 9.3434084,91.716808 18.805498,112.07358 40.961636,126.538 64.666665,127.83406 c 1.466667,0.0802 6.566667,-0.46236 11.333333,-1.20566 z M 62.222221,81.777779 c -0.488889,-0.488888 -0.888889,-4.988888 -0.888889,-10 0,-5.185185 -0.574526,-9.111111 -1.333334,-9.111111 -0.733333,0 -1.333333,-1.8 -1.333333,-4 0,-2.2 0.525,-4 1.166667,-4 0.641666,0 1.545229,-1.892816 2.007917,-4.206256 1.190156,-5.950776 3.158041,-7.793744 8.322009,-7.793744 3.855977,0 4.503407,0.456857 4.503407,3.177825 0,2.056486 -0.94097,3.423894 -2.666667,3.875174 -1.466666,0.383541 -2.666666,1.653521 -2.666666,2.822174 0,1.235938 1.11556,2.124827 2.666666,2.124827 2.074075,0 2.666667,0.888889 2.666667,4 0,3.111111 -0.592592,4 -2.666667,4 -2.429629,0 -2.666666,0.88889 -2.666666,10.000001 0,9.587301 -0.1284,10 -3.111111,10 -1.711112,0 -3.511112,-0.4 -4,-0.88889 z"
       id="path262"
       inkscape:connector-curvature="0" />
    <path
       style="fill:#b9c5e2;stroke-width:1.33333337"
       d="M 49.699345,128.61461 C 25.882802,122.19992 6.720399,102.88205 1.4392096,79.962927 -6.4826206,45.584048 15.080006,11.151524 50.270924,1.9854537 91.564104,-8.7700541 132.28692,22.683617 132.28692,65.333335 c 0,36.550945 -29.47802,65.589185 -66.23372,65.245585 -5.162594,-0.0483 -12.521829,-0.9322 -16.353855,-1.96431 z m 28.389108,-2.05966 c 19.617979,-3.58325 36.725927,-16.87682 45.577877,-35.415864 4.88125,-10.223016 5.00033,-10.837581 5.00033,-25.805751 0,-14.96817 -0.11908,-15.582735 -5.00033,-25.805751 C 100.42636,-9.1449541 32.178839,-8.9944642 8.6486826,39.781205 -6.0847606,70.322163 8.1985429,107.30711 40.424343,122.06057 c 12.437584,5.69412 23.72287,7.04077 37.66411,4.49438 z M 62.666665,72.000002 c 0,-7.407408 -0.412699,-9.333334 -2,-9.333334 -1.333333,0 -2,-1.333333 -2,-4 0,-2.666667 0.666667,-4 2,-4 1.373737,0 2,-1.377777 2,-4.4 0,-5.563791 2.036209,-7.6 7.6,-7.6 3.804444,0 4.4,0.451178 4.4,3.333333 0,2.444444 -0.711111,3.333334 -2.666667,3.333334 -1.777777,0 -2.666666,0.888889 -2.666666,2.666666 0,1.777778 0.888889,2.666667 2.666666,2.666667 2.074075,0 2.666667,0.888889 2.666667,4 0,3.111111 -0.592592,4 -2.666667,4 -2.412698,0 -2.666666,0.88889 -2.666666,9.333334 0,9.066667 -0.09524,9.333333 -3.333334,9.333333 -3.238094,0 -3.333333,-0.266666 -3.333333,-9.333333 z"
       id="path260"
       inkscape:connector-curvature="0" />
    <path
       style="fill:#a9b8dc;stroke-width:1.33333337"
       d="M 49.4831,128.55927 C 0.61408541,115.41675 -16.307269,55.62866 18.761565,20.011118 51.169065,-12.903449 106.39881,-3.55404 126.34683,38.223382 c 4.93685,10.339313 4.9865,10.609219 4.9865,27.109953 0,16.500734 -0.0496,16.77064 -4.9865,27.109953 -13.8019,28.905532 -46.516813,44.277292 -76.86373,36.115982 z m 29.334911,-1.89964 C 107.75674,121.2588 129.33333,95.064512 129.33333,65.333335 129.33333,40.995205 116.16632,20.146293 93.860726,9.1652836 63.340661,-5.8596955 24.482933,7.4288786 9.4103514,38.045641 -13.355593,84.289842 27.353902,136.26438 78.818011,126.65963 Z M 62.666665,72.000002 c 0,-7.407408 -0.412699,-9.333334 -2,-9.333334 -1.2206,0 -2,-1.243409 -2,-3.190681 0,-1.754875 0.9,-3.536044 2,-3.958154 1.22396,-0.469677 2,-2.490998 2,-5.209318 0,-5.604971 2.025723,-7.641847 7.6,-7.641847 3.804444,0 4.4,0.451178 4.4,3.333333 0,2.444444 -0.711111,3.333334 -2.666667,3.333334 -1.955556,0 -2.666666,0.888889 -2.666666,3.333333 0,2.444444 0.71111,3.333333 2.666666,3.333333 1.817525,0 2.666667,0.88889 2.666667,2.791494 0,1.670153 -1.071196,3.071616 -2.666667,3.488841 -2.340856,0.612148 -2.666666,1.818688 -2.666666,9.875174 0,8.900792 -0.100618,9.177825 -3.333334,9.177825 -3.238094,0 -3.333333,-0.266666 -3.333333,-9.333333 z"
       id="path258"
       inkscape:connector-curvature="0" />
    <path
       style="fill:#93a6d4;stroke-width:1.33333337"
       d="M 50.178767,128.55139 C 15.555564,120.17093 -6.7480357,83.801058 2.0415895,50.055407 10.54871,17.394364 42.220767,-3.8607409 75.283943,0.90249068 87.09231,2.6036577 101.92758,9.2875133 110.54872,16.790623 c 18.18548,15.827084 26.04745,44.047819 18.80429,67.498439 -5.43434,17.594348 -17.14569,31.085018 -34.019679,39.188328 -15.096196,7.24957 -29.485981,8.86654 -45.154564,5.074 z m 31.774615,-2.59527 C 110.33412,118.56388 129.33333,94.254336 129.33333,65.333335 129.33333,9.533976 61.147742,-18.27252 21.516243,21.364874 5.2652804,37.618254 -0.86243243,59.223946 4.7105452,80.620053 7.6143206,91.7684 12.819893,100.60416 21.740426,109.52598 c 15.720205,15.72248 38.776216,22.01371 60.212956,16.43014 z M 62.666665,72.000002 c 0,-7.407408 -0.412699,-9.333334 -2,-9.333334 -1.244444,0 -2,-1.259258 -2,-3.333333 0,-2.074075 0.755556,-3.333334 2,-3.333334 1.342864,0 2,-1.343073 2,-4.087654 0,-6.569482 2.13624,-9.245679 7.380245,-9.245679 4.038849,0 4.619755,0.419145 4.619755,3.333333 0,2.444444 -0.711111,3.333334 -2.666667,3.333334 -1.955556,0 -2.666666,0.888889 -2.666666,3.333333 0,2.444444 0.71111,3.333333 2.666666,3.333333 1.817525,0 2.666667,0.88889 2.666667,2.791494 0,1.670153 -1.071196,3.071616 -2.666667,3.488841 -2.340856,0.612148 -2.666666,1.818688 -2.666666,9.875174 0,8.900792 -0.100618,9.177825 -3.333334,9.177825 -3.238094,0 -3.333333,-0.266666 -3.333333,-9.333333 z"
       id="path256"
       inkscape:connector-curvature="0" />
    <path
       style="fill:#718bc6;stroke-width:1.33333337"
       d="M 53.999999,129.2812 C 19.010393,122.10859 -4.3472898,89.55004 1.1885231,55.666668 7.089376,19.548975 41.126106,-4.7738064 77.242709,1.3180479 102.51396,5.5805963 123.67782,24.60927 129.95612,48.713284 c 5.83034,22.384191 -0.42683,45.66746 -16.64011,61.918806 -15.43805,15.47429 -38.868144,22.84078 -59.316011,18.64911 z m 38.59804,-7.03485 C 118.77629,109.81435 133.10055,84.016463 129.19622,56.333335 124.95173,26.238419 97.539627,2.7386179 66.613464,2.6824919 41.411098,2.6367537 19.251766,16.662363 8.3046438,39.58869 3.4568647,49.741292 3.3333332,50.381017 3.3333332,65.333335 c 0,14.952318 0.123532,15.592043 4.9713106,25.744645 5.8576692,12.26759 16.8977132,24.11711 27.4529712,29.46586 11.48531,5.82005 19.573253,7.49467 33.780515,6.9943 11.536165,-0.40629 13.928427,-0.95527 23.059909,-5.29179 z M 62.666665,71.333335 c 0,-8 -0.4,-10 -2,-10 -1.11111,0 -2,-1.185185 -2,-2.666667 0,-1.481481 0.88889,-2.666667 2,-2.666667 1.388889,0 2,-1.396825 2,-4.571428 0,-5.601789 2.919672,-8.761905 8.095239,-8.761905 3.276189,0 3.904761,0.536585 3.904761,3.333333 0,2.444444 -0.711111,3.333334 -2.666667,3.333334 -1.955556,0 -2.666666,0.888889 -2.666666,3.333333 0,2.444444 0.71111,3.333333 2.666666,3.333333 1.777777,0 2.666667,0.88889 2.666667,2.666667 0,1.777778 -0.88889,2.666667 -2.666667,2.666667 -2.429629,0 -2.666666,0.888889 -2.666666,10 0,9.777778 -0.07408,10 -3.333334,10 -3.259258,0 -3.333333,-0.222222 -3.333333,-10 z"
       id="path254"
       inkscape:connector-curvature="0" />
    <path
       style="fill:#617dc0;stroke-width:1.33333337"
       d="M 54.666665,129.22195 C 32.023227,125.29542 11.793134,108.04665 3.8478774,85.892369 c -3.95570112,-11.02994 -3.95570112,-30.088128 0,-41.118068 C 15.892277,11.190114 51.9078,-6.8569162 85.999998,3.6086684 112.65085,11.789917 132,37.753388 132,65.333335 c 0,21.345306 -13.31861,44.846495 -31.4309,55.461005 -13.002184,7.61978 -31.245487,10.96922 -45.902435,8.42761 z m 30.859553,-3.84078 c 19.387102,-5.99162 34.465402,-20.5132 41.436212,-39.9063 3.73728,-10.397307 3.73728,-29.885763 0,-40.28307 C 117.61895,19.197795 94.159387,2.6119625 66.859552,2.6992614 61.253464,2.7171885 54.033732,3.3388449 50.815703,4.0807202 36.093075,7.4748327 20.570622,18.643843 11.987921,32.018823 c -12.47690745,19.443577 -12.47690745,47.185447 0,66.629024 8.38869,13.072643 24.169006,24.571433 38.276718,27.891453 9.34442,2.19906 26.188815,1.64582 35.261579,-1.15813 z M 62.666665,71.333335 c 0,-8 -0.4,-10 -2,-10 -1.11111,0 -2,-1.185185 -2,-2.666667 0,-1.481481 0.88889,-2.666667 2,-2.666667 1.379175,0 2,-1.384446 2,-4.460016 0,-5.299333 3.398777,-8.873317 8.438321,-8.873317 4.3386,0 5.063053,4.629697 0.895012,5.719665 -3.862528,1.010074 -3.738801,7.613668 0.142652,7.613668 2.01394,0 2.580183,0.597118 2,2.10905 -0.445125,1.159979 -0.809319,2.359979 -0.809319,2.666667 0,0.306689 -0.899999,0.557617 -1.999999,0.557617 -1.6,0 -2,2 -2,10 0,9.777778 -0.07407,10 -3.333334,10 -3.259258,0 -3.333333,-0.222222 -3.333333,-10 z"
       id="path252"
       inkscape:connector-curvature="0" />
    <path
       style="fill:#4a6bb7;stroke-width:1.33333337"
       d="M 55.540049,129.22876 C 35.841656,126.28538 15.973964,111.38052 7.3522418,93.07798 -4.563973,67.781752 0.19500416,39.591664 19.669254,20.117413 55.622657,-15.835992 117.17519,0.97732958 130.01111,50.257732 c 5.67267,21.778901 -1.51417,45.488044 -18.64666,61.514648 -15.289936,14.30299 -35.219957,20.53514 -55.824401,17.45638 z m 34.225585,-5.13975 c 16.968496,-6.60183 32.115596,-22.49467 37.572556,-39.422341 3.47316,-10.773851 3.47316,-27.892817 0,-38.666668 C 121.87736,29.060318 106.69845,13.142141 89.765634,6.5975386 78.912218,2.4026477 60.107534,1.5199367 48.504604,4.6607037 33.677818,8.6741282 16.207038,22.514311 9.6041276,35.477286 0.34818786,53.648745 0.3573962,77.036181 9.6276556,95.235504 15.835427,107.42257 32.049975,120.77797 46.349265,125.48192 c 10.821802,3.55998 32.471347,2.86541 43.416369,-1.39291 z M 62.666665,71.333335 c 0,-8 -0.4,-10 -2,-10 -1.11111,0 -2,-1.185185 -2,-2.666667 0,-1.481481 0.88889,-2.666667 2,-2.666667 1.333333,0 2,-1.333333 2,-4 0,-4.874058 4.140755,-9.333333 8.666667,-9.333333 4.139405,0 4.683633,4.669205 0.666666,5.719665 -3.662518,0.957771 -3.771641,7.613668 -0.124826,7.613668 1.885401,0 2.361747,0.688676 1.844491,2.666667 -0.383541,1.466667 -1.52737,2.666667 -2.541839,2.666667 -1.406479,0 -1.844492,2.374709 -1.844492,10 0,9.777778 -0.07407,10 -3.333334,10 -3.259258,0 -3.333333,-0.222222 -3.333333,-10 z"
       id="path250"
       inkscape:connector-curvature="0" />
  </g>
</svg>
