<?xml version="1.0" encoding="UTF-8" standalone="no"?>
<!-- Created with Inkscape (http://www.inkscape.org/) -->

<svg
   xmlns:dc="http://purl.org/dc/elements/1.1/"
   xmlns:cc="http://creativecommons.org/ns#"
   xmlns:rdf="http://www.w3.org/1999/02/22-rdf-syntax-ns#"
   xmlns:svg="http://www.w3.org/2000/svg"
   xmlns="http://www.w3.org/2000/svg"
   xmlns:sodipodi="http://sodipodi.sourceforge.net/DTD/sodipodi-0.dtd"
   xmlns:inkscape="http://www.inkscape.org/namespaces/inkscape"
   version="1.1"
   id="svg212"
   width="93.333336"
   height="93.333336"
   viewBox="0 0 93.333336 93.333336"
   sodipodi:docname="form.svg"
   inkscape:version="0.92.1 r15371">
  <metadata
     id="metadata218">
    <rdf:RDF>
      <cc:Work
         rdf:about="">
        <dc:format>image/svg+xml</dc:format>
        <dc:type
           rdf:resource="http://purl.org/dc/dcmitype/StillImage" />
        <dc:title></dc:title>
      </cc:Work>
    </rdf:RDF>
  </metadata>
  <defs
     id="defs216" />
  <sodipodi:namedview
     pagecolor="#ffffff"
     bordercolor="#666666"
     borderopacity="1"
     objecttolerance="10"
     gridtolerance="10"
     guidetolerance="10"
     inkscape:pageopacity="0"
     inkscape:pageshadow="2"
     inkscape:window-width="1920"
     inkscape:window-height="1017"
     id="namedview214"
     showgrid="false"
     inkscape:zoom="2.5285714"
     inkscape:cx="46.666668"
     inkscape:cy="46.666668"
     inkscape:window-x="-8"
     inkscape:window-y="-8"
     inkscape:window-maximized="1"
     inkscape:current-layer="svg212" />
  <g
     id="g222"
     transform="translate(0.79096023,0.39548025)">
    <path
       style="fill:#f3f4f5;stroke-width:1.33333337"
       d="M 29.227305,90.274215 C 9.3914915,81.941688 -0.8280815,65.718355 0.23097269,44.243217 1.1261214,26.091701 10.595223,11.639644 26.469385,4.1972821 32.958602,1.1549105 35.751657,0.66666669 46.666668,0.66666669 c 10.915011,0 13.708066,0.48824381 20.197283,3.53061541 9.589993,4.4961235 17.775979,12.6821099 22.272102,22.2721029 3.042372,6.489217 3.530616,9.282272 3.530616,20.197283 0,10.915011 -0.488244,13.708066 -3.530616,20.197283 -4.502111,9.602766 -12.694484,17.787458 -22.272102,22.25122 -10.846904,5.055328 -27.165147,5.557858 -37.636646,1.159044 z m 29.422559,-7.05941 C 68.670547,80.238982 80.238982,68.670547 83.214805,58.649864 87.782284,43.269495 84.735385,31.188717 73.440002,19.893334 62.144619,8.5979508 50.063841,5.5510519 34.683472,10.118531 24.662789,13.094354 13.094354,24.662789 10.118531,34.683472 5.5483392,50.072976 8.5967437,62.143412 19.911006,73.457674 31.17658,84.723248 43.293548,87.775141 58.649864,83.214805 Z M 43.6118,64.50069 c -0.519823,-0.519823 -0.945132,-5.118599 -0.945132,-10.219503 0,-7.935694 -0.278091,-9.043578 -1.926611,-7.675427 -2.9132,2.417741 -8.006535,1.195164 -8.468032,-2.032621 -0.269487,-1.88483 1.720948,-4.739085 6.276212,-9.000001 3.66897,-3.431892 7.294831,-6.239804 8.057468,-6.239804 1.776652,0 11.806321,9.03284 13.459453,12.121745 0.692237,1.293458 0.896573,3.295209 0.454077,4.448333 -0.9586,2.498073 -6.575881,2.795956 -8.107211,0.429923 -0.626032,-0.967274 -1.358447,2.529696 -1.745356,8.333333 -0.585999,8.789972 -0.99598,10.047141 -3.388201,10.389578 -1.496844,0.214267 -3.146844,-0.03573 -3.666667,-0.555556 z"
       id="path236"
       inkscape:connector-curvature="0" />
    <path
       style="fill:#eeeef0;stroke-width:1.33333337"
       d="M 32.432234,91.491761 C 20.548366,87.609949 8.9037565,77.158364 3.5488514,65.567562 -0.59025143,56.608388 -0.57736039,36.698054 3.5733622,27.710363 7.6455465,18.892734 17.655823,8.6931629 26.500617,4.3495548 33.09255,1.1123086 35.53271,0.66678747 46.666668,0.66766485 c 10.197591,8.036e-4 13.892687,0.56720245 18.956305,2.90569735 8.817629,4.0721843 19.0172,14.0824608 23.360808,22.9272548 3.236908,6.591244 3.682888,9.033257 3.682888,20.166051 0,11.132794 -0.44598,13.574807 -3.682888,20.166051 -4.377795,8.914407 -14.628366,18.932127 -23.360808,22.830146 -7.880902,3.517906 -25.113033,4.46744 -33.190739,1.828896 z M 60.601528,82.576529 C 86.318665,72.954514 93.465549,39.009406 73.894739,19.438597 44.672373,-9.7837689 -3.7630218,21.793807 10.756808,60.601528 18.100797,80.2301 40.4905,90.101029 60.601528,82.576529 Z M 44.333335,64.450294 c -1.127374,-0.454906 -1.666667,-3.939186 -1.666667,-10.768054 0,-9.695939 -0.09652,-10.008196 -2.438322,-7.888889 -3.090721,2.797065 -6.7379,2.834178 -7.795037,0.07932 -0.552485,-1.439755 1.615776,-4.559438 6.708513,-9.652175 l 7.524846,-7.524843 7.567154,7.567153 c 6.481056,6.481057 7.31879,7.866413 5.83674,9.652175 -2.209596,2.6624 -3.9223,2.632495 -6.965572,-0.121626 -2.341745,-2.119252 -2.438322,-1.808038 -2.438322,7.857345 0,7.947063 -0.443633,10.234236 -2.109049,10.873317 -1.159979,0.445125 -2.209979,0.76195 -2.333334,0.704056 -0.123356,-0.05789 -0.974284,-0.407895 -1.89095,-0.777779 z"
       id="path234"
       inkscape:connector-curvature="0" />
    <path
       style="fill:#e5e6e8;stroke-width:1.33333337"
       d="M 32.105468,91.221272 C 19.553821,86.659786 10.605079,78.721376 4.4257723,66.666669 1.0804635,60.140578 0.66682619,57.939007 0.66811571,46.666668 0.66940797,35.370416 1.0828568,33.184136 4.4895991,26.459003 9.2132524,17.134203 17.053763,9.3429461 26.666667,4.4212493 33.188536,1.0821274 35.401622,0.66666669 46.666668,0.66666669 c 11.265046,0 13.478132,0.41546071 20.000001,3.75458261 9.612904,4.9216968 17.453415,12.7129537 22.177068,22.0377537 3.407224,6.726085 3.820034,8.909813 3.820034,20.207665 0,11.297852 -0.41281,13.48158 -3.820034,20.207665 -4.751591,9.379949 -12.623679,17.172331 -22.177068,21.95252 -9.264062,4.63542 -25.331662,5.748592 -34.561201,2.394419 z M 65.199857,80.610628 c 7.673292,-4.176328 12.029949,-8.693237 16.514545,-17.122 4.185782,-7.867144 4.185782,-25.776776 0,-33.64392 -4.477497,-8.415421 -8.827249,-12.931609 -16.604108,-17.23944 -6.31127,-3.4959992 -8.38388,-3.9386011 -18.443626,-3.9386011 -10.059746,0 -12.132356,0.4426019 -18.443626,3.9386011 C 16.260466,19.231691 9.4118856,29.802696 8.3408185,43.294119 6.8797697,61.697846 16.717884,76.949393 34.270236,83.491222 c 8.203948,3.057644 22.458288,1.730083 30.929621,-2.880594 z M 44.266668,63.733335 c -0.937711,-0.937711 -1.6,-5.438515 -1.6,-10.873317 0,-8.899383 -0.09832,-9.184337 -2.438322,-7.066667 -3.090721,2.797065 -6.7379,2.834178 -7.795037,0.07932 -0.552383,-1.439487 1.610919,-4.55458 6.690563,-9.634225 l 7.506896,-7.506896 6.684618,6.584102 c 3.676538,3.621258 6.684616,7.675491 6.684616,9.009407 0,3.498252 -3.66822,4.3885 -6.716327,1.630001 -2.576619,-2.331809 -2.617007,-2.225247 -2.617007,6.904958 0,8.286932 -1.342509,12.473317 -4,12.473317 -0.44,0 -1.52,-0.72 -2.4,-1.6 z"
       id="path232"
       inkscape:connector-curvature="0" />
    <path
       style="fill:#d6d6da;stroke-width:1.33333337"
       d="M 34.572466,91.594868 C 20.738594,87.672617 10.371265,78.73996 4.1636851,65.394177 1.326258,59.293943 0.71935019,56.011823 0.69553427,46.638632 0.66971401,36.476589 1.125465,34.345309 5.0129129,26.448781 10.079737,16.1566 17.322687,9.1000244 27.839986,4.2090881 c 10.748896,-4.99863778 26.904468,-4.99863778 37.653364,0 C 76.010649,9.1000244 83.2536,16.1566 88.320423,26.448781 c 3.887448,7.896528 4.3432,10.027808 4.317378,20.189851 -0.03356,13.206846 -3.526577,22.50535 -11.961503,31.841805 C 70.259774,90.010285 49.655445,95.871273 34.572466,91.594868 Z m 26.178698,-8.49659 c 8.810871,-3.002165 19.344949,-13.536243 22.347114,-22.347114 5.163415,-15.153788 1.786607,-30.70686 -9.01132,-41.504786 -15.347626,-15.3476272 -39.492954,-15.3476272 -54.84058,0 -10.7979268,10.797926 -14.1747351,26.350998 -9.011321,41.504786 2.872126,8.429223 13.57905,19.364806 21.801176,22.266764 7.933616,2.800129 20.628563,2.835653 28.714931,0.08035 z M 43.6118,63.167356 c -0.519823,-0.519822 -0.945132,-5.138125 -0.945132,-10.262893 0,-8.94244 -0.09821,-9.228878 -2.438322,-7.111112 -3.001061,2.715924 -4.7553,2.784845 -6.843377,0.268866 -1.315039,-1.584525 -0.460801,-3.164466 4.685863,-8.666667 3.461744,-3.700885 7.287051,-6.728882 8.500681,-6.728882 2.906746,0 13.428489,10.780697 13.428489,13.758981 0,3.382754 -3.695751,4.262994 -6.654866,1.585032 -2.494016,-2.257053 -2.565051,-2.076358 -2.95034,7.504959 -0.350388,8.713403 -0.700912,9.861515 -3.116329,10.207272 -1.496844,0.214267 -3.146844,-0.03573 -3.666667,-0.555556 z"
       id="path230"
       inkscape:connector-curvature="0" />
    <path
       style="fill:#cfd0d4;stroke-width:1.33333337"
       d="M 34.666668,91.19842 C 18.659847,86.921501 6.2575731,74.316707 2.0539881,58.053203 c -2.56478382,-9.923047 -2.56478382,-12.850023 0,-22.77307 C 6.4557287,18.249973 18.897691,6.1404684 36.442021,1.8109714 62.41322,-4.5980635 87.150172,12.220766 92.27374,39.771356 c 1.239503,6.665087 1.112063,9.568787 -0.751375,17.119959 -4.329497,17.54433 -16.439002,29.986293 -33.469162,34.388033 -9.625959,2.487996 -13.826468,2.473461 -23.386535,-0.08093 z M 62.79843,82.431836 c 3.372469,-1.422735 8.593764,-5.101926 11.602876,-8.175979 15.409391,-15.741946 15.409391,-39.436432 0,-55.178378 C 50.108009,-5.7401023 7.6078434,11.814686 7.6078434,46.666668 c 0,28.690373 28.3745886,47.077963 55.1905866,35.765168 z M 43.475987,61.890952 C 43.030861,60.730974 42.666668,56.217143 42.666668,51.860215 v -7.921688 l -3.274699,2.145665 c -3.598884,2.358079 -6.058635,1.635789 -6.058635,-1.779077 0,-2.83514 10.561621,-13.638447 13.333334,-13.638447 2.737719,0 13.333334,10.787251 13.333334,13.574484 0,3.086907 -3.241506,3.874521 -6.513598,1.582659 -2.776508,-1.944742 -2.819736,-1.852888 -2.819736,5.991536 0,9.588567 -0.852248,12.184655 -4,12.184655 -1.309749,0 -2.745556,-0.949072 -3.190681,-2.10905 z"
       id="path228"
       inkscape:connector-curvature="0" />
    <path
       style="fill:#ccccd1;stroke-width:1.33333337"
       d="M 37.806736,92.002569 C 29.522774,90.280271 20.010006,84.922913 13.734334,78.445584 -3.8634614,60.282314 -3.5551406,31.908418 14.431882,14.252154 c 18.461292,-18.1218129 46.76153,-18.0431372 64.6493,0.179728 18.07811,18.41677 18.07811,46.052802 0,64.469572 C 68.701267,89.475817 51.664187,94.883637 37.806736,92.002569 Z m 24.93728,-9.496303 c 3.402398,-1.46367 8.648178,-5.176356 11.65729,-8.250409 C 98.887143,49.241583 81.57143,7.5782063 46.666668,7.5234751 12.247305,7.469505 -5.4843892,49.03076 18.399134,73.779647 30.24919,86.059064 46.87832,89.331507 62.744016,82.506266 Z M 44.000001,53.333335 c 0,-5.866667 -0.411329,-10.666667 -0.914065,-10.666667 -0.502736,0 -2.258319,1.262861 -3.901296,2.806359 -3.182612,2.989908 -5.851306,2.457241 -5.851306,-1.167912 0,-2.925306 10.602527,-13.638447 13.497629,-13.638447 2.242861,0 13.169039,11.252959 13.169039,13.5629 0,2.337795 -4.143816,2.720248 -6.487982,0.598808 -1.313763,-1.188939 -2.791416,-2.161708 -3.283673,-2.161708 -0.492256,0 -0.895012,4.8 -0.895012,10.666667 0,9.777777 -0.222223,10.666667 -2.666667,10.666667 -2.444444,0 -2.666667,-0.88889 -2.666667,-10.666667 z"
       id="path226"
       inkscape:connector-curvature="0" />
    <path
       style="fill:#c8c9ce;stroke-width:1.33333337"
       d="M 38.968321,91.817192 C 19.948249,88.739796 4.5710979,73.241851 1.573914,54.129038 -2.3863083,28.875001 14.373702,5.4677343 39.204298,1.573914 c 25.254037,-3.9602223 48.661303,12.799788 52.555123,37.630384 1.423843,9.079729 -0.170518,20.386677 -3.937586,27.92474 -3.757098,7.518109 -12.539941,16.438658 -19.89547,20.207408 -5.365995,2.749375 -8.524015,3.604943 -19.259697,5.217825 -1.466667,0.220345 -5.830923,-0.11134 -9.698347,-0.737079 z m 24.604851,-9.403266 c 8.083082,-3.799496 15.022824,-10.765885 19.063646,-19.136847 4.498327,-9.318725 4.498327,-23.902097 0,-33.220822 -4.060469,-8.411663 -10.948076,-15.29927 -19.359739,-19.359739 -9.318725,-4.4983269 -23.902097,-4.4983269 -33.220822,0 -8.411663,4.060469 -15.29927,10.948076 -19.359739,19.359739 -4.4983269,9.318725 -4.4983269,23.902097 0,33.220822 5.347133,11.077115 15.137319,19.047041 27.303483,22.22703 6.305,1.648 18.672405,0.153561 25.573171,-3.090183 z M 44.000001,53.333335 c 0,-5.866667 -0.411329,-10.666667 -0.914065,-10.666667 -0.502736,0 -2.258319,1.262861 -3.901296,2.806359 -2.979498,2.799092 -5.851306,2.503712 -5.851306,-0.601838 0,-0.900954 3,-4.592989 6.666667,-8.204521 l 6.666667,-6.566422 6.666667,6.566422 c 3.666667,3.611532 6.666667,7.057808 6.666667,7.658391 0,2.257792 -4.190124,2.582849 -6.487982,0.503317 -1.313763,-1.188939 -2.791416,-2.161708 -3.283673,-2.161708 -0.492256,0 -0.895012,4.8 -0.895012,10.666667 0,9.777777 -0.222223,10.666667 -2.666667,10.666667 -2.444444,0 -2.666667,-0.88889 -2.666667,-10.666667 z"
       id="path224"
       inkscape:connector-curvature="0" />
  </g>
</svg>
