<?xml version="1.0" encoding="UTF-8" standalone="no"?>
<!-- Created with Inkscape (http://www.inkscape.org/) -->

<svg
   xmlns:dc="http://purl.org/dc/elements/1.1/"
   xmlns:cc="http://creativecommons.org/ns#"
   xmlns:rdf="http://www.w3.org/1999/02/22-rdf-syntax-ns#"
   xmlns:svg="http://www.w3.org/2000/svg"
   xmlns="http://www.w3.org/2000/svg"
   xmlns:sodipodi="http://sodipodi.sourceforge.net/DTD/sodipodi-0.dtd"
   xmlns:inkscape="http://www.inkscape.org/namespaces/inkscape"
   version="1.1"
   id="svg264"
   width="133.33333"
   height="130.66667"
   viewBox="0 0 133.33333 130.66667"
   sodipodi:docname="in.svg"
   inkscape:version="0.92.1 r15371">
  <metadata
     id="metadata270">
    <rdf:RDF>
      <cc:Work
         rdf:about="">
        <dc:format>image/svg+xml</dc:format>
        <dc:type
           rdf:resource="http://purl.org/dc/dcmitype/StillImage" />
        <dc:title></dc:title>
      </cc:Work>
    </rdf:RDF>
  </metadata>
  <defs
     id="defs268" />
  <sodipodi:namedview
     pagecolor="#ffffff"
     bordercolor="#666666"
     borderopacity="1"
     objecttolerance="10"
     gridtolerance="10"
     guidetolerance="10"
     inkscape:pageopacity="0"
     inkscape:pageshadow="2"
     inkscape:window-width="1920"
     inkscape:window-height="1017"
     id="namedview266"
     showgrid="false"
     inkscape:zoom="1.8061224"
     inkscape:cx="66.666664"
     inkscape:cy="65.333336"
     inkscape:window-x="-8"
     inkscape:window-y="-8"
     inkscape:window-maximized="1"
     inkscape:current-layer="svg264" />
  <g
     id="g274"
     transform="translate(-0.357742,0.34660712)">
    <path
       style="fill:#f9f9f9;stroke-width:1.33333337"
       d="M 49.333332,128.76307 C 39.860726,126.04189 34.410163,123.27752 25.891987,116.87429 7.1832862,102.81071 -2.7585979,78.254883 1.1136859,55.673463 5.1700681,32.018462 19.663625,13.882786 42.198732,4.2640554 52.802681,-0.26206058 73.257805,-1.3740104 84.703886,1.9534559 104.24694,7.6347759 118.14968,19.169134 127.01216,37.054356 l 5.6545,11.411269 v 16.86771 16.86771 l -5.6545,11.411269 c -8.73841,17.634846 -22.60511,29.273596 -41.587497,34.905656 -8.693322,2.57931 -27.520747,2.70717 -36.091331,0.2451 z M 87.478079,125.1686 C 136.04309,109.70225 146.58518,45.539809 105.61883,14.758286 74.183822,-8.861529 26.739953,2.358727 9.4738628,37.496128 -15.315213,87.943198 33.188027,142.45819 87.478079,125.1686 Z M 49.333332,66.666668 V 52.000001 h 4.666667 4.666666 v 14.666667 14.666667 h -4.666666 -4.666667 z m 13.333333,-0.02449 V 51.951017 l 7,0.0052 c 3.85,0.0028 8.5,0.0093 10.333333,0.01439 6.043376,0.01668 8,4.299348 8,17.510448 v 11.852283 h -4.610581 -4.61058 l -0.38942,-10.333333 c -0.351028,-9.314639 -0.652308,-10.333334 -3.056086,-10.333334 -2.403777,0 -2.705057,1.018695 -3.056085,10.333334 l -0.38942,10.333333 h -4.61058 -4.610581 z M 50.893231,48.168243 c -1.007288,-0.638566 -1.583306,-2.789809 -1.333334,-4.979585 0.376367,-3.297004 1.019372,-3.855324 4.440102,-3.855324 3.420729,0 4.063734,0.55832 4.440101,3.855324 0.416041,3.644566 -1.372903,6.103842 -4.440101,6.103842 -0.733334,0 -2.131379,-0.505916 -3.106768,-1.124257 z"
       id="path288"
       inkscape:connector-curvature="0" />
    <path
       style="fill:#f5f5f5;stroke-width:1.33333337"
       d="M 47.926699,128.15304 C 36.078376,124.36143 27.281975,118.86727 18.623846,109.85072 -5.6104711,84.613197 -5.6971731,46.923895 18.419778,21.142797 31.494949,7.1653975 47.833133,0 66.628534,0 90.44062,0 110.48097,10.641431 122.92369,29.892735 c 24.06363,37.231115 4.53301,87.572525 -38.303641,98.730055 -10.47811,2.7292 -27.372916,2.51291 -36.69335,-0.46975 z m 29.406632,-0.23309 C 100.65102,124.17144 121.22092,106.83948 128.33873,84.943392 132.15331,73.208827 132.04858,56.775767 128.08629,45.333334 111.99311,-1.1410857 51.080707,-13.11432 18.52585,23.797606 -14.50086,61.244539 7.0427922,119.54128 57.017847,127.95626 c 9.027645,1.52011 10.651826,1.51721 20.315484,-0.0363 z M 49.333332,66.666668 V 52.000001 h 4.666667 4.666666 v 14.666667 14.666667 h -4.666666 -4.666667 z m 13.333333,0.130574 v -14.53609 l 10.090999,-0.03957 c 14.071516,-0.0552 15.242334,1.259218 15.242334,17.111753 v 12 h -4.610581 -4.61058 l -0.38942,-10.333333 c -0.351028,-9.314639 -0.652308,-10.333334 -3.056086,-10.333334 -2.403777,0 -2.705057,1.018695 -3.056085,10.333334 l -0.38942,10.333333 h -4.61058 -4.610581 V 66.797244 Z M 50.727573,47.406721 c -0.87942,-1.059636 -1.402886,-3.309636 -1.16326,-5 0.34436,-2.429167 1.274135,-3.073387 4.435686,-3.073387 3.16155,0 4.091325,0.64422 4.435685,3.07339 0.477375,3.367475 -1.801837,6.926611 -4.435685,6.926611 -0.920415,0 -2.393006,-0.866975 -3.272426,-1.926611 z"
       id="path286"
       inkscape:connector-curvature="0" />
    <path
       style="fill:#f1f1f1;stroke-width:1.33333337"
       d="M 49.686065,128.69356 C 38.034274,125.41814 29.120842,120.0654 19.910828,110.81277 9.5243414,100.37822 4.6581718,91.112756 1.7128789,76.162845 c -1.95581735,-9.927466 -1.95581735,-11.731554 0,-21.65902 C 4.6758675,39.464093 9.5199624,30.270678 19.902661,19.982162 33.905074,6.1067664 48.485388,-0.03266989 67.28013,0.03259464 79.098829,0.07363494 86.531289,1.7773191 96.666664,6.7686384 132.40662,24.369322 144.44252,69.100798 122.19734,101.65353 c -7.16243,10.48122 -18.63193,19.8193 -30.045282,24.46185 -11.009616,4.47832 -31.320014,5.7114 -42.465993,2.57818 z M 80.359741,127.3743 C 113.65497,120.31889 136.18493,88.307653 130.80088,55.706001 125.12519,21.338414 92.213583,-2.5921527 57.686232,2.5431513 26.231621,7.2214422 2.698317,34.093901 2.698317,65.333335 c 0,34.209565 28.560245,63.007145 63.301681,63.827725 2.933334,0.0693 9.395217,-0.73476 14.359743,-1.78676 z M 49.333332,66.666668 V 52.000001 h 4.666667 4.666666 v 14.666667 14.666667 h -4.666666 -4.666667 z m 13.333333,0 V 52.000001 h 4 c 2.2,0 4,0.547882 4,1.217515 0,0.686403 1.642329,0.597604 3.764858,-0.203561 5.1621,-1.948475 10.135684,-0.422632 12.006556,3.683481 0.859055,1.885423 1.561919,8.199808 1.561919,14.03197 v 10.603929 h -4 -4 v -8.087654 c 0,-8.681002 -1.608209,-13.245679 -4.666667,-13.245679 -3.058457,0 -4.666666,4.564677 -4.666666,13.245679 v 8.087654 h -4 -4 z M 50.727573,47.406724 c -0.87942,-1.059636 -1.402886,-3.309636 -1.16326,-5 0.34436,-2.42917 1.274135,-3.07339 4.435686,-3.07339 3.16155,0 4.091325,0.64422 4.435685,3.07339 0.477375,3.367475 -1.801837,6.926611 -4.435685,6.926611 -0.920415,0 -2.393006,-0.866975 -3.272426,-1.926611 z"
       id="path284"
       inkscape:connector-curvature="0" />
    <path
       style="fill:#eaeaea;stroke-width:1.33333337"
       d="M 51.130501,128.77359 C 32.152107,124.17012 15.651246,110.59 6.9864954,92.443288 2.0496453,82.103975 1.9999999,81.834069 1.9999999,65.333335 c 0,-16.500734 0.049645,-16.77064 4.9864955,-27.109953 C 27.02439,-3.7422572 81.985217,-12.984581 114.65793,20.117135 c 24.86424,25.190715 24.86424,65.241685 0,90.432395 -16.419911,16.63551 -41.003048,23.68766 -63.527429,18.22406 z m 28.291285,-0.88531 C 91.581164,125.66736 103.12225,119.5106 112.55823,110.21119 138.1128,85.026473 138.15512,46.105743 112.65568,20.606303 72.357569,-19.691813 2.6666666,8.6479909 2.6666666,65.333335 c 0,17.459966 5.493304,30.726105 18.2923964,44.175505 14.961516,15.72169 36.294834,22.42844 58.462723,18.37944 z M 49.621556,67.000002 49.999999,52.666668 h 4 4 l 0.378442,14.333334 0.378442,14.333333 H 53.999999 49.243115 Z M 62.666665,66.666668 V 52.000001 h 4 c 2.833153,0 4,0.643706 4,2.206651 0,2.053311 0.169437,2.053311 2.438321,0 3.675285,-3.326089 8.932969,-2.759869 12.131572,1.306495 2.29548,2.91823 2.76344,5.401876 2.76344,14.666667 v 11.153521 h -4 -4 v -8.557617 c 0,-10.087376 -0.815607,-12.775716 -3.875985,-12.775716 -4.130313,0 -5.457348,2.98282 -5.457348,12.266667 v 9.066666 h -4 -4 z M 51.372532,47.526876 c -2.733209,-1.998571 -2.308729,-5.984862 0.849036,-7.973312 1.610468,-1.014114 2.802468,-0.916824 4.333333,0.353681 4.844039,4.020196 -0.121146,11.320492 -5.182369,7.619631 z"
       id="path282"
       inkscape:connector-curvature="0" />
    <path
       style="fill:#e4e4e4;stroke-width:1.33333337"
       d="M 53.408581,129.21272 C 45.016203,127.56707 29.705429,119.89934 22.784607,113.87605 4.5991342,98.048963 -3.2628362,69.828228 3.9803222,46.377608 7.2581777,35.765146 15.026097,23.542967 22.784607,16.790623 37.536648,3.9517041 62.682738,-2.9195858 79.333331,1.338412 c 2.349396,0.6008028 -0.12651,0.7494921 -6,0.3603271 C 41.859344,-0.3866611 14.128646,17.859963 5.2855015,46.473781 -3.9390958,76.321869 9.8925836,108.29653 37.999999,122.09982 c 11.489956,5.64261 22.253206,7.73477 35.333332,6.86811 5.87349,-0.38916 8.349396,-0.24047 6,0.36033 -5.371674,1.37368 -18.631499,1.31458 -25.92475,-0.11554 z m 37.704791,-4.47493 c 54.184948,-22.27923 54.184948,-96.52968 0,-118.8089086 -4.279022,-1.7594061 -6.810655,-3.2131613 -5.62585,-3.2305673 4.717509,-0.069305 21.253268,9.6656659 28.174648,16.5870449 25.91795,25.917957 25.91795,66.177995 0,92.095951 -6.92138,6.92138 -23.457139,16.65635 -28.174648,16.58705 -1.184805,-0.0174 1.346828,-1.47116 5.62585,-3.23057 z M 49.333332,67.333335 v -14 h 4 4 v 14 14 h -4 -4 z m 13.333333,0 v -14 h 4 c 2.2,0 4,0.692992 4,1.539984 0,0.921389 0.979447,0.653596 2.438321,-0.666667 3.219937,-2.914004 7.210981,-2.791049 11.080633,0.341369 2.813028,2.277098 3.19726,3.836551 3.613709,14.666667 l 0.465998,12.118647 h -4.132664 -4.132664 v -9.238094 c 0,-6.620491 -0.593684,-9.831779 -2.095239,-11.333334 -2.574472,-2.574474 -2.568384,-2.574474 -5.142855,0 -1.501555,1.501555 -2.095239,4.712843 -2.095239,11.333334 v 9.238094 h -4 -4 z M 49.745956,45.818771 c -1.102997,-2.874366 1.26564,-6.485437 4.254043,-6.485437 2.988402,0 5.35704,3.611071 4.254042,6.485437 -1.094541,2.852329 -7.413544,2.852329 -8.508085,0 z"
       id="path280"
       inkscape:connector-curvature="0" />
    <path
       style="fill:#dbdbdb;stroke-width:1.33333337"
       d="m 62.97612,129.71397 c 2.003533,-0.30423 5.603533,-0.31036 8,-0.0136 2.396466,0.29674 0.757212,0.54566 -3.642788,0.55314 -4.4,0.007 -6.360746,-0.23531 -4.357212,-0.53954 z m -9.892788,-1.29145 c 0.9625,-0.38516 2.1125,-0.33779 2.555556,0.10526 0.443055,0.44306 -0.344445,0.75819 -1.75,0.7003 -1.553257,-0.064 -1.8692,-0.37992 -0.805556,-0.80556 z m 25.249999,0.0278 c 0.916667,-0.36988 2.416667,-0.36988 3.333334,0 0.916666,0.36989 0.166666,0.67252 -1.666667,0.67252 -1.833333,0 -2.583333,-0.30263 -1.666667,-0.67252 z m 15,-4.45029 c 1.1,-0.71087 2.6,-1.2925 3.333333,-1.2925 0.733334,0 0.433334,0.58163 -0.666666,1.2925 -1.1,0.71088 -2.6,1.2925 -3.333334,1.2925 -0.733333,0 -0.433333,-0.58162 0.666667,-1.2925 z m 13.333329,-7.17007 c 0,-0.27688 1.05,-1.32688 2.33334,-2.33333 2.11474,-1.6585 2.1619,-1.61134 0.5034,0.5034 -1.74182,2.221 -2.83674,2.92731 -2.83674,1.82993 z M 19.249454,110.33334 15.333333,106 l 4.333333,3.91612 c 2.383333,2.15387 4.333333,4.10387 4.333333,4.33334 0,1.03008 -1.10017,0.12314 -4.750545,-3.91612 z m 98.750546,-5 c 1.32731,-1.46667 2.7133,-2.66667 3.07996,-2.66667 0.36667,0 -0.41932,1.2 -1.74663,2.66667 C 118.00602,106.8 116.62003,108 116.25336,108 115.8867,108 116.67268,106.8 118,105.33334 Z M 9.3333331,97.333336 c -0.7849361,-1.466667 -1.1271566,-2.666667 -0.76049,-2.666667 0.3666667,0 1.3088872,1.2 2.0938229,2.666667 C 11.451603,98.800003 11.793823,100 11.427156,100 11.06049,100 10.118269,98.800003 9.3333331,97.333336 Z M 6.164718,91.28179 C 4.87808,87.928865 5.2576375,87.063717 6.8294298,89.766673 7.6076835,91.105008 7.9635615,92.480885 7.6202697,92.824177 7.2769778,93.167469 6.6219796,92.473394 6.164718,91.28179 Z M 2.7719298,80.555558 c 0.063979,-1.553257 0.3799204,-1.8692 0.8055554,-0.805556 0.3851608,0.9625 0.3377924,2.1125 -0.1052626,2.555556 -0.4430556,0.443055 -0.7581872,-0.344445 -0.7002928,-1.75 z M 50.666665,67.333335 v -14 h 3.333334 3.333333 v 14 14 h -3.333333 -3.333334 z m 12,0 v -14 h 4 c 2.2,0 4,0.613832 4,1.36407 0,0.750239 1.495629,0.384098 3.32362,-0.813649 8.278348,-5.424181 14.009713,1.969643 14.009713,18.073421 v 9.376158 H 84.056083 80.11217 L 79.72275,71.140136 C 79.425931,63.37078 78.805065,60.614948 77.111762,59.550788 c -4.355454,-2.737193 -6.445097,1.1359 -6.445097,11.945807 v 9.83674 h -4 -4 z m 68.105265,10.555556 c 0.064,-1.553257 0.37992,-1.8692 0.80555,-0.805556 0.38516,0.9625 0.33779,2.1125 -0.10526,2.555556 -0.44306,0.443055 -0.75819,-0.344445 -0.7003,-1.75 z M 1.5932649,72.666669 c 0.027173,-2.200001 0.3259981,-2.938582 0.664056,-1.641291 0.3380578,1.297289 0.3158254,3.097289 -0.049405,4 C 1.8426848,75.928087 1.566092,74.866669 1.5932649,72.666669 Z M 132.39955,65.333335 c 0,-4.033333 0.24995,-5.683333 0.55545,-3.666667 0.3055,2.016667 0.3055,5.316667 0,7.333334 -0.3055,2.016666 -0.55545,0.366666 -0.55545,-3.666667 z M 1.5932649,58.000001 c 0.027173,-2.2 0.3259981,-2.938581 0.664056,-1.64129 0.3380578,1.297289 0.3158254,3.097289 -0.049405,4 C 1.8426848,61.26142 1.566092,60.200002 1.5932649,58.000001 Z M 130.77193,52.555557 c 0.064,-1.553257 0.37992,-1.8692 0.80555,-0.805556 0.38516,0.9625 0.33779,2.1125 -0.10526,2.555556 -0.44306,0.443055 -0.75819,-0.344445 -0.7003,-1.75 z M 2.7719298,49.888891 c 0.063979,-1.553258 0.3799204,-1.8692 0.8055554,-0.805556 0.3851608,0.9625 0.3377924,2.1125 -0.1052626,2.555556 -0.4430556,0.443054 -0.7581872,-0.344446 -0.7002928,-1.75 z M 50.7374,46.085231 c -1.935813,-2.332511 0.300975,-7.418563 3.262599,-7.418563 2.961624,0 5.198412,5.086052 3.262598,7.418563 -0.874014,1.053124 -2.342184,1.91477 -3.262598,1.91477 -0.920415,0 -2.388584,-0.861646 -3.262599,-1.91477 z M 5.3741672,42.000001 c 0,-0.733333 0.5816248,-2.233333 1.2924993,-3.333333 0.7108745,-1.1 1.2924993,-1.4 1.2924993,-0.666667 0,0.733333 -0.5816248,2.233333 -1.2924993,3.333333 -0.7108745,1.1 -1.2924993,1.4 -1.2924993,0.666667 z m 3.9591659,-8.666667 c 0.7849359,-1.466667 1.7271569,-2.666667 2.0938229,-2.666667 0.366667,0 0.02445,1.2 -0.76049,2.666667 -0.7849357,1.466667 -1.7271562,2.666667 -2.0938229,2.666667 -0.3666666,0 -0.024446,-1.2 0.76049,-2.666667 z m 108.5399769,-8.333333 -2.53998,-3 3,2.539984 c 2.81926,2.386957 3.60699,3.460016 2.53998,3.460016 -0.25301,0 -1.603,-1.35 -3,-3 z M 16,23.832243 c 0,-0.366666 1.8,-2.391176 3.999999,-4.498909 2.2,-2.107734 4,-3.532243 4,-3.165576 0,0.366666 -1.8,2.391176 -4,4.498909 C 17.8,22.774401 16,24.19891 16,23.832243 Z m 92,-8.498909 c -0.91292,-1.1 -1.35985,-2 -0.99319,-2 0.36667,0 1.4136,0.9 2.32652,2 0.91292,1.1 1.35985,2 0.99319,2 -0.36667,0 -1.4136,-0.9 -2.32652,-2 z M 93.333331,6.6666668 c -1.1,-0.7108745 -1.4,-1.2924993 -0.666667,-1.2924993 0.733334,0 2.233334,0.5816248 3.333334,1.2924993 1.1,0.7108746 1.4,1.2924994 0.666666,1.2924994 -0.733333,0 -2.233333,-0.5816248 -3.333333,-1.2924994 z M 53.083332,1.755848 c 0.9625,-0.3851608 2.1125,-0.3377924 2.555556,0.1052627 0.443055,0.4430556 -0.344445,0.7581872 -1.75,0.7002924 -1.553257,-0.063978 -1.8692,-0.37992 -0.805556,-0.8055551 z m 25.249999,0.027778 c 0.916667,-0.3698831 2.416667,-0.3698831 3.333334,0 0.916666,0.3698831 0.166666,0.6725147 -1.666667,0.6725147 -1.833333,0 -2.583333,-0.3026316 -1.666667,-0.6725147 z M 62.97612,0.38063162 c 2.003533,-0.3042322 5.603533,-0.3103552 8,-0.0136067 2.396466,0.29674859 0.757212,0.54566586 -3.642788,0.55314952 -4.4,0.007484 -6.360746,-0.23531064 -4.357212,-0.53954282 z"
       id="path278"
       inkscape:connector-curvature="0" />
    <path
       style="fill:#d3d3d3;stroke-width:1.33333337"
       d="m 65.015544,129.72366 c 1.65855,-0.31893 4.05855,-0.30682 5.333333,0.0269 1.274784,0.33373 -0.08221,0.59466 -3.015545,0.57987 -2.933334,-0.0148 -3.976338,-0.28785 -2.317788,-0.60677 z M 116,107.4966 c 0,-0.27688 1.05,-1.32688 2.33333,-2.33334 2.11474,-1.65849 2.1619,-1.61133 0.50341,0.50341 -1.74183,2.221 -2.83674,2.9273 -2.83674,1.82993 z m 16.30933,-42.163265 c 0,-2.566667 0.2744,-3.616667 0.60977,-2.333333 0.33537,1.283333 0.33537,3.383333 0,4.666666 -0.33537,1.283334 -0.60977,0.233334 -0.60977,-2.333333 z m -14.976,-40.666668 c -0.91292,-1.1 -1.35985,-2 -0.99318,-2 0.36666,0 1.4136,0.9 2.32651,2 0.91292,1.1 1.35986,2 0.99319,2 -0.36667,0 -1.4136,-0.9 -2.32652,-2 z M 65.666665,0.41423266 c 1.283333,-0.33537007 3.383333,-0.33537007 4.666667,0 1.283333,0.33537007 0.233333,0.60976374 -2.333334,0.60976374 -2.566666,0 -3.616666,-0.27439367 -2.333333,-0.60976374 z"
       id="path276"
       inkscape:connector-curvature="0" />
  </g>
</svg>
