<?xml version="1.0" encoding="UTF-8" standalone="no"?>
<!-- Created with Inkscape (http://www.inkscape.org/) -->

<svg
   xmlns:dc="http://purl.org/dc/elements/1.1/"
   xmlns:cc="http://creativecommons.org/ns#"
   xmlns:rdf="http://www.w3.org/1999/02/22-rdf-syntax-ns#"
   xmlns:svg="http://www.w3.org/2000/svg"
   xmlns="http://www.w3.org/2000/svg"
   xmlns:sodipodi="http://sodipodi.sourceforge.net/DTD/sodipodi-0.dtd"
   xmlns:inkscape="http://www.inkscape.org/namespaces/inkscape"
   version="1.1"
   id="svg84"
   width="133.33333"
   height="130.66667"
   viewBox="0 0 133.33333 130.66667"
   sodipodi:docname="note.svg"
   inkscape:version="0.92.1 r15371">
  <metadata
     id="metadata90">
    <rdf:RDF>
      <cc:Work
         rdf:about="">
        <dc:format>image/svg+xml</dc:format>
        <dc:type
           rdf:resource="http://purl.org/dc/dcmitype/StillImage" />
        <dc:title></dc:title>
      </cc:Work>
    </rdf:RDF>
  </metadata>
  <defs
     id="defs88" />
  <sodipodi:namedview
     pagecolor="#ffffff"
     bordercolor="#666666"
     borderopacity="1"
     objecttolerance="10"
     gridtolerance="10"
     guidetolerance="10"
     inkscape:pageopacity="0"
     inkscape:pageshadow="2"
     inkscape:window-width="1920"
     inkscape:window-height="1017"
     id="namedview86"
     showgrid="false"
     inkscape:zoom="1.8061224"
     inkscape:cx="66.666664"
     inkscape:cy="65.333336"
     inkscape:window-x="-8"
     inkscape:window-y="-8"
     inkscape:window-maximized="1"
     inkscape:current-layer="svg84" />
  <g
     id="g94"
     transform="translate(0.76835387,-0.03745825)">
    <path
       style="fill:#f1f1f1;stroke-width:1.33333337"
       d="M 7.910001,124.52205 C -0.52737833,105.03368 0,109.64994 0,55.283975 V 5.3333335 H 11.333333 22.666666 V 55.094167 104.855 l -5.320684,12.44874 c -2.926376,6.84681 -5.611297,12.73936 -5.966491,13.09455 -0.355194,0.35519 -1.9164643,-2.28911 -3.46949,-5.87624 z m 6.348529,-13.85538 c 1.493999,-3.95806 1.462111,-4 -3.041016,-4 -5.1365739,0 -5.1157374,-0.0319 -3.0034942,4.60393 2.0525802,4.50492 4.1970072,4.29067 6.0445102,-0.60393 z M 9.3333331,56.666668 C 9.3333331,17.851852 9.0713099,12 7.3333331,12 5.5953564,12 5.3333332,17.851852 5.3333332,56.666668 c 0,38.814816 0.2620232,44.666672 1.9999999,44.666672 1.7379768,0 2,-5.851856 2,-44.666672 z m 7.9999999,0 C 17.333333,17.851852 17.07131,12 15.333333,12 c -1.737977,0 -2,5.851852 -2,44.666668 0,38.814816 0.262023,44.666672 2,44.666672 1.737977,0 2,-5.851856 2,-44.666672 z m 18.666666,23.754299 c 0,-47.989249 -0.123203,-50.500205 -2.743429,-55.91287 C 29.647854,17.053483 30.82045,10.26326 36.740528,4.3333334 L 41.066666,0 81.533331,0.04724723 C 125.29795,0.098345 125.97667,0.20008761 130.7382,7.4232343 c 2.43726,3.6972647 2.57804,6.7587047 2.58634,56.2434337 L 133.33333,116 H 128 122.66666 v 7.33334 7.33333 H 79.333331 35.999999 Z M 106.66666,79.333335 V 33.333334 H 73.999998 41.333332 V 79.333335 125.33334 H 73.999998 106.66666 Z M 47.999999,90.000002 v -3.413005 l 16.999999,0.373169 c 15.986721,0.350927 17,0.532115 17,3.039836 0,2.507722 -1.013279,2.68891 -17,3.039836 l -16.999999,0.37317 z m 0,-10 c 0,-2.577777 0.888889,-2.666667 26.666666,-2.666667 25.777775,0 26.666665,0.08889 26.666665,2.666667 0,2.577777 -0.88889,2.666667 -26.666665,2.666667 -25.777777,0 -26.666666,-0.08889 -26.666666,-2.666667 z m 0,-10 v -3.413006 l 16.999999,0.37317 c 15.986721,0.350926 17,0.532114 17,3.039836 0,2.507721 -1.013279,2.688909 -17,3.039836 l -16.999999,0.373169 z m 0,-10 c 0,-2.577778 0.888889,-2.666667 26.666666,-2.666667 25.777775,0 26.666665,0.08889 26.666665,2.666667 0,2.577777 -0.88889,2.666666 -26.666665,2.666666 -25.777777,0 -26.666666,-0.08889 -26.666666,-2.666666 z m 0,-10.000001 v -3.413005 l 16.999999,0.373169 c 15.986721,0.350927 17,0.532115 17,3.039836 0,2.507722 -1.013279,2.68891 -17,3.039836 l -16.999999,0.37317 z m 69.333331,29.333334 c 0,-45.111111 -0.0515,-46.000001 -2.66667,-46.000001 -2.61513,0 -2.66666,0.88889 -2.66666,46.000001 0,45.111115 0.0515,46.000005 2.66666,46.000005 2.61514,0 2.66667,-0.88889 2.66667,-46.000005 z M 128,61.515154 V 12.363637 l -3.51516,-3.515152 c -4.4245,-4.4245028 -9.80809,-4.5428066 -14.71352,-0.3233285 -2.91581,2.5080755 -3.71072,4.3418215 -3.71072,8.5601675 0,7.502242 3.38056,10.914677 10.81271,10.914677 h 5.79335 v 41.333334 c 0,40.444445 0.0574,41.333335 2.66667,41.333335 2.61844,0 2.66667,-0.88889 2.66667,-49.151516 z M 112.26666,22.400001 c -3.97252,-3.972521 -0.44621,-13.0666674 5.06667,-13.0666674 5.51289,0 9.03919,9.0941464 5.06667,13.0666674 -2.06256,2.062557 -8.07078,2.062557 -10.13334,0 z M 119.7594,17 c -0.23434,-1.65 -1.32607,-3 -2.42607,-3 -1.1,0 -2.19173,1.35 -2.42607,3 -0.32792,2.308927 0.23095,3.000001 2.42607,3.000001 2.19512,0 2.75399,-0.691074 2.42607,-3.000001 z m -17.09274,10.532298 c 0,-0.257236 -0.65869,-2.357236 -1.46376,-4.666667 -1.20102,-3.445237 -2.178313,-4.198964 -5.444446,-4.198964 -5.016818,0 -4.403224,-3.055527 0.803257,-4 2.570585,-0.466313 4.221189,-1.968965 5.492299,-5.0000001 l 1.81726,-4.3333334 H 74.115445 c -28.084237,0 -29.953179,0.1552412 -33.268967,2.7634402 -5.017023,3.9463913 -4.556398,6.5698933 1.153521,6.5698933 3.259259,0 4.666666,0.603175 4.666666,2 0,1.396825 -1.407407,2 -4.666666,2 -5.395267,0 -6.017068,2.047684 -1.94806,6.415252 2.640817,2.834584 3.575536,2.918082 32.666666,2.918082 16.471433,0 29.948055,-0.210467 29.948055,-0.467703 z"
       id="path108"
       inkscape:connector-curvature="0" />
    <path
       style="fill:#e7e7e7;stroke-width:1.33333337"
       d="M 9.4819611,127.85159 C 8.7893382,126.09988 6.3725512,120.23415 4.1113234,114.81662 L 0,104.96657 V 55.816617 6.6666668 H 11.333333 22.666666 V 55.340337 104.01401 l -5.38123,12.92978 c -2.959678,7.11138 -5.642891,13.19145 -5.962696,13.51125 -0.319806,0.31981 -1.148156,-0.85175 -1.8407789,-2.60345 z m 4.9849119,-17.18492 c 1.37372,-3.94065 1.3262,-4 -3.202899,-4 -5.1864251,0 -5.1634479,-0.0347 -3.0499542,4.60393 2.0642052,4.53043 4.5465852,4.29067 6.2528532,-0.60393 z M 9.3333331,56.666668 C 9.3333331,17.851852 9.0713099,12 7.3333331,12 5.5953564,12 5.3333332,17.851852 5.3333332,56.666668 c 0,38.814816 0.2620232,44.666672 1.9999999,44.666672 1.7379768,0 2,-5.851856 2,-44.666672 z m 7.9999999,0 C 17.333333,17.851852 17.07131,12 15.333333,12 c -1.737977,0 -2,5.851852 -2,44.666668 0,38.814816 0.262023,44.666672 2,44.666672 1.737977,0 2,-5.851856 2,-44.666672 z m 18.666666,23.286423 c 0,-43.721694 -0.287056,-51.151681 -2.082072,-53.891222 C 31.175901,21.877006 31.152706,13.506059 33.868586,8.2541261 37.986251,0.29143785 39.731114,0 83.286698,0 h 39.419122 l 4.98042,4.563088 4.98042,4.5630878 L 133.04384,62.56309 133.42102,116 h -5.37718 -5.37718 v 7.33334 7.33333 H 79.333331 35.999999 Z M 106.66666,79.333335 V 33.333334 H 73.999998 41.333332 V 79.333335 125.33334 H 73.999998 106.66666 Z M 47.999999,90.666669 c 0,-2.524444 0.888889,-2.666667 16.666666,-2.666667 15.777777,0 16.666666,0.142223 16.666666,2.666667 0,2.524444 -0.888889,2.666667 -16.666666,2.666667 -15.777777,0 -16.666666,-0.142223 -16.666666,-2.666667 z m 0,-10.666667 c 0,-2.577777 0.888889,-2.666667 26.666666,-2.666667 25.777775,0 26.666665,0.08889 26.666665,2.666667 0,2.577777 -0.88889,2.666667 -26.666665,2.666667 -25.777777,0 -26.666666,-0.08889 -26.666666,-2.666667 z m 0.627205,-8.063849 c -0.474928,-0.768451 -0.529169,-2.268451 -0.120533,-3.333334 0.59256,-1.544193 3.990504,-1.936151 16.784814,-1.936151 h 16.041846 v 3.333334 3.333333 h -15.92131 c -9.661009,0 -16.260844,-0.549376 -16.784817,-1.397182 z M 47.999999,60.000002 c 0,-2.577778 0.888889,-2.666667 26.666666,-2.666667 25.777775,0 26.666665,0.08889 26.666665,2.666667 0,2.577777 -0.88889,2.666666 -26.666665,2.666666 -25.777777,0 -26.666666,-0.08889 -26.666666,-2.666666 z m 0,-10.666667 c 0,-2.524444 0.888889,-2.666667 16.666666,-2.666667 15.777777,0 16.666666,0.142223 16.666666,2.666667 0,2.524444 -0.888889,2.666666 -16.666666,2.666666 -15.777777,0 -16.666666,-0.142222 -16.666666,-2.666666 z m 69.333331,30 c 0,-45.111111 -0.0515,-46.000001 -2.66667,-46.000001 -2.61513,0 -2.66666,0.88889 -2.66666,46.000001 0,45.111115 0.0515,46.000005 2.66666,46.000005 2.61514,0 2.66667,-0.88889 2.66667,-46.000005 z M 128,61.272728 V 11.878788 L 124.72727,8.6060609 C 119.90862,3.787413 113.24613,4.1341072 108.78519,9.435634 c -4.16993,4.955684 -4.415,10.313644 -0.68842,15.051221 2.24197,2.850198 3.87741,3.513146 8.66667,3.513146 h 5.90322 v 41.333334 c 0,40.444445 0.0574,41.333335 2.66667,41.333335 2.61868,0 2.66667,-0.88889 2.66667,-49.393942 z M 112.26666,22.400001 C 109.44112,19.574459 110.36811,13.590428 114,11.210724 c 3.08783,-2.0232227 3.57884,-2.0232227 6.66666,0 3.63189,2.379704 4.55888,8.363735 1.73334,11.189277 -2.06256,2.062557 -8.07078,2.062557 -10.13334,0 z m 8.1781,-4.302517 c 0.87106,-2.269956 -2.40558,-5.357771 -4.38636,-4.133581 -0.76545,0.473079 -1.39174,2.024732 -1.39174,3.44812 0,3.05561 4.6566,3.608027 5.7781,0.685461 z m -18.88514,5.23585 c -1.52314,-3.360415 -2.97049,-4.666667 -5.170749,-4.666667 -4.251485,0 -3.899781,-3.719837 0.401335,-4.244771 2.442334,-0.298076 3.988694,-1.693665 5.268964,-4.7552291 l 1.8121,-4.3333334 H 73.688234 c -29.154552,0 -30.288184,0.098786 -33.268967,2.8990854 -4.487319,4.2156181 -3.942257,6.4342481 1.580732,6.4342481 3.259259,0 4.666666,0.603175 4.666666,2 0,1.396825 -1.407407,2 -4.666666,2 -5.180864,0 -5.868571,1.690692 -2.591061,6.369992 2.04398,2.91819 2.5494,2.963342 33.170744,2.963342 h 31.095138 z"
       id="path106"
       inkscape:connector-curvature="0" />
    <path
       style="fill:#dadada;stroke-width:1.33333337"
       d="M 5.4996127,117.71995 -0.00533452,104.66667 -0.00266725,55.666668 0,6.6666668 H 11.333333 22.666666 V 55.123003 103.57934 l -5.491893,13.21033 c -3.020541,7.26568 -5.644515,13.38431 -5.831053,13.59694 -0.186538,0.21264 -2.8163863,-5.48736 -5.8441073,-12.66666 z m 8.9530333,-6.44935 c 2.115322,-4.64263 2.141538,-4.60393 -3.119313,-4.60393 -5.2319025,0 -5.1499745,-0.11147 -3.3663343,4.57987 1.6598063,4.36562 4.5026953,4.37617 6.4856473,0.0241 z M 9.3333331,55.902236 c 0,-42.549868 -0.1479796,-45.402625 -2.3333333,-44.982113 -2.1588734,0.415416 -2.3595822,3.812233 -2.6844023,45.4311 -0.345812,44.308537 -0.3108721,44.982117 2.3333333,44.982117 2.6377922,0 2.6844023,-0.78884 2.6844023,-45.431104 z m 7.9999999,0.09776 c 0,-39.407409 -0.261437,-45.333334 -2,-45.333334 -1.738563,0 -2,5.925925 -2,45.333334 0,39.407409 0.261437,45.333344 2,45.333344 1.738563,0 2,-5.925935 2,-45.333344 z M 37.333332,80.69889 c 0,-47.589786 -0.126666,-50.175534 -2.661682,-54.333334 C 31.501558,21.166134 31.226447,13.363458 34.022568,7.9563562 37.952395,0.35691 40.104588,0 81.999998,0 c 42.168552,0 43.768162,0.27572885 48.720642,8.3980649 2.46294,4.0393601 2.60299,7.0433251 2.60771,55.9352701 L 133.33333,116 H 128 122.66666 v 7.33334 7.33333 H 79.999998 37.333332 Z M 106.66666,79.33333 V 33.333334 H 73.999998 41.333332 V 79.333335 125.33334 H 73.999998 106.66666 Z M 47.999999,90.000002 c 0,-1.67111 2.740741,-2 16.666666,-2 13.925925,0 16.666666,0.32889 16.666666,2 0,1.671111 -2.740741,2 -16.666666,2 -13.925925,0 -16.666666,-0.328889 -16.666666,-2 z m 0,-10 c 0,-2.577777 0.888889,-2.666667 26.666666,-2.666667 25.777775,0 26.666665,0.08889 26.666665,2.666667 0,2.577777 -0.88889,2.666667 -26.666665,2.666667 -25.777777,0 -26.666666,-0.08889 -26.666666,-2.666667 z m 0,-10 c 0,-1.671111 2.740741,-2 16.666666,-2 13.925925,0 16.666666,0.328889 16.666666,2 0,1.67111 -2.740741,2 -16.666666,2 -13.925925,0 -16.666666,-0.32889 -16.666666,-2 z m 0,-10 c 0,-2.577778 0.888889,-2.666667 26.666666,-2.666667 25.777775,0 26.666665,0.08889 26.666665,2.666667 0,2.577777 -0.88889,2.666666 -26.666665,2.666666 -25.777777,0 -26.666666,-0.08889 -26.666666,-2.666666 z m 0,-10.000001 c 0,-1.67111 2.740741,-2 16.666666,-2 13.925925,0 16.666666,0.32889 16.666666,2 0,1.671111 -2.740741,2 -16.666666,2 -13.925925,0 -16.666666,-0.328889 -16.666666,-2 z m 69.333331,29.333334 c 0,-45.111111 -0.0515,-46.000001 -2.66667,-46.000001 -2.61513,0 -2.66666,0.88889 -2.66666,46.000001 0,45.111115 0.0515,46.000005 2.66666,46.000005 2.61514,0 2.66667,-0.88889 2.66667,-46.000005 z m 12,-15.376159 c 0,-49.651828 -0.48997,-53.9848393 -6.46613,-57.1831873 -9.40622,-5.0340569 -19.65072,3.2769633 -17.00975,13.7994423 1.32547,5.28108 4.4757,7.42657 10.90445,7.42657 h 5.90476 V 69.333335 110.66667 H 126 129.33333 Z M 112.7619,21.904762 C 109.58752,18.73038 110.16737,13.72196 114,11.210724 c 3.08783,-2.0232227 3.57884,-2.0232227 6.66666,0 3.53088,2.313518 4.22823,5.959123 1.95309,10.210265 -1.67006,3.120541 -6.96141,3.380214 -9.85785,0.483773 z m 7.09784,-2.402431 c 0.83578,-1.007051 1.14505,-2.807051 0.68728,-4 -1.07629,-2.804769 -5.35108,-2.804769 -6.42737,0 -0.81589,2.126157 1.22599,5.831003 3.21368,5.831003 0.55375,0 1.69063,-0.823951 2.52641,-1.831003 z m -17.80057,4.164336 c -1.28027,-3.061564 -2.82663,-4.457153 -5.268964,-4.755229 -4.845587,-0.591383 -4.511974,-4.244771 0.387617,-4.244771 2.516949,0 4.076157,-0.805724 4.515397,-2.333333 0.36899,-1.283334 1.10317,-3.3833338 1.63149,-4.6666671 0.89812,-2.181594 -0.99253,-2.3333334 -29.073011,-2.3333334 -16.518479,0 -31.004864,0.3727088 -32.191964,0.8282417 -1.1871,0.4555331 -3.032949,2.5195061 -4.101889,4.5866068 l -1.943526,3.758365 4.889774,0.413393 c 7.001181,0.591898 7.491403,3.746727 0.582196,3.746727 -4.571675,0 -5.275331,0.358868 -4.575112,2.333334 2.471422,6.96888 2.631014,7 35.897772,7 h 31.06232 z"
       id="path104"
       inkscape:connector-curvature="0" />
    <path
       style="fill:#cbcbcb;stroke-width:1.33333337"
       d="m 37.333332,80.742882 c 0,-48.507505 -0.08038,-50.060021 -2.833381,-54.726011 C 30.214823,18.754119 31.545683,10.155732 37.849046,4.379132 L 42.627506,0 81.647085,0.00498408 c 36.784925,0.00469864 39.272345,0.15909083 43.433145,2.69586212 8.04914,4.9074224 8.2531,6.4542438 8.2531,62.5896638 V 116 H 128 122.66666 v 7.33334 7.33333 H 79.999998 37.333332 Z M 106.66666,78.666669 V 32.000001 H 73.999998 41.333332 V 78.666669 125.33334 H 73.999998 106.66666 Z M 47.999999,90.000002 c 0,-1.67111 2.740741,-2 16.666666,-2 13.925925,0 16.666666,0.32889 16.666666,2 0,1.671111 -2.740741,2 -16.666666,2 -13.925925,0 -16.666666,-0.328889 -16.666666,-2 z m 0.25288,-9.666667 c 0.406149,-2.113417 2.928697,-2.367406 26.764432,-2.694853 25.638129,-0.352207 26.316019,-0.292101 26.316019,2.333333 0,2.614748 -0.79558,2.694854 -26.764431,2.694854 -24.77187,0 -26.731048,-0.173712 -26.31602,-2.333334 z m -0.25288,-10.333333 c 0,-1.671111 2.740741,-2 16.666666,-2 13.925925,0 16.666666,0.328889 16.666666,2 0,1.67111 -2.740741,2 -16.666666,2 -13.925925,0 -16.666666,-0.32889 -16.666666,-2 z m 0,-10 c 0,-2.577778 0.888889,-2.666667 26.666666,-2.666667 25.777775,0 26.666665,0.08889 26.666665,2.666667 0,2.577777 -0.88889,2.666666 -26.666665,2.666666 -25.777777,0 -26.666666,-0.08889 -26.666666,-2.666666 z m 0,-10.000001 c 0,-1.67111 2.740741,-2 16.666666,-2 13.925925,0 16.666666,0.32889 16.666666,2 0,1.671111 -2.740741,2 -16.666666,2 -13.925925,0 -16.666666,-0.328889 -16.666666,-2 z M 118.35061,79.000002 118,32.666668 h -3.33334 -3.33333 l -0.35061,46.333334 -0.35061,46.333338 h 4.03455 4.03456 z M 128.66666,61.69602 V 12.058705 l -3.33333,-3.2597581 c -7.90739,-7.7328543 -20,-2.7887267 -20,8.1771051 0,8.045261 2.90258,11.023949 10.74227,11.023949 h 6.59106 v 42.092735 42.092734 l 3,-0.42607 3,-0.42606 z M 112.7619,21.904762 c -4.26752,-4.267522 -1.43203,-11.238095 4.57143,-11.238095 6.00346,0 8.83895,6.970573 4.57143,11.238095 -2.67604,2.676037 -6.46682,2.676037 -9.14286,0 z m 7.22401,-2.554448 c 2.21545,-2.669466 0.73971,-6.01698 -2.65258,-6.01698 -1.5127,0 -3.09865,0.907641 -3.52435,2.01698 -0.76616,1.996588 1.58208,5.98302 3.52435,5.98302 0.55375,0 1.74741,-0.892359 2.65258,-1.98302 z m -17.84444,3.98302 c -1.20528,-3.850787 -2.10293,-4.666667 -5.134392,-4.666667 -2.020562,0 -3.673747,-0.6 -3.673747,-1.333333 C 93.333331,16.6 94.825279,16 96.648771,16 c 2.536789,0 3.851129,-1.174278 5.596359,-5 1.2545,-2.7499998 2.51255,-5.4499999 2.79567,-5.9999999 C 105.88077,3.3682105 48.927884,3.8152564 44.158451,5.4778899 40.083236,6.8985171 35.213216,13.43544 36.942064,15.164288 37.401706,15.62393 39.477776,16 41.555555,16 c 2.077777,0 3.777777,0.6 3.777777,1.333334 0,0.733333 -2.1,1.333333 -4.666666,1.333333 -5.396354,0 -5.714968,0.974344 -1.903227,5.820188 l 2.76344,3.513146 H 72.564494 103.60211 Z M 10.228691,128.33334 c -0.3274439,-0.55 -2.7628541,-6.25703 -5.4120221,-12.68228 L 0,103.96878 V 55.317723 6.6666668 H 11.333333 22.666666 V 54.751025 102.83538 l -5.498458,13.24898 c -3.024152,7.28694 -5.688742,13.24898 -5.921311,13.24898 -0.232568,0 -0.690761,-0.45 -1.018206,-1 z m 4.223955,-17.06274 c 2.352088,-5.16227 1.944924,-5.93726 -3.119313,-5.93726 -4.9989016,0 -5.9048039,1.86183 -3.2864215,6.75432 1.9074209,3.56405 4.5639565,3.2252 6.4057345,-0.81706 z M 9.3333331,56.000001 c 0,-44.444445 -0.052288,-45.333334 -2.6666666,-45.333334 -2.614379,0 -2.6666666,0.888889 -2.6666666,45.333334 0,44.444449 0.052288,45.333339 2.6666666,45.333339 2.614379,0 2.6666666,-0.88889 2.6666666,-45.333339 z m 7.9999999,-0.09776 c 0,-42.549873 -0.14798,-45.40263 -2.333333,-44.982118 -2.158874,0.415416 -2.359583,3.812233 -2.684403,45.4311 -0.345812,44.308537 -0.310872,44.982117 2.333333,44.982117 2.637792,0 2.684403,-0.78884 2.684403,-45.431104 z"
       id="path102"
       inkscape:connector-curvature="0" />
    <path
       style="fill:#c1c1c1;stroke-width:1.33333337"
       d="m 37.333332,80.680566 c 0,-47.476201 -0.135796,-50.276928 -2.666666,-54.998985 C 31.173749,19.164552 31.293783,13.44231 35.040019,7.8832694 40.225035,0.18922426 41.110516,0.0409864 81.999998,0.02172773 123.8948,0.00199557 126.21655,0.44323678 130.88692,9.3125313 c 2.24943,4.2717847 2.44641,8.7539947 2.44641,55.6666677 V 116 h -5.26365 -5.26366 l -0.40301,7 -0.40301,7 -42.333335,0.35207 -42.333333,0.35206 z M 106.66666,79.333335 V 32.000001 H 73.999998 41.333332 V 79.333335 126.66667 H 73.999998 106.66666 Z M 47.999999,90.000002 c 0,-1.67111 2.740741,-2 16.666666,-2 13.925925,0 16.666666,0.32889 16.666666,2 0,1.671111 -2.740741,2 -16.666666,2 -13.925925,0 -16.666666,-0.328889 -16.666666,-2 z m 0.888889,-8.222223 c -2.622266,-2.622265 1.428163,-3.11111 25.777777,-3.11111 22.814814,0 26.666665,0.288889 26.666665,2 0,1.708812 -3.753086,2 -25.777776,2 -14.177778,0 -26.177778,-0.4 -26.666666,-0.88889 z M 47.999999,70.000002 c 0,-1.671111 2.740741,-2 16.666666,-2 13.925925,0 16.666666,0.328889 16.666666,2 0,1.67111 -2.740741,2 -16.666666,2 -13.925925,0 -16.666666,-0.32889 -16.666666,-2 z m 0.666666,-8.666667 c -2.106567,-3.408498 1.848418,-4 26.745356,-4 25.032419,0 25.921309,0.09145 25.921309,2.666667 0,2.575221 -0.88889,2.666666 -25.921309,2.666666 -15.842621,0 -26.241714,-0.518425 -26.745356,-1.333333 z M 47.999999,50.000001 c 0,-1.67111 2.740741,-2 16.666666,-2 13.925925,0 16.666666,0.32889 16.666666,2 0,1.671111 -2.740741,2 -16.666666,2 -13.925925,0 -16.666666,-0.328889 -16.666666,-2 z m 70.350391,29.000001 0.35039,-47.000001 h -4.01706 -4.01706 v 46.444445 c 0,25.544444 0.42531,46.869754 0.94514,47.389574 0.51982,0.51983 2.16982,0.76983 3.66666,0.55556 2.67334,-0.38268 2.72774,-1.22191 3.07193,-47.389578 z m 10.98294,-16.312298 v -49.3123 L 125.5002,9.085388 c -7.64059,-8.55131043 -20.16687,-3.5663445 -20.16687,8.025622 0,7.911257 2.93761,10.888991 10.74227,10.888991 h 6.59106 V 70.000002 112 H 126 129.33333 Z M 112.63012,21.292958 c -1.94112,-2.144918 -2.18502,-3.460051 -1.17454,-6.333334 1.05487,-2.999502 2.07081,-3.62629 5.87775,-3.62629 3.80694,0 4.82288,0.626788 5.87775,3.62629 1.01048,2.873283 0.76658,4.188416 -1.17454,6.333334 -1.34742,1.488873 -3.46386,2.707043 -4.70321,2.707043 -1.23935,0 -3.35579,-1.21817 -4.70321,-2.707043 z m 8.03654,-3.941364 c 0,-2.169407 -0.85533,-3.479795 -2.47496,-3.791707 -3.41423,-0.657521 -5.3023,1.607597 -4.20963,5.050291 1.33642,4.210695 6.68459,3.203735 6.68459,-1.258584 z m -18.52519,5.98174 c -1.20528,-3.850787 -2.10293,-4.666667 -5.134392,-4.666667 -2.020562,0 -3.673747,-0.6 -3.673747,-1.333333 0,-0.733334 1.8,-1.333334 4,-1.333334 2.970229,0 3.999999,-0.620908 3.999999,-2.411826 0,-1.326506 0.88092,-3.576506 1.9576,-5.000001 1.07667,-1.4234951 1.97667,-3.0689966 2,-3.6566701 C 105.31425,4.3438293 91.180382,4.0438293 73.882331,4.2648362 L 42.431334,4.6666668 39.215666,8.4076851 C 34.607863,13.768276 35.034378,16 40.666666,16 c 2.566666,0 4.666666,0.6 4.666666,1.333334 0,0.733333 -2.1,1.333333 -4.666666,1.333333 -5.396354,0 -5.714968,0.974344 -1.903227,5.820188 l 2.76344,3.513146 H 72.564494 103.60211 Z M 9.4195811,126.22685 C 8.6926492,124.31488 6.2758622,118.46884 4.0489434,113.23566 L 0,103.72078 V 55.193723 6.6666668 H 10.666666 21.333333 V 56.075476 105.48428 l -4.790649,11.5912 c -2.634858,6.37515 -5.01807,11.8244 -5.296029,12.10944 -0.277959,0.28504 -1.100142,-1.04609 -1.8270739,-2.95807 z m 3.6433009,-11.90097 c 0.76417,-0.92077 1.802682,-3.32077 2.307803,-5.33334 0.889816,-3.5453 0.747892,-3.6592 -4.559475,-3.6592 -3.0128321,0 -5.4778768,0.22672 -5.4778768,0.50383 0,0.27711 0.908052,2.67711 2.0178933,5.33333 2.1431441,5.12927 3.4666545,5.86044 5.7116555,3.15538 z M 9.3333331,56.000001 c 0,-44.444445 -0.052288,-45.333334 -2.6666666,-45.333334 -2.614379,0 -2.6666666,0.888889 -2.6666666,45.333334 0,44.444449 0.052288,45.333339 2.6666666,45.333339 2.614379,0 2.6666666,-0.88889 2.6666666,-45.333339 z M 18.351069,56.333335 18,11.333334 15,10.907266 12,10.481198 v 45.426069 45.426073 h 3.351069 3.351069 z"
       id="path100"
       inkscape:connector-curvature="0" />
    <path
       style="fill:#bbbbbb;stroke-width:1.33333337"
       d="M 5.5277543,116.4533 -0.00533452,103.33334 -0.00266725,55.000001 0,6.6666668 H 10.666666 21.333333 L 21.284743,56.333335 21.236154,106 16.148498,117.78664 11.060843,129.57327 Z M 15.051216,111 17.054309,106 11.72171,105.58322 C 8.788781,105.354 6.1164129,105.43915 5.7831144,105.77244 4.5586618,106.9969 9.2589804,116 11.122692,116 c 1.058987,0 2.826822,-2.25 3.928524,-5 z M 10.351069,56.333335 9.9999997,11.333334 6.9999998,10.907266 3.9999999,10.481198 v 45.426069 45.426073 h 3.351069 3.3510691 z m 8.315597,-0.333334 V 10.666667 H 15.333333 12 v 45.333334 45.333339 h 3.333333 3.333333 z M 37.333332,79.99517 c 0,-46.790805 -0.137681,-49.595052 -2.666666,-54.313589 C 31.303675,19.406968 31.28633,13.853471 34.612687,8.3980649 39.692968,0.066124 41.26493,-0.19429147 83.744751,0.25871302 126.85052,0.7183926 127.23096,0.80264814 131.22027,10.772919 c 1.797,4.491136 2.11306,12.755723 2.11306,55.254064 V 116 H 128 122.66666 v 6.66667 6.66667 H 79.999998 37.333332 Z M 106.66666,79.333335 V 32.000001 H 73.999998 41.333332 V 79.333335 126.66667 H 73.999998 106.66666 Z M 49.333332,90.000002 c 0,-1.666666 2.666667,-2 16,-2 13.333333,0 15.999999,0.333334 15.999999,2 0,1.666667 -2.666666,2 -15.999999,2 -13.333333,0 -16,-0.333333 -16,-2 z m 0,-10 c 0,-0.843305 9.555556,-1.333333 25.999999,-1.333333 16.444444,0 25.999999,0.490028 25.999999,1.333333 0,0.843305 -9.555555,1.333333 -25.999999,1.333333 -16.444443,0 -25.999999,-0.490028 -25.999999,-1.333333 z m 0,-10 c 0,-1.666667 2.666667,-2 16,-2 13.333333,0 15.999999,0.333333 15.999999,2 0,1.666666 -2.666666,2 -15.999999,2 -13.333333,0 -16,-0.333334 -16,-2 z m 0,-10 c 0,-0.843306 9.555556,-1.333334 25.999999,-1.333334 16.444444,0 25.999999,0.490028 25.999999,1.333334 0,0.843305 -9.555555,1.333333 -25.999999,1.333333 -16.444443,0 -25.999999,-0.490028 -25.999999,-1.333333 z m 0,-10.000001 c 0,-1.666666 2.666667,-2 16,-2 13.333333,0 15.999999,0.333334 15.999999,2 0,1.666667 -2.666666,2 -15.999999,2 -13.333333,0 -16,-0.333333 -16,-2 z M 118.66666,79.333335 V 32.000001 h -4 -4 v 47.333334 47.333335 h 4 4 z m 10.66667,-16.066213 c 0,-53.4610223 -0.16634,-54.6889814 -7.83883,-57.86703 -6.619,-2.7416794 -12.62245,0.1921093 -15.76182,7.702543 -1.64631,3.938545 -1.58578,4.985128 0.53987,9.333334 2.1899,4.47962 2.96278,4.954232 9.06078,5.564032 L 122,28.666667 122.35233,70.333335 122.70465,112 h 3.31434 3.31434 z m -16.7465,-42.535171 c -2.53743,-3.872605 -1.53929,-8.249951 2.14804,-9.420264 6.67167,-2.1175064 11.14533,3.620173 7.34496,9.420264 -2.73632,4.17615 -6.75668,4.17615 -9.493,0 z m 8.07983,-3.398617 c 0,-2.443638 -0.80231,-3.447263 -3.00596,-3.760183 -1.80304,-0.256033 -3.32745,0.410932 -3.80932,1.666667 -1.32755,3.459561 0.53318,6.318913 3.80932,5.853699 2.20365,-0.31292 3.00596,-1.316546 3.00596,-3.760183 z m -17.34195,8.333333 c -0.52832,-1.283333 -1.2625,-3.383333 -1.63149,-4.666666 -0.43924,-1.52761 -1.998448,-2.333334 -4.515397,-2.333334 -2.114471,0 -3.844492,-0.6 -3.844492,-1.333333 C 93.333331,16.6 95.068286,16 97.188787,16 c 3.095223,0 4.035893,-0.723006 4.770543,-3.666666 0.5033,-2.016667 1.88949,-4.7477746 3.08042,-6.0691281 2.08102,-2.308913 0.90424,-2.3867898 -30.221488,-2.0000001 L 42.431442,4.6666668 39.21572,8.4076851 C 34.607858,13.768255 35.03436,16 40.666666,16 c 2.566666,0 4.666666,0.6 4.666666,1.333334 0,0.733333 -2.1,1.333333 -4.666666,1.333333 -2.566667,0 -4.666667,0.339445 -4.666667,0.754321 0,1.452869 3.079728,6.588261 4.532939,7.558595 0.806884,0.538771 15.481254,0.988771 32.609712,1 29.14115,0.01911 31.08092,-0.129546 30.18206,-2.312916 z"
       id="path98"
       inkscape:connector-curvature="0" />
    <path
       style="fill:#b2b2b2;stroke-width:1.33333337"
       d="M 5.5376273,116.02274 0,102.61553 V 54.641097 6.6666668 H 10.666666 21.333333 V 55.798416 104.93017 l -5.129039,12.24989 -5.129039,12.2499 z m 9.5487567,-4.73464 c 1.235821,-2.59155 2.246949,-4.99155 2.246949,-5.33333 0,-0.34179 -2.7,-0.62143 -6,-0.62143 -3.2999999,0 -5.9999998,0.31927 -5.9999998,0.70949 0,2.61305 4.1931002,9.95717 5.6850148,9.95717 1.001597,0 2.832213,-2.12035 4.068036,-4.7119 z M 10.350837,56.315437 10.701673,10.666667 H 7.3508366 3.9999999 v 45.111112 c 0,24.811112 0.4207417,45.531851 0.9349817,46.046091 0.5142399,0.51424 1.8642398,0.75619 2.9999999,0.53766 1.8082921,-0.34793 2.1086345,-6.072446 2.4158555,-46.046093 z m 8,0 0.350836,-45.64877 H 15.350837 12 v 45.111112 c 0,24.811112 0.420741,45.531851 0.934981,46.046091 0.51424,0.51424 1.86424,0.75619 3,0.53766 1.808292,-0.34793 2.108635,-6.072446 2.415856,-46.046093 z m 18.982495,23.299821 c 0,-47.085687 -0.14119,-49.995016 -2.666666,-54.948591 -3.165328,-6.208607 -3.292115,-8.588741 -0.778035,-14.605783 3.611585,-8.64374 4.363931,-8.7916446 44.929371,-8.8327256 20.08343,-0.020339 38.155868,-0.00499 40.160958,0.034098 2.02912,0.039561 5.43974,1.6969135 7.69179,3.7377439 4.58207,4.152304 7.68341,12.3333337 4.67545,12.3333337 -0.99055,0 -2.18267,-1.737784 -2.64917,-3.861744 -1.23203,-5.6094133 -5.34419,-8.744317 -11.4702,-8.744317 -7.30759,0 -12.49956,5.2334128 -12.49956,12.599326 0,6.782362 3.66099,10.621554 11.07706,11.616258 l 5.529,0.741594 V 70.842227 112 h 4 4 V 65.333335 c 0,-40.592593 0.26032,-46.666668 2,-46.666668 1.74068,0 2,6.213704 2,47.923337 v 47.923336 l -5.66667,0.41 -5.66666,0.41 -0.40302,7 -0.40301,7 H 79.263651 37.333332 Z m 70.350388,-0.615256 0.35039,-47.000001 H 74.683722 41.333332 V 79.356629 126.71326 L 74.333331,126.35663 107.33333,126 Z m -58.350388,11 c 0,-1.666666 2.666667,-2 16,-2 13.333333,0 15.999999,0.333334 15.999999,2 0,1.666667 -2.666666,2 -15.999999,2 -13.333333,0 -16,-0.333333 -16,-2 z m 0,-10 c 0,-0.843305 9.555556,-1.333333 25.999999,-1.333333 16.444444,0 25.999999,0.490028 25.999999,1.333333 0,0.843305 -9.555555,1.333333 -25.999999,1.333333 -16.444443,0 -25.999999,-0.490028 -25.999999,-1.333333 z m 0,-10 c 0,-1.666667 2.666667,-2 16,-2 13.333333,0 15.999999,0.333333 15.999999,2 0,1.666666 -2.666666,2 -15.999999,2 -13.333333,0 -16,-0.333334 -16,-2 z m 0,-10 c 0,-0.843306 9.555556,-1.333334 25.999999,-1.333334 16.444444,0 25.999999,0.490028 25.999999,1.333334 0,0.843305 -9.555555,1.333333 -25.999999,1.333333 -16.444443,0 -25.999999,-0.490028 -25.999999,-1.333333 z m 0,-10.000001 c 0,-1.666666 2.666667,-2 16,-2 13.333333,0 15.999999,0.333334 15.999999,2 0,1.666667 -2.666666,2 -15.999999,2 -13.333333,0 -16,-0.333333 -16,-2 z M 118.66666,79.333335 V 32.000001 h -4 -4 v 47.333334 47.333335 h 4 4 z M 103.38119,26.333334 c -0.5114,-1.65 -1.25132,-4.35 -1.64427,-6 -0.53685,-2.25419 -1.753102,-3.053048 -4.892358,-3.213383 l -4.177898,-0.213383 4,-0.564166 c 3.188447,-0.449704 4.568726,-1.759 6.803146,-6.4532843 l 2.80314,-5.8891176 H 75.03391 43.794871 l -3.897436,3.897436 c -5.459403,5.4594029 -5.116651,8.0479099 1.102564,8.3267019 l 5,0.224137 -5,0.523016 c -3.633493,0.380076 -5,1.148741 -5,2.812522 0,3.471801 3.657669,7.96325 7.011728,8.610081 1.643549,0.316959 16.10825,0.657997 32.143779,0.757864 l 29.155504,0.181576 z m 9.95214,-5 c -1.46667,-1.466667 -2.66667,-3.133163 -2.66667,-3.703326 0,-2.420561 4.34924,-6.963341 6.66667,-6.963341 2.31743,0 6.66667,4.54278 6.66667,6.963341 0,1.50089 -5.09588,6.369993 -6.66667,6.369993 -0.73333,0 -2.53333,-1.2 -4,-2.666667 z m 7.73101,-3.450007 c 0.55719,-3.899811 -3.05701,-6.769217 -5.73101,-4.549993 -2.09981,1.742692 -2.66171,5.560513 -1.05487,7.167355 1.88181,1.881805 6.39158,0.142353 6.78588,-2.617362 z"
       id="path96"
       inkscape:connector-curvature="0" />
  </g>
</svg>
