<?xml version="1.0" encoding="UTF-8" standalone="no"?>
<!-- Created with Inkscape (http://www.inkscape.org/) -->

<svg
   xmlns:dc="http://purl.org/dc/elements/1.1/"
   xmlns:cc="http://creativecommons.org/ns#"
   xmlns:rdf="http://www.w3.org/1999/02/22-rdf-syntax-ns#"
   xmlns:svg="http://www.w3.org/2000/svg"
   xmlns="http://www.w3.org/2000/svg"
   xmlns:sodipodi="http://sodipodi.sourceforge.net/DTD/sodipodi-0.dtd"
   xmlns:inkscape="http://www.inkscape.org/namespaces/inkscape"
   version="1.1"
   id="svg22"
   width="133.33333"
   height="165.33333"
   viewBox="0 0 133.33333 165.33333"
   sodipodi:docname="play.svg"
   inkscape:version="0.92.1 r15371">
  <metadata
     id="metadata28">
    <rdf:RDF>
      <cc:Work
         rdf:about="">
        <dc:format>image/svg+xml</dc:format>
        <dc:type
           rdf:resource="http://purl.org/dc/dcmitype/StillImage" />
        <dc:title></dc:title>
      </cc:Work>
    </rdf:RDF>
  </metadata>
  <defs
     id="defs26" />
  <sodipodi:namedview
     pagecolor="#ffffff"
     bordercolor="#666666"
     borderopacity="1"
     objecttolerance="10"
     gridtolerance="10"
     guidetolerance="10"
     inkscape:pageopacity="0"
     inkscape:pageshadow="2"
     inkscape:window-width="1920"
     inkscape:window-height="1017"
     id="namedview24"
     showgrid="false"
     inkscape:zoom="1.4274194"
     inkscape:cx="66.666664"
     inkscape:cy="82.666664"
     inkscape:window-x="-8"
     inkscape:window-y="-8"
     inkscape:window-maximized="1"
     inkscape:current-layer="svg22" />
  <g
     id="g32"
     transform="translate(0.70056393,0.70056474)">
    <path
       style="fill:#e1afc9;stroke-width:1.33333325"
       d="M 2.9633415,163.25773 0,161.18212 V 82.666665 4.1512104 L 2.9633415,2.0756053 C 4.5931795,0.93402237 7.5129623,0 9.4517482,0 11.795265,0 32.812465,12.728894 72.155072,37.975753 134.04085,77.68897 135.32876,78.712905 132.59072,86.024245 130.91635,90.495285 14.719322,165.33333 9.4517482,165.33333 c -1.9387859,0 -4.8585687,-0.93403 -6.4884067,-2.0756 z M 67.088124,108 C 88.114903,94.433331 105.31863,83.033332 105.31863,82.666665 c 0,-0.596491 -68.917356,-45.44673 -81.556489,-53.075572 l -5.095475,-3.075572 v 56.151144 56.151145 l 5.095475,-3.07557 C 26.564653,134.05068 46.061344,121.56666 67.088124,108 Z"
       id="path46"
       inkscape:connector-curvature="0" />
    <path
       style="fill:#d48cb2;stroke-width:1.33333325"
       d="M 2.6666666,162.66666 C 0.06130268,160.0613 0,158.22222 0,82.666665 0,7.1111109 0.06130268,5.2720306 2.6666666,2.6666666 4.1333332,1.2 6.9313098,0 8.8843924,0 11.258849,0 31.470505,12.210078 69.88439,36.850751 c 31.59692,20.267913 58.79894,38.072501 60.44894,39.565751 3.85188,3.485956 3.85188,9.01437 0,12.500326 -1.65,1.49325 -28.85202,19.297842 -60.44894,39.565752 -38.413885,24.64067 -58.625541,36.85075 -60.9999976,36.85075 -1.9530826,0 -4.7510592,-1.2 -6.2177258,-2.66667 z M 62.596416,111.19251 C 86.101719,96.081721 105.33333,83.245092 105.33333,82.666665 c 0,-0.941879 -84.622608,-55.999999 -86.070246,-55.999999 -0.32803,0 -0.596418,25.2 -0.596418,55.999999 0,30.799995 0.268388,55.999995 0.596418,55.999995 0.328029,0 19.828028,-12.36337 43.333332,-27.47415 z"
       id="path44"
       inkscape:connector-curvature="0" />
    <path
       style="fill:#c8699a;stroke-width:1.33333325"
       d="M 2.8990853,162.2474 0,159.16146 V 82.479816 5.7981707 L 3.0859349,2.8990853 C 4.7831991,1.3045884 7.5407229,0 9.2137655,0 13.565109,0 130.51677,75.545545 132.33157,79.5286 c 1.01751,2.233188 1.01751,4.042942 0,6.27613 -1.8842,4.135378 -118.777188,79.5286 -123.3046541,79.5286 -1.7758099,0 -4.5333337,-1.38867 -6.1278306,-3.08593 z M 63.879798,110.66666 C 87.365876,95.633331 106.58176,83.033332 106.58176,82.666665 c 0,-0.673651 -84.333925,-54.954582 -86.659507,-55.777776 -0.772403,-0.273411 -1.255587,21.191434 -1.255587,55.777776 0,34.586345 0.483184,56.051185 1.255587,55.777775 C 20.612825,138.2 40.39372,125.7 63.879798,110.66666 Z"
       id="path42"
       inkscape:connector-curvature="0" />
    <path
       style="fill:#bc4985;stroke-width:1.33333325"
       d="M 3.2727273,162.0606 0,158.78788 V 82.666665 6.5454544 L 3.2727273,3.2727273 C 9.176209,-2.6307546 2.946935,-5.8886465 77.230595,41.952474 110.5896,63.436771 131.51111,77.727876 132.37282,79.61914 c 0.96251,2.112468 0.96251,3.982582 0,6.09505 -0.86171,1.891264 -21.78322,16.18237 -55.142225,37.66667 C 2.946935,171.22197 9.176209,167.96409 3.2727273,162.0606 Z M 106.63354,82.666665 c 0,-0.366667 -19.792544,-13.379808 -43.983435,-28.91809 L 18.666666,25.49715 V 82.666665 139.83618 L 62.650105,111.58476 C 86.840996,96.046473 106.63354,83.033332 106.63354,82.666665 Z"
       id="path40"
       inkscape:connector-curvature="0" />
    <path
       style="fill:#b32f74;stroke-width:1.33333325"
       d="M 3.2727273,162.0606 0,158.78788 V 82.666665 6.5454544 L 3.2727273,3.2727273 C 5.0727272,1.4727273 7.6990382,0 9.1089742,0 12.887857,0 129.61362,75.351202 132,79.331129 c 1.77777,2.964921 1.77777,3.70618 0,6.671336 -2.37642,3.963628 -119.150062,79.330865 -122.9148705,79.330865 -1.3968213,0 -4.0124023,-1.47273 -5.8124022,-3.27273 z M 69.333332,107.43109 C 89.499998,94.462466 106,83.318476 106,82.666665 106,81.693736 80.365629,64.838243 25.666666,29.844691 l -7,-4.478236 v 57.30021 57.300215 l 7,-4.47824 c 3.85,-2.46303 23.499999,-15.08893 43.666666,-28.05755 z"
       id="path38"
       inkscape:connector-curvature="0" />
    <path
       style="fill:#aa1764;stroke-width:1.33333325"
       d="M 5.7538289,163.97826 C 4.1517682,163.33961 2.2017682,161.62268 1.4204957,160.16286 0.46350792,158.37472 0,132.94696 0,82.235365 0,11.06891 0.13415412,6.7964171 2.4588901,3.9254897 4.0034186,2.0180777 6.3680708,0.88888888 8.8178839,0.88888888 13.911453,0.88888888 131.37729,76.14142 132.40234,80.06121 c 0.37473,1.433 0.37473,3.77791 0,5.21091 -0.66861,2.556741 -115.296863,77.45281 -121.069007,79.10434 -1.4666666,0.41964 -3.9774435,0.24046 -5.5795041,-0.3982 z M 64.450494,110.82708 C 87.669387,95.881982 106.66666,83.209793 106.66666,82.666665 c 0,-0.729129 -73.295621,-48.67655 -86.216165,-56.399586 -1.47845,-0.883718 -1.783829,8.771488 -1.783829,56.399586 0,47.628095 0.305379,57.283305 1.783829,56.399585 0.981106,-0.58644 20.781105,-13.29406 43.999999,-28.23917 z"
       id="path36"
       inkscape:connector-curvature="0" />
    <path
       style="fill:#a60b5c;stroke-width:1.33333325"
       d="M 5.6472733,163.93885 C 3.9866071,163.27852 2.0222103,161.14521 1.2819472,159.19817 0.41785191,156.92544 0.06679922,128.76711 0.30134038,80.542638 0.63529188,11.878206 0.86160407,5.2322978 2.9365079,3.1580321 4.1849206,1.9100033 6.8849205,0.90533482 8.9365078,0.92543543 13.449198,0.9696489 127.17402,73.719556 131.23662,79.160965 c 2.60095,3.483697 2.60095,3.527703 0,7.0114 -2.5391,3.400845 -115.463786,76.955325 -120.207686,78.298325 -1.2992472,0.36781 -3.7209944,0.12853 -5.3816607,-0.53184 z M 65.15547,110.66666 c 23.490042,-15.033329 42.70917,-27.633328 42.70917,-27.999995 0,-0.540325 -80.700594,-52.671539 -87.308154,-56.399586 -1.618132,-0.912965 -1.88982,7.19527 -1.88982,56.399586 0,49.204315 0.271688,57.312545 1.88982,56.399585 1.0394,-0.58644 21.108944,-13.36625 44.598984,-28.39959 z"
       id="path34"
       inkscape:connector-curvature="0" />
  </g>
</svg>
