<?xml version="1.0" encoding="UTF-8" standalone="no"?>
<!-- Created with Inkscape (http://www.inkscape.org/) -->

<svg
   xmlns:dc="http://purl.org/dc/elements/1.1/"
   xmlns:cc="http://creativecommons.org/ns#"
   xmlns:rdf="http://www.w3.org/1999/02/22-rdf-syntax-ns#"
   xmlns:svg="http://www.w3.org/2000/svg"
   xmlns="http://www.w3.org/2000/svg"
   xmlns:sodipodi="http://sodipodi.sourceforge.net/DTD/sodipodi-0.dtd"
   xmlns:inkscape="http://www.inkscape.org/namespaces/inkscape"
   version="1.1"
   id="svg110"
   width="133.33333"
   height="133.33333"
   viewBox="0 0 133.33333 133.33333"
   sodipodi:docname="sud.svg"
   inkscape:version="0.92.1 r15371">
  <metadata
     id="metadata116">
    <rdf:RDF>
      <cc:Work
         rdf:about="">
        <dc:format>image/svg+xml</dc:format>
        <dc:type
           rdf:resource="http://purl.org/dc/dcmitype/StillImage" />
        <dc:title></dc:title>
      </cc:Work>
    </rdf:RDF>
  </metadata>
  <defs
     id="defs114" />
  <sodipodi:namedview
     pagecolor="#ffffff"
     bordercolor="#666666"
     borderopacity="1"
     objecttolerance="10"
     gridtolerance="10"
     guidetolerance="10"
     inkscape:pageopacity="0"
     inkscape:pageshadow="2"
     inkscape:window-width="1920"
     inkscape:window-height="1017"
     id="namedview112"
     showgrid="false"
     inkscape:zoom="1.7700001"
     inkscape:cx="66.666664"
     inkscape:cy="66.666664"
     inkscape:window-x="-8"
     inkscape:window-y="-8"
     inkscape:window-maximized="1"
     inkscape:current-layer="svg110" />
  <g
     id="g120"
     transform="translate(-0.56497289,1.1299434)">
    <path
       style="fill:#f1f1f1;stroke-width:1.33333325"
       d="m 0,124 v -9.33334 h 4.6666665 c 4.1046739,0 4.6666666,-0.40658 4.6666666,-3.37615 0,-4.36466 2.9783709,-11.452495 5.7934609,-13.787106 1.869315,-1.55026 2.206539,-4.812541 2.206539,-21.345937 0,-17.765719 -0.228405,-19.658652 -2.546761,-21.106488 C 13.385853,54.176215 11.83818,51.631887 11.347298,49.396916 10.535063,45.698834 9.9780332,45.333332 5.1543379,45.333332 H -0.14610984 L 0.26027841,39.207403 0.66666665,33.081474 33.672324,16.207404 66.677981,-0.66666665 99.672323,16.186468 l 32.994337,16.853133 0.40639,6.146866 0.40639,6.146865 h -5.30045 c -4.82369,0 -5.38072,0.365502 -6.19296,4.063584 -0.49088,2.234971 -2.03855,4.779299 -3.43927,5.654063 C 116.2284,56.498815 116,58.391748 116,76.157467 c 0,16.533396 0.33722,19.795677 2.20654,21.345937 2.81509,2.334611 5.79346,9.422446 5.79346,13.787106 0,2.96957 0.56199,3.37615 4.66666,3.37615 h 4.66667 V 124 133.33333 H 66.666665 0 Z m 120.77046,2.77585 c -11.02185,-1.08297 -11.67109,-4.10919 -0.88157,-4.10919 4.51851,0 8.11111,-0.59056 8.11111,-1.33333 C 128,120.46376 106.66666,120 66.666665,120 c -39.999999,0 -61.3333318,0.46376 -61.3333318,1.33333 0,0.74277 3.5925924,1.33333 8.1111108,1.33333 10.789515,0 10.140277,3.02622 -0.881577,4.10919 -4.34291,0.42672 20.003799,0.77586 54.103798,0.77586 34.099995,0 58.446705,-0.34914 54.103795,-0.77586 z m -2.1038,-13.44252 c 0,-0.8661 -18.22222,-1.33333 -51.999995,-1.33333 -33.777776,0 -51.999999,0.46723 -51.999999,1.33333 0,0.8661 18.222223,1.33333 51.999999,1.33333 33.777775,0 51.999995,-0.46723 51.999995,-1.33333 z m -79.999994,-8.4 c 0,-3.41981 -3.325075,-4.933333 -10.838095,-4.933333 C 20.504946,99.999997 16,102.06749 16,105.42857 c 0,0.68095 5.099999,1.23809 11.333333,1.23809 8.410255,0 11.333333,-0.44705 11.333333,-1.73333 z m 12.588569,-2.95208 c 1.076729,-2.576972 2.884781,-5.041166 4.017893,-5.475982 1.724387,-0.661709 2.060204,-3.880812 2.060204,-19.748837 0,-18.49819 -0.08089,-19.034256 -3.333333,-22.089766 -1.833334,-1.722326 -3.333334,-4.526916 -3.333334,-6.232418 0,-2.418753 -0.73329,-3.100915 -3.333333,-3.100915 -2.400118,0 -3.333333,0.717931 -3.333333,2.564367 0,1.410401 -1.5,4.347014 -3.333333,6.525808 -3.201638,3.804929 -3.333334,4.685294 -3.333334,22.282738 0,17.830034 0.08937,18.404131 3.333334,21.410526 1.833333,1.699076 3.333333,4.317879 3.333333,5.819559 0,4.74434 5.021414,3.39121 7.255236,-1.95508 z m 25.744763,1.68541 c -1.712495,-2.57915 -3.162073,-3 -10.333333,-3 -7.17126,0 -8.620838,0.42085 -10.333333,3 l -1.991925,3 h 12.325258 12.325258 z m 12.333333,0.26967 c 0,-1.50168 1.5,-4.120483 3.333333,-5.819559 3.243955,-3.006395 3.333334,-3.580492 3.333334,-21.410526 0,-17.597444 -0.131696,-18.477809 -3.333334,-22.282738 -1.833333,-2.178794 -3.333333,-5.115407 -3.333333,-6.525808 0,-1.846436 -0.933215,-2.564367 -3.333333,-2.564367 -2.600043,0 -3.333333,0.682162 -3.333333,3.100915 0,1.705502 -1.5,4.510092 -3.333334,6.232418 -3.252441,3.05551 -3.333333,3.591576 -3.333333,22.089766 0,15.868025 0.335817,19.087128 2.060204,19.748837 1.133112,0.434816 2.941164,2.89901 4.017893,5.475982 2.233822,5.34629 7.255236,6.69942 7.255236,1.95508 z m 27.999999,1.49224 c 0,-3.36108 -4.50495,-5.428573 -11.82857,-5.428573 -7.513021,0 -10.838096,1.513523 -10.838096,4.933333 0,1.28628 2.923078,1.73333 11.333336,1.73333 6.23333,0 11.33333,-0.55714 11.33333,-1.23809 z M 25.333333,75.999998 c 0,-11.555556 -0.507936,-18.666666 -1.333334,-18.666666 -0.825397,0 -1.333333,7.11111 -1.333333,18.666666 0,11.555556 0.507936,18.666666 1.333333,18.666666 0.825398,0 1.333334,-7.11111 1.333334,-18.666666 z m 6.666666,0 c 0,-11.555556 -0.507936,-18.666666 -1.333333,-18.666666 -0.825397,0 -1.333333,7.11111 -1.333333,18.666666 0,11.555556 0.507936,18.666666 1.333333,18.666666 0.825397,0 1.333333,-7.11111 1.333333,-18.666666 z m 31.656675,-9.666666 c -0.253082,-5.316667 -0.46015,-0.966667 -0.46015,9.666666 0,10.633333 0.207068,14.983333 0.46015,9.666667 0.253082,-5.316667 0.253082,-14.016667 0,-19.333333 z m 7.009991,9.666666 c 0,-11.555556 -0.507936,-18.666666 -1.333333,-18.666666 -0.825398,0 -1.333334,7.11111 -1.333334,18.666666 0,11.555556 0.507936,18.666666 1.333334,18.666666 0.825397,0 1.333333,-7.11111 1.333333,-18.666666 z m 33.333335,0 c 0,-11.555556 -0.50794,-18.666666 -1.33334,-18.666666 -0.82539,0 -1.33333,7.11111 -1.33333,18.666666 0,11.555556 0.50794,18.666666 1.33333,18.666666 0.8254,0 1.33334,-7.11111 1.33334,-18.666666 z m 6.66666,0 c 0,-11.555556 -0.50793,-18.666666 -1.33333,-18.666666 -0.8254,0 -1.33333,7.11111 -1.33333,18.666666 0,11.555556 0.50793,18.666666 1.33333,18.666666 0.8254,0 1.33333,-7.11111 1.33333,-18.666666 z M 37.066666,50.399999 c 3.109045,-3.109046 1.48144,-3.733334 -9.733333,-3.733334 -6.233334,0 -11.333333,0.48 -11.333333,1.066667 0,2.805061 3.882389,4.266667 11.333333,4.266667 4.548148,0 8.838615,-0.705283 9.733333,-1.6 z m 40.266665,-1.066667 c 1.3784,-2.575564 1.013987,-2.666667 -10.666666,-2.666667 -11.680653,0 -12.045066,0.09111 -10.666666,2.666667 1.216376,2.27282 2.791764,2.666667 10.666666,2.666667 7.874902,0 9.45029,-0.393847 10.666666,-2.666667 z m 38.399999,1.066667 c 3.10905,-3.109046 1.48144,-3.733334 -9.73333,-3.733334 -6.233336,0 -11.333336,0.48 -11.333336,1.066667 0,2.805061 3.88239,4.266667 11.333336,4.266667 4.54815,0 8.83861,-0.705283 9.73333,-1.6 z m 12.26604,-12.066667 c -3.5e-4,-0.916666 -13.7986,-8.762767 -30.662784,-17.435779 L 66.674429,5.1284409 36.01291,20.897553 C 19.149074,29.570565 5.3473279,37.416666 5.342362,38.333332 c -0.00709,1.30931 13.141711,1.666667 61.324303,1.666667 48.178115,0 61.333195,-0.357479 61.332705,-1.666667 z M 57.430105,31.153521 c -3.483252,-4.428238 -3.528154,-9.821722 -0.117861,-14.157207 7.824042,-9.946657 22.696085,-1.067746 18.47815,11.031831 -1.680701,4.821262 -4.675274,6.638521 -10.9393,6.638521 -3.443532,0 -5.377854,-0.915722 -7.420989,-3.513145 z m 13.184867,-4.390266 c 2.484409,-4.64216 -2.377962,-10.460475 -7.19656,-8.611406 -2.84006,1.089833 -4.111817,6.739414 -2.070711,9.198798 2.32338,2.7995 7.634836,2.462842 9.267271,-0.587392 z"
       id="path134"
       inkscape:connector-curvature="0" />
    <path
       style="fill:#ebebeb;stroke-width:1.33333325"
       d="m 0,124 v -9.33334 h 4.6666665 c 4.0249761,0 4.6666666,-0.43596 4.6666666,-3.1705 0,-4.67902 3.6505079,-12.588637 6.6844889,-14.48339 2.439147,-1.523272 2.648844,-3.140344 2.648844,-20.426387 0,-18.308248 -0.0815,-18.843022 -3.298008,-21.639738 -1.813905,-1.57717 -3.67895,-4.385372 -4.144544,-6.240448 C 10.497395,45.81072 9.6328282,45.333332 5.1157343,45.333332 H -0.14610984 L 0.26027841,39.239942 0.66666665,33.146551 33.738108,16.349273 66.809552,-0.44800408 99.738107,16.368412 l 32.928553,16.816415 0.40639,6.074253 0.40639,6.074252 h -5.26184 c -4.5171,0 -5.38167,0.477388 -6.10838,3.372865 -0.4656,1.855076 -2.33064,4.663278 -4.14455,6.240448 -3.2165,2.796716 -3.29801,3.33149 -3.29801,21.639738 0,17.286043 0.2097,18.903115 2.64885,20.426387 3.03398,1.894753 6.68449,9.80437 6.68449,14.48339 0,2.73454 0.64169,3.1705 4.66666,3.1705 h 4.66667 V 124 133.33333 H 66.666665 0 Z m 128,3.33333 c 0,-1.55556 -1.77778,-2 -8,-2 -4.44445,0 -8,-0.59259 -8,-1.33333 0,-0.74074 3.55555,-1.33334 8,-1.33334 4.44444,0 8,-0.59259 8,-1.33333 C 128,120.46376 106.66666,120 66.666665,120 c -39.999999,0 -61.3333318,0.46376 -61.3333318,1.33333 0,0.74074 3.5555555,1.33333 7.9999998,1.33333 4.444444,0 8,0.5926 8,1.33334 0,0.74074 -3.555556,1.33333 -8,1.33333 -6.2222221,0 -7.9999998,0.44444 -7.9999998,2 0,1.74879 7.7037038,2 61.3333318,2 53.629625,0 61.333335,-0.25121 61.333335,-2 z m -9.33334,-14 c 0,-0.8661 -18.22222,-1.33333 -51.999995,-1.33333 -33.777776,0 -51.999999,0.46723 -51.999999,1.33333 0,0.8661 18.222223,1.33333 51.999999,1.33333 33.777775,0 51.999995,-0.46723 51.999995,-1.33333 z m -79.999994,-8.4 c 0,-3.36927 -3.28274,-4.933333 -10.354321,-4.933333 C 20.449691,99.999997 16,101.70349 16,104.71358 c 0,1.56204 2.269133,1.95308 11.333333,1.95308 8.410255,0 11.333333,-0.44705 11.333333,-1.73333 z m 11.999999,-0.997 c 0,-1.50168 1.5,-4.120483 3.333334,-5.819559 3.248865,-3.010947 3.333333,-3.560933 3.333333,-21.703916 0,-18.131708 -0.08649,-18.695936 -3.333333,-21.74619 -1.833334,-1.722326 -3.333334,-4.526916 -3.333334,-6.232418 0,-2.418753 -0.73329,-3.100915 -3.333333,-3.100915 -2.469136,0 -3.333333,0.707071 -3.333333,2.727273 0,1.5 -1.5,4.227272 -3.333333,6.060606 -3.244326,3.244325 -3.333334,3.841757 -3.333334,22.373642 0,18.585705 0.07959,19.115074 3.333334,22.171811 1.833333,1.722326 3.333333,4.226916 3.333333,5.565756 0,1.70764 0.994976,2.43424 3.333333,2.43424 2.470353,0 3.333333,-0.70686 3.333333,-2.73033 z m 28,1.49224 c 0,-3.39087 -4.504399,-5.428573 -12,-5.428573 -7.495601,0 -12,2.037703 -12,5.428573 0,0.68095 5.4,1.23809 12,1.23809 6.6,0 12,-0.55714 12,-1.23809 z m 10.666666,-1.19615 c 0,-1.33884 1.5,-3.84343 3.333333,-5.565756 3.253747,-3.056737 3.333334,-3.586106 3.333334,-22.171811 0,-18.531885 -0.08901,-19.129317 -3.333334,-22.373642 -1.833333,-1.833334 -3.333333,-4.560606 -3.333333,-6.060606 0,-2.020202 -0.864197,-2.727273 -3.333333,-2.727273 -2.600043,0 -3.333333,0.682162 -3.333333,3.100915 0,1.705502 -1.5,4.510092 -3.333334,6.232418 -3.246846,3.050254 -3.333333,3.614482 -3.333333,21.74619 0,18.142983 0.08447,18.692969 3.333333,21.703916 1.833334,1.699076 3.333334,4.317879 3.333334,5.819559 0,2.02347 0.86298,2.73033 3.333333,2.73033 2.338357,0 3.333333,-0.7266 3.333333,-2.43424 z m 27.999999,0.48116 c 0,-3.01009 -4.44969,-4.713583 -12.31234,-4.713583 -7.071586,0 -10.354326,1.564063 -10.354326,4.933333 0,1.28628 2.923078,1.73333 11.333336,1.73333 9.0642,0 11.33333,-0.39104 11.33333,-1.95308 z M 25.333333,75.999998 c 0,-11.555556 -0.507936,-18.666666 -1.333334,-18.666666 -0.825397,0 -1.333333,7.11111 -1.333333,18.666666 0,11.555556 0.507936,18.666666 1.333333,18.666666 0.825398,0 1.333334,-7.11111 1.333334,-18.666666 z m 6.666666,0 c 0,-11.555556 -0.507936,-18.666666 -1.333333,-18.666666 -0.825397,0 -1.333333,7.11111 -1.333333,18.666666 0,11.555556 0.507936,18.666666 1.333333,18.666666 0.825397,0 1.333333,-7.11111 1.333333,-18.666666 z m 31.656675,-9.666666 c -0.253082,-5.316667 -0.46015,-0.966667 -0.46015,9.666666 0,10.633333 0.207068,14.983333 0.46015,9.666667 0.253082,-5.316667 0.253082,-14.016667 0,-19.333333 z m 7.009991,9.666666 c 0,-11.555556 -0.507936,-18.666666 -1.333333,-18.666666 -0.825398,0 -1.333334,7.11111 -1.333334,18.666666 0,11.555556 0.507936,18.666666 1.333334,18.666666 0.825397,0 1.333333,-7.11111 1.333333,-18.666666 z m 33.333335,0 c 0,-11.555556 -0.50794,-18.666666 -1.33334,-18.666666 -0.82539,0 -1.33333,7.11111 -1.33333,18.666666 0,11.555556 0.50794,18.666666 1.33333,18.666666 0.8254,0 1.33334,-7.11111 1.33334,-18.666666 z m 6.66666,0 c 0,-11.555556 -0.50793,-18.666666 -1.33333,-18.666666 -0.8254,0 -1.33333,7.11111 -1.33333,18.666666 0,11.555556 0.50793,18.666666 1.33333,18.666666 0.8254,0 1.33333,-7.11111 1.33333,-18.666666 z M 38.416958,48.999999 c 0.396021,-2.075403 -0.818374,-2.333334 -10.98586,-2.333334 -6.287104,0 -11.431098,0.48 -11.431098,1.066667 0,3.140548 3.831636,4.348845 12.637841,3.985315 7.646317,-0.31565 9.414378,-0.80718 9.779117,-2.718648 z m 38.916373,0.333333 c 1.3784,-2.575564 1.013987,-2.666667 -10.666666,-2.666667 -11.680653,0 -12.045066,0.09111 -10.666666,2.666667 1.216376,2.27282 2.791764,2.666667 10.666666,2.666667 7.874902,0 9.45029,-0.393847 10.666666,-2.666667 z m 38.399999,1.066667 c 3.10905,-3.109046 1.48144,-3.733334 -9.73333,-3.733334 -8.555558,0 -11.333336,0.43573 -11.333336,1.777778 0,0.977778 0.4,2.177778 0.88889,2.666666 1.567698,1.5677 18.495546,0.971124 20.177776,-0.71111 z M 129.0658,38.333332 C 128.79643,37.416666 114.64643,29.606245 97.621355,20.976839 L 66.666665,5.2870144 35.711975,20.976839 C 18.686896,29.606245 4.5368963,37.416666 4.2675316,38.333332 c -0.3869149,1.316699 12.7157104,1.666667 62.3991334,1.666667 49.683425,0 62.786045,-0.349968 62.399135,-1.666667 z M 57.939392,31.393939 c -7.728424,-7.728425 -1.305411,-18.983992 10.39394,-18.214145 7.364238,0.484586 10.463575,13.061141 4.580732,18.587787 -4.231422,3.975213 -10.78945,3.811579 -14.974672,-0.373642 z m 13.443228,-6.2159 c 0.616925,-1.94376 0.03893,-3.68241 -1.853178,-5.574522 -2.343202,-2.343201 -3.2509,-2.521384 -6.139588,-1.205209 -2.55366,1.163525 -3.389856,2.548874 -3.389856,5.616071 0,7.06482 9.210804,8.006452 11.382622,1.16366 z"
       id="path132"
       inkscape:connector-curvature="0" />
    <path
       style="fill:#e4e4e4;stroke-width:1.33333325"
       d="m 0,124 v -9.33334 h 4.6666665 c 4.0249761,0 4.6666666,-0.43596 4.6666666,-3.1705 0,-4.67902 3.6505079,-12.588637 6.6844889,-14.48339 2.439234,-1.523327 2.648844,-3.140362 2.648844,-20.434416 0,-18.132817 -0.111014,-18.884477 -3.220524,-21.80571 C 13.674854,53.108605 11.863424,50.304017 11.42074,48.540225 10.739283,45.825086 9.8019299,45.333332 5.3079305,45.333332 H 0 V 39.329935 33.326537 L 33.666666,16.64074 67.333332,-0.04505803 100.33333,16.673868 l 33,16.718924 v 5.97027 5.97027 h -5.30793 c -4.494,0 -5.43135,0.491754 -6.11281,3.206893 -0.44268,1.763792 -2.25411,4.56838 -4.0254,6.232419 -3.10951,2.921233 -3.22053,3.672893 -3.22053,21.80571 0,17.294054 0.20961,18.911089 2.64885,20.434416 3.03398,1.894753 6.68449,9.80437 6.68449,14.48339 0,2.73454 0.64169,3.1705 4.66666,3.1705 h 4.66667 V 124 133.33333 H 66.666665 0 Z m 128,3.33333 c 0,-1.55556 -1.77778,-2 -8,-2 -4.44445,0 -8,-0.59259 -8,-1.33333 0,-0.74074 3.55555,-1.33334 8,-1.33334 6.22222,0 8,-0.44444 8,-2 0,-1.74879 -7.70371,-2 -61.333335,-2 -53.629628,0 -61.3333318,0.25121 -61.3333318,2 0,1.55556 1.7777777,2 7.9999998,2 4.444444,0 8,0.5926 8,1.33334 0,0.74074 -3.555556,1.33333 -8,1.33333 -6.2222221,0 -7.9999998,0.44444 -7.9999998,2 0,1.74879 7.7037038,2 61.3333318,2 53.629625,0 61.333335,-0.25121 61.333335,-2 z m -9.33334,-14 c 0,-0.8661 -18.22222,-1.33333 -51.999995,-1.33333 -33.777776,0 -51.999999,0.46723 -51.999999,1.33333 0,0.8661 18.222223,1.33333 51.999999,1.33333 33.777775,0 51.999995,-0.46723 51.999995,-1.33333 z m -79.999994,-8.4 c 0,-3.47922 -3.34052,-4.933333 -11.333333,-4.933333 C 19.34052,99.999997 16,101.45411 16,104.93333 c 0,1.28628 2.923077,1.73333 11.333333,1.73333 8.410255,0 11.333333,-0.44705 11.333333,-1.73333 z m 11.999999,-0.997 c 0,-1.50168 1.5,-4.120483 3.333334,-5.819559 3.254904,-3.016543 3.333333,-3.536009 3.333333,-22.077774 0,-18.666358 -0.05656,-19.033033 -3.333333,-21.610545 -1.919983,-1.510259 -3.333334,-3.994319 -3.333334,-5.85856 0,-2.563441 -0.693244,-3.23656 -3.333333,-3.23656 -2.469136,0 -3.333333,0.707071 -3.333333,2.727273 0,1.5 -1.5,4.227272 -3.333333,6.060606 -3.239455,3.239454 -3.333334,3.861316 -3.333334,22.080252 0,18.05144 0.123667,18.893881 3.333334,22.70836 1.833333,2.178797 3.333333,4.815407 3.333333,5.859137 0,1.13533 1.339123,1.8977 3.333333,1.8977 2.470353,0 3.333333,-0.70686 3.333333,-2.73033 z m 28,1.49224 c 0,-3.39087 -4.504399,-5.428573 -12,-5.428573 -7.495601,0 -12,2.037703 -12,5.428573 0,0.68095 5.4,1.23809 12,1.23809 6.6,0 12,-0.55714 12,-1.23809 z m 10.666666,-0.65961 c 0,-1.04373 1.5,-3.68034 3.333333,-5.859137 3.209672,-3.814479 3.333334,-4.65692 3.333334,-22.70836 0,-18.218936 -0.09388,-18.840798 -3.333334,-22.080252 -1.833333,-1.833334 -3.333333,-4.560606 -3.333333,-6.060606 0,-2.020202 -0.864197,-2.727273 -3.333333,-2.727273 -2.640089,0 -3.333333,0.673119 -3.333333,3.23656 0,1.864241 -1.413351,4.348301 -3.333334,5.85856 -3.276776,2.577512 -3.333333,2.944187 -3.333333,21.610545 0,18.541765 0.07843,19.061231 3.333333,22.077774 1.833334,1.699076 3.333334,4.317879 3.333334,5.819559 0,2.02347 0.86298,2.73033 3.333333,2.73033 1.99421,0 3.333333,-0.76237 3.333333,-1.8977 z m 27.999999,0.16437 c 0,-3.47922 -3.34052,-4.933333 -11.33333,-4.933333 -7.992816,0 -11.333336,1.454113 -11.333336,4.933333 0,1.28628 2.923078,1.73333 11.333336,1.73333 8.41025,0 11.33333,-0.44705 11.33333,-1.73333 z M 25.333333,75.999998 c 0,-11.555556 -0.507936,-18.666666 -1.333334,-18.666666 -0.825397,0 -1.333333,7.11111 -1.333333,18.666666 0,11.555556 0.507936,18.666666 1.333333,18.666666 0.825398,0 1.333334,-7.11111 1.333334,-18.666666 z m 6.666666,0 c 0,-11.555556 -0.507936,-18.666666 -1.333333,-18.666666 -0.825397,0 -1.333333,7.11111 -1.333333,18.666666 0,11.555556 0.507936,18.666666 1.333333,18.666666 0.825397,0 1.333333,-7.11111 1.333333,-18.666666 z m 31.999999,0 c 0,-11.555556 -0.507936,-18.666666 -1.333333,-18.666666 -0.825397,0 -1.333333,7.11111 -1.333333,18.666666 0,11.555556 0.507936,18.666666 1.333333,18.666666 0.825397,0 1.333333,-7.11111 1.333333,-18.666666 z m 8,0 c 0,-15.703704 -0.31746,-18.666666 -2,-18.666666 -1.68254,0 -2,2.962962 -2,18.666666 0,15.703704 0.31746,18.666666 2,18.666666 1.68254,0 2,-2.962962 2,-18.666666 z m 32.000002,0 c 0,-11.555556 -0.50794,-18.666666 -1.33334,-18.666666 -0.82539,0 -1.33333,7.11111 -1.33333,18.666666 0,11.555556 0.50794,18.666666 1.33333,18.666666 0.8254,0 1.33334,-7.11111 1.33334,-18.666666 z m 6.66666,0 c 0,-11.555556 -0.50793,-18.666666 -1.33333,-18.666666 -0.8254,0 -1.33333,7.11111 -1.33333,18.666666 0,11.555556 0.50793,18.666666 1.33333,18.666666 0.8254,0 1.33333,-7.11111 1.33333,-18.666666 z M 35.246532,52.033 c 1.881074,-0.715183 3.420134,-2.215183 3.420134,-3.333333 0,-1.662328 -2.066384,-2.033002 -11.333333,-2.033002 -11.674671,0 -13.497313,0.999746 -8.369992,4.591062 3.349408,2.346016 11.172188,2.718473 16.283191,0.775273 z m 40.456791,-0.775273 c 5.180304,-3.628427 3.285535,-4.591062 -9.036658,-4.591062 -6.630211,0 -12,0.562811 -12,1.257728 0,2.630056 6.165091,5.408939 12,5.408939 3.340324,0 7.40682,-0.934023 9.036658,-2.075605 z m 38.666667,0 c 5.12732,-3.591316 3.30468,-4.591062 -8.36999,-4.591062 -9.291121,0 -11.333336,0.368134 -11.333336,2.042966 0,4.413244 14.384566,6.273501 19.703326,2.548096 z m 14.95939,-12.924395 c -0.002,-0.916666 -14.0785,-8.726838 -31.280709,-17.355938 L 66.771918,5.2881217 35.385959,20.964209 C 18.123681,29.586057 3.9999999,37.396228 3.9999999,38.320147 c 0,1.327087 13.1598901,1.679852 62.6666651,1.679852 49.246555,0 62.665815,-0.356917 62.662715,-1.666667 z M 58.773825,32.333333 c -1.570212,-1.283334 -3.208034,-4.539254 -3.639606,-7.235379 -0.653752,-4.084143 -0.212167,-5.474553 2.646613,-8.333333 7.139244,-7.1392435 18.219166,-2.625441 18.219166,7.422228 0,8.844306 -10.371252,13.749007 -17.226173,8.146484 z m 10.262832,-3.742272 c 3.679699,-2.577362 3.790341,-6.096004 0.291259,-9.262629 -2.207878,-1.998102 -3.250226,-2.154784 -6,-0.901903 -4.052912,1.84663 -4.679772,8.653581 -0.994584,10.800005 3.081737,1.794948 3.257154,1.778319 6.703325,-0.635473 z"
       id="path130"
       inkscape:connector-curvature="0" />
    <path
       style="fill:#d5d5d5;stroke-width:1.33333325"
       d="m 1.3333333,124 v -9.33334 h 3.9999999 c 3.5555555,0 3.9999999,-0.44444 3.9999999,-4 0,-2.2 0.6,-4 1.3333329,-4 C 11.4,106.66666 12,105.43801 12,103.93633 c 0,-1.50168 1.5,-4.120483 3.333333,-5.819559 3.248865,-3.010947 3.333333,-3.560933 3.333333,-21.703916 0,-18.131708 -0.08649,-18.695936 -3.333333,-21.74619 C 13.5,52.944339 12,50.139749 12,48.434247 12,45.647978 11.391188,45.333332 5.9999998,45.333332 H 0 V 39.556534 33.779736 L 33.322446,16.804618 66.64489,-0.17050053 99.989111,16.766958 133.33333,33.704415 v 5.814459 5.814458 h -6 c -5.39119,0 -6,0.314646 -6,3.100915 0,1.705502 -1.5,4.510092 -3.33333,6.232418 -3.24685,3.050254 -3.33334,3.614482 -3.33334,21.74619 0,18.142983 0.0845,18.692969 3.33334,21.703916 1.83333,1.699076 3.33333,4.317879 3.33333,5.819559 0,1.50168 0.6,2.73033 1.33333,2.73033 0.73334,0 1.33334,1.8 1.33334,4 0,3.55556 0.44444,4 4,4 h 4 V 124 133.33333 H 66.666665 1.3333333 Z M 128,127.33333 c 0,-1.55556 -1.77778,-2 -8,-2 -4.44445,0 -8,-0.59259 -8,-1.33333 0,-0.74074 3.55555,-1.33334 8,-1.33334 6.22222,0 8,-0.44444 8,-2 0,-1.74879 -7.70371,-2 -61.333335,-2 -53.629628,0 -61.3333318,0.25121 -61.3333318,2 0,1.55556 1.7777777,2 7.9999998,2 4.444444,0 8,0.5926 8,1.33334 0,0.74074 -3.555556,1.33333 -8,1.33333 -6.2222221,0 -7.9999998,0.44444 -7.9999998,2 0,1.74879 7.7037038,2 61.3333318,2 53.629625,0 61.333335,-0.25121 61.333335,-2 z m -9.33334,-14.66667 c 0,-1.74359 -6.66666,-2 -51.999995,-2 -45.333332,0 -51.999999,0.25641 -51.999999,2 0,1.74359 6.666667,2 51.999999,2 45.333335,0 51.999995,-0.25641 51.999995,-2 z M 39.055408,104.33333 C 37.713134,100.6953 35.928355,100.04234 27.266666,100.02041 19.333689,100.00034 16,101.45402 16,104.93333 c 0,1.29338 3.035224,1.73333 11.958153,1.73333 10.82779,0 11.876775,-0.22056 11.097255,-2.33333 z m 11.611257,-0.10091 c 0,-1.33884 1.5,-3.84343 3.333334,-5.565756 3.253746,-3.056737 3.333333,-3.586106 3.333333,-22.171811 0,-18.531885 -0.08901,-19.129317 -3.333333,-22.373642 -1.833334,-1.833334 -3.333334,-4.560606 -3.333334,-6.060606 0,-1.996329 -0.864982,-2.727273 -3.227393,-2.727273 -2.513092,0 -3.424926,0.89937 -4.119905,4.063584 -0.490883,2.234971 -2.038555,4.779299 -3.439273,5.654063 -2.314788,1.445609 -2.546762,3.33508 -2.546762,20.74394 0,18.485087 0.11632,19.2917 3.333334,23.114904 1.833333,2.178797 3.333333,4.815407 3.333333,5.859137 0,1.13533 1.339123,1.8977 3.333333,1.8977 2.338357,0 3.333333,-0.7266 3.333333,-2.43424 z m 28,1.67992 c 0,-0.41487 -0.621111,-1.91487 -1.380246,-3.33333 -1.160756,-2.16889 -2.849529,-2.579013 -10.619754,-2.579013 -7.770225,0 -9.458998,0.410123 -10.619754,2.579013 -0.759135,1.41846 -1.380246,2.91846 -1.380246,3.33333 0,0.41488 5.4,0.75432 12,0.75432 6.6,0 12,-0.33944 12,-0.75432 z m 10.666666,-1.14338 c 0,-1.04373 1.5,-3.68034 3.333333,-5.859137 3.217014,-3.823204 3.333334,-4.629817 3.333334,-23.114904 0,-17.40886 -0.231974,-19.298331 -2.546762,-20.74394 -1.400718,-0.874764 -2.94839,-3.419092 -3.439273,-5.654063 -0.694979,-3.164214 -1.606813,-4.063584 -4.119905,-4.063584 -2.362411,0 -3.227393,0.730944 -3.227393,2.727273 0,1.5 -1.5,4.227272 -3.333334,6.060606 -3.244325,3.244325 -3.333333,3.841757 -3.333333,22.373642 0,18.585705 0.07959,19.115074 3.333333,22.171811 1.833334,1.722326 3.333334,4.226916 3.333334,5.565756 0,1.70764 0.994976,2.43424 3.333333,2.43424 1.99421,0 3.333333,-0.76237 3.333333,-1.8977 z m 27.999999,0.16437 c 0,-3.47931 -3.33369,-4.93299 -11.26667,-4.91292 -8.661685,0.0219 -10.446464,0.67489 -11.788738,4.31292 -0.77952,2.11277 0.269465,2.33333 11.097258,2.33333 8.92293,0 11.95815,-0.43995 11.95815,-1.73333 z M 26.369942,76.223946 c 0.317547,-16.215149 0.0815,-18.890614 -1.666667,-18.890614 -1.733488,0 -2.036609,2.89404 -2.036609,19.444443 0,14.962043 0.384205,19.316775 1.666667,18.890616 1.204821,-0.40036 1.76918,-5.788561 2.036609,-19.444445 z m 5.630057,0.442719 c 0,-12 -0.505746,-19.333333 -1.333333,-19.333333 -0.827587,0 -1.333333,7.333333 -1.333333,19.333333 0,11.999999 0.505746,19.333333 1.333333,19.333333 0.827587,0 1.333333,-7.333334 1.333333,-19.333333 z m 33.333333,-0.745356 c 0,-15.633757 -0.317864,-18.587977 -2,-18.587977 -1.681392,0 -2,2.938272 -2,18.444443 0,10.144446 0.383688,18.828133 0.85264,19.297085 2.389002,2.389003 3.14736,-2.226052 3.14736,-19.153551 z m 6.369942,0.302637 c 0.317547,-16.215149 0.0815,-18.890614 -1.666666,-18.890614 -1.733488,0 -2.03661,2.89404 -2.03661,19.444443 0,14.962043 0.384206,19.316775 1.666667,18.890616 1.204821,-0.40036 1.76918,-5.788561 2.036609,-19.444445 z M 104,76.666665 c 0,-12 -0.50575,-19.333333 -1.33334,-19.333333 -0.82758,0 -1.33333,7.333333 -1.33333,19.333333 0,11.999999 0.50575,19.333333 1.33333,19.333333 0.82759,0 1.33334,-7.333334 1.33334,-19.333333 z m 6.66666,0 c 0,-16.296296 -0.31417,-19.333333 -2,-19.333333 -1.68139,0 -2,2.938272 -2,18.444443 0,10.144446 0.4,18.844445 0.88889,19.333333 2.55005,2.550052 3.11111,-0.776229 3.11111,-18.444443 z M 37.381966,50.618032 c 1.493413,-1.493413 2.358004,-3.293413 1.92131,-4 -0.436694,-0.706585 -5.858578,-1.2847 -12.048633,-1.2847 -11.873539,0 -13.813525,1.250643 -9.159405,5.904761 3.245687,3.245688 15.825412,2.841255 19.286728,-0.620061 z m 38.321357,0.639695 c 1.629838,-1.141583 2.963342,-2.941583 2.963342,-4 0,-1.534423 -2.431758,-1.924395 -12,-1.924395 -9.568242,0 -12,0.389972 -12,1.924395 0,3.238312 5.603972,6.075605 12,6.075605 3.340324,0 7.40682,-0.934023 9.036658,-2.075605 z M 115.23809,51.2381 c 4.65412,-4.654125 2.71414,-5.904768 -9.1594,-5.904768 -6.190058,0 -11.611942,0.578115 -12.048636,1.2847 -0.436694,0.706587 0.427897,2.506587 1.92131,4 3.461316,3.461316 16.041046,3.865749 19.286726,0.620061 z M 129.30458,38.999999 C 129.28373,37.30852 120.67125,32.265375 97.995634,20.666666 L 66.715445,4.6666665 35.387586,20.666666 C 12.671588,32.268351 4.0515183,37.308087 4.0298639,38.999999 c -0.028024,2.189549 3.8317751,2.333333 62.6368011,2.333333 58.804605,0 62.664895,-0.1438 62.637915,-2.333333 z M 59.884456,32.957595 c -5.893452,-4.524849 -6.321129,-13.766339 -0.815539,-17.622606 7.186039,-5.033297 16.931081,-0.153479 16.931081,8.478218 0,8.16285 -10.001974,13.838236 -16.115542,9.144388 z m 10.066921,-4.903869 c 3.219869,-3.557916 1.782683,-9.068356 -2.655667,-10.18231 -4.324917,-1.085486 -7.295712,1.449558 -7.295712,6.22559 0,6.104396 5.888803,8.445815 9.951379,3.95672 z"
       id="path128"
       inkscape:connector-curvature="0" />
    <path
       style="fill:#c7c7c7;stroke-width:1.33333325"
       d="m 1.3333333,124 v -9.33334 h 3.9999999 c 3.3519883,0 3.9999999,-0.52726 3.9999999,-3.25464 0,-1.79005 0.6,-3.62546 1.3333329,-4.07869 C 11.4,106.88011 12,105.31605 12,103.85764 c 0,-1.4584 1.5,-4.041793 3.333333,-5.740869 3.251671,-3.013545 3.333333,-3.549479 3.333333,-21.875728 0,-18.261155 -0.09321,-18.879712 -3.333333,-22.119832 C 13.5,52.287877 12,49.560605 12,48.060605 12,45.717171 11.155555,45.333332 5.9999998,45.333332 H 0 L 0.03329053,39.666666 0.06658107,33.999999 33.389155,16.980822 66.71173,-0.0383546 99.99032,16.980822 l 33.27859,17.019177 0.0322,5.666667 0.0322,5.666666 h -6 c -5.15556,0 -6,0.383839 -6,2.727273 0,1.5 -1.5,4.227272 -3.33333,6.060606 -3.24012,3.24012 -3.33334,3.858677 -3.33334,22.119832 0,18.326249 0.0817,18.862183 3.33334,21.875728 1.83333,1.699076 3.33333,4.282469 3.33333,5.740869 0,1.45841 0.6,3.02247 1.33333,3.47569 0.73334,0.45323 1.33334,2.28864 1.33334,4.07869 0,2.72738 0.64801,3.25464 4,3.25464 h 4 V 124 133.33333 H 66.666665 1.3333333 Z M 128,127.33333 c 0,-1.53535 -1.70371,-2 -7.33334,-2 -4.03333,0 -7.33333,-0.6 -7.33333,-1.33333 0,-0.73334 3.3,-1.33334 7.33333,-1.33334 5.62963,0 7.33334,-0.46464 7.33334,-2 0,-1.74879 -7.70371,-2 -61.333335,-2 -53.629628,0 -61.3333318,0.25121 -61.3333318,2 0,1.53536 1.7037037,2 7.3333328,2 4.033334,0 7.333333,0.6 7.333333,1.33334 0,0.73333 -3.299999,1.33333 -7.333333,1.33333 -5.6296291,0 -7.3333328,0.46465 -7.3333328,2 0,1.74879 7.7037038,2 61.3333318,2 53.629625,0 61.333335,-0.25121 61.333335,-2 z M 119.66666,113 c -0.43189,-1.29567 -12.22963,-1.66667 -52.999995,-1.66667 -40.77037,0 -52.568109,0.371 -52.999999,1.66667 -0.438297,1.31489 10.748148,1.66666 52.999999,1.66666 42.251855,0 53.438295,-0.35177 52.999995,-1.66666 z m -79.666661,-7.08766 c 0,-0.41487 -0.621111,-1.91487 -1.380245,-3.33333 -1.15579,-2.15961 -2.84704,-2.579013 -10.4,-2.579013 C 19.341056,99.999997 16,101.34884 16,104.93333 c 0,1.29383 3.042734,1.73333 11.999999,1.73333 6.6,0 12,-0.33944 12,-0.75432 z m 10.666666,-1.14338 c 0,-1.04373 1.5,-3.68034 3.333334,-5.859137 3.209672,-3.814479 3.333333,-4.65692 3.333333,-22.70836 0,-18.218936 -0.09388,-18.840798 -3.333333,-22.080252 -1.833334,-1.833334 -3.333334,-4.560606 -3.333334,-6.060606 0,-4.269581 -6.12793,-3.72195 -7.224113,0.645592 -0.465594,1.855076 -2.33064,4.663278 -4.144545,6.240448 -3.211167,2.792074 -3.298008,3.353002 -3.298008,21.302618 0,17.838135 0.10444,18.525848 3.225635,21.239691 1.7741,1.54256 3.58553,4.238586 4.025402,5.991186 0.574412,2.28864 1.731864,3.18652 4.107699,3.18652 1.97224,0 3.30793,-0.76626 3.30793,-1.8977 z m 28,0.16437 c 0,-3.55972 -3.341215,-4.933333 -12,-4.933333 -8.658785,0 -12,1.373613 -12,4.933333 0,1.29383 3.042735,1.73333 12,1.73333 8.957265,0 12,-0.4395 12,-1.73333 z m 11.764194,-2.16336 c 0.747117,-2.14318 2.605812,-4.564294 4.130433,-5.380246 2.608551,-1.396054 2.772039,-2.60683 2.772039,-20.529523 0,-18.599538 -0.0773,-19.11319 -3.298008,-21.913556 -1.813905,-1.57717 -3.678951,-4.385372 -4.144545,-6.240448 -1.096183,-4.367542 -7.224113,-4.915173 -7.224113,-0.645592 0,1.5 -1.5,4.227272 -3.333334,6.060606 -3.239454,3.239454 -3.333333,3.861316 -3.333333,22.080252 0,18.05144 0.123667,18.893881 3.333333,22.70836 1.833334,2.178797 3.333334,4.815407 3.333334,5.859137 0,1.11472 1.321504,1.8977 3.2029,1.8977 2.34115,0 3.568379,-1.04841 4.561294,-3.89669 z m 26.902471,2.16336 c 0,-3.58449 -3.34106,-4.933333 -12.21975,-4.933333 -7.552964,0 -9.244214,0.419403 -10.400004,2.579013 -0.759134,1.41846 -1.380245,2.91846 -1.380245,3.33333 0,0.41488 5.4,0.75432 11.999999,0.75432 8.95727,0 12,-0.4395 12,-1.73333 z M 26.666666,76.666665 c 0,-16.296296 -0.314176,-19.333333 -2,-19.333333 -1.685824,0 -2,3.037037 -2,19.333333 0,16.296295 0.314176,19.333333 2,19.333333 1.685824,0 2,-3.037038 2,-19.333333 z m 6.369943,-0.442719 c 0.317546,-16.215149 0.0815,-18.890614 -1.666667,-18.890614 -1.733488,0 -2.036609,2.89404 -2.036609,19.444443 0,14.962043 0.384205,19.316775 1.666666,18.890616 1.204822,-0.40036 1.76918,-5.788561 2.03661,-19.444445 z m 32.296723,0.442719 c 0,-16.296296 -0.314176,-19.333333 -2,-19.333333 -1.685824,0 -2,3.037037 -2,19.333333 0,16.296295 0.314176,19.333333 2,19.333333 1.685824,0 2,-3.037038 2,-19.333333 z m 6.666666,0 c 0,-16.296296 -0.314176,-19.333333 -2,-19.333333 -1.685824,0 -2,3.037037 -2,19.333333 0,16.296295 0.314176,19.333333 2,19.333333 1.685824,0 2,-3.037038 2,-19.333333 z m 32.000002,0 c 0,-16.296296 -0.31418,-19.333333 -2,-19.333333 -1.68139,0 -2.000003,2.938272 -2.000003,18.444443 0,10.144446 0.400003,18.844445 0.888893,19.333333 C 103.43894,97.66116 104,94.334879 104,76.666665 Z m 6.66666,0 c 0,-16.296296 -0.31417,-19.333333 -2,-19.333333 -1.68582,0 -2,3.037037 -2,19.333333 0,16.296295 0.31418,19.333333 2,19.333333 1.68583,0 2,-3.037038 2,-19.333333 z M 37.561678,51.126681 C 42.662943,46.5101 40.720738,45.333332 27.999999,45.333332 16.990801,45.333332 16,45.54804 16,47.933745 c 0,3.700282 3.578265,5.312392 11.895011,5.359042 4.900646,0.02749 8.013544,-0.67005 9.666667,-2.166106 z m 39.009748,0.111414 c 4.723884,-4.723884 2.743055,-5.904763 -9.904761,-5.904763 -9.51111,0 -12,0.395062 -12,1.904761 0,4.046835 4.032795,6.095239 12,6.095239 5.321789,0 8.476965,-0.667441 9.904761,-2.095237 z m 38.182894,0.714993 c 1.41846,-0.759136 2.57901,-2.559136 2.57901,-4.000001 0,-2.410061 -0.96052,-2.619755 -12,-2.619755 -12.605832,0 -14.072706,0.833043 -9.793348,5.561679 2.507688,2.770965 14.753738,3.445318 19.214338,1.058077 z M 129.33333,38.81111 c 0,-1.953979 -7.05923,-6.084377 -31.333332,-18.333333 L 66.666665,4.6666665 35.333332,20.477777 C 11.059228,32.726733 3.9999999,36.857131 3.9999999,38.81111 c 0,2.438298 2.0851706,2.522222 62.6666651,2.522222 60.581495,0 62.666665,-0.08392 62.666665,-2.522222 z M 60.212516,32.532114 c -4.269249,-2.990299 -5.741717,-7.572321 -4.020304,-12.510372 3.736272,-10.7178784 19.807786,-7.490026 19.807786,3.978257 0,4.963595 -5.155605,10.666667 -9.642718,10.666667 -1.703496,0 -4.468639,-0.960548 -6.144764,-2.134552 z m 9.692244,-3.960687 c 2.486729,-2.486729 2.738904,-7.394429 0.495238,-9.638094 -2.687593,-2.687593 -7.51558,-1.838511 -9.855942,1.733333 -2.023223,3.087828 -2.023223,3.578839 0,6.666667 2.490065,3.80032 6.295193,4.303605 9.360704,1.238094 z"
       id="path126"
       inkscape:connector-curvature="0" />
    <path
       style="fill:#bcbcbc;stroke-width:1.33333325"
       d="m 1.3333333,124 v -9.33334 h 4.4948923 c 4.3669774,0 4.5192434,-0.18356 5.3505744,-6.45044 0.58288,-4.39397 1.912892,-7.44364 4.171774,-9.565753 3.23232,-3.036607 3.316092,-3.596308 3.316092,-22.155614 0,-18.531885 -0.08901,-19.129317 -3.333333,-22.373642 C 13.5,52.287877 12,49.560605 12,48.060605 12,45.717171 11.155555,45.333332 5.9999998,45.333332 H 0 V 39.654419 33.975507 L 33.383248,17.299422 66.766497,0.6233372 100.04579,17.311668 l 33.27928,16.688331 0.004,5.666667 0.004,5.666666 h -6 c -5.15556,0 -6,0.383839 -6,2.727273 0,1.5 -1.5,4.227272 -3.33333,6.060606 -3.24433,3.244325 -3.33334,3.841757 -3.33334,22.373642 0,18.559306 0.0838,19.119007 3.3161,22.155614 2.25888,2.122113 3.58889,5.171783 4.17177,9.565753 0.83133,6.26688 0.9836,6.45044 5.35057,6.45044 H 132 V 124 133.33333 H 66.666665 1.3333333 Z M 128,127.33333 c 0,-1.53535 -1.70371,-2 -7.33334,-2 -4.03333,0 -7.33333,-0.6 -7.33333,-1.33333 0,-0.73334 3.3,-1.33334 7.33333,-1.33334 5.62963,0 7.33334,-0.46464 7.33334,-2 0,-1.74879 -7.70371,-2 -61.333335,-2 -53.629628,0 -61.3333318,0.25121 -61.3333318,2 0,1.53536 1.7037037,2 7.3333328,2 4.033334,0 7.333333,0.6 7.333333,1.33334 0,0.73333 -3.299999,1.33333 -7.333333,1.33333 -5.6296291,0 -7.3333328,0.46465 -7.3333328,2 0,1.74879 7.7037038,2 61.3333318,2 53.629625,0 61.333335,-0.25121 61.333335,-2 z m -8,-14.66667 c 0,-1.74444 -6.81482,-2 -53.333335,-2 -46.518518,0 -53.333332,0.25556 -53.333332,2 0,1.74445 6.814814,2 53.333332,2 46.518515,0 53.333335,-0.25555 53.333335,-2 z m -80.000001,-7.07849 c 0,-0.59317 -0.764259,-2.12368 -1.698352,-3.40113 -1.385424,-1.89468 -3.383423,-2.248725 -10.843696,-1.92151 -7.759253,0.34034 -9.446283,0.85582 -11.130942,3.40113 l -1.985601,3 h 12.829295 c 7.056113,0 12.829296,-0.48532 12.829296,-1.07849 z m 10.666666,-0.98211 c 0,-1.13334 1.5,-3.56061 3.333334,-5.393941 3.258981,-3.258981 3.333333,-3.779028 3.333333,-23.314573 0,-16.348425 -0.356293,-20.117962 -1.959685,-20.733242 -1.077827,-0.413601 -2.69836,-2.794771 -3.601186,-5.291487 -1.334909,-3.691627 -2.338566,-4.539485 -5.373646,-4.539485 -3.017476,0 -3.732149,0.593799 -3.732149,3.100915 0,1.705502 -1.5,4.510092 -3.333334,6.232418 -3.253964,3.05694 -3.333333,3.585194 -3.333333,22.185506 0,17.336824 0.227685,19.175857 2.526421,20.406103 1.389532,0.743656 3.15832,3.164766 3.930642,5.380246 1.067721,3.06287 2.219616,4.02814 4.80691,4.02814 2.180207,0 3.402693,-0.74031 3.402693,-2.0606 z m 28,0.32727 c 0,-3.55972 -3.341215,-4.933333 -12,-4.933333 -8.658785,0 -12,1.373613 -12,4.933333 0,1.29383 3.042735,1.73333 12,1.73333 8.957265,0 12,-0.4395 12,-1.73333 z m 12.209603,-2.29481 c 0.772322,-2.21548 2.54111,-4.63659 3.930642,-5.380246 2.302217,-1.23211 2.526421,-3.076196 2.526421,-20.779961 0,-19.134962 -0.05025,-19.46739 -3.333333,-22.049861 -1.919983,-1.510259 -3.333334,-3.994319 -3.333334,-5.85856 0,-2.65567 -0.669837,-3.23656 -3.732149,-3.23656 -3.03508,0 -4.038737,0.847858 -5.373646,4.539485 -0.902826,2.496716 -2.523359,4.877886 -3.601186,5.291487 -1.603392,0.61528 -1.959685,4.384817 -1.959685,20.733242 0,19.535545 0.07435,20.055592 3.333333,23.314573 1.833334,1.833331 3.333334,4.260601 3.333334,5.393941 0,1.32029 1.222486,2.0606 3.402693,2.0606 2.587294,0 3.739189,-0.96527 4.80691,-4.02814 z m 26.130052,1.02814 c -1.68466,-2.54531 -3.37169,-3.06079 -11.13094,-3.40113 -7.460274,-0.327215 -9.458273,0.0268 -10.843697,1.92151 -0.934093,1.27745 -1.698352,2.80796 -1.698352,3.40113 0,0.59317 5.773183,1.07849 12.829299,1.07849 h 12.82929 z M 26.666666,76.666665 c 0,-16.296296 -0.314176,-19.333333 -2,-19.333333 -1.685824,0 -2,3.037037 -2,19.333333 0,16.296295 0.314176,19.333333 2,19.333333 1.685824,0 2,-3.037038 2,-19.333333 z m 6.666666,0 c 0,-18.444444 -0.122605,-19.333333 -2.666666,-19.333333 -2.538152,0 -2.666667,0.888889 -2.666667,18.444443 0,10.144446 0.4,18.844445 0.88889,19.333333 0.488888,0.48889 1.688888,0.88889 2.666666,0.88889 1.399744,0 1.777777,-4.111111 1.777777,-19.333333 z m 32,0 c 0,-16.296296 -0.314176,-19.333333 -2,-19.333333 -1.685824,0 -2,3.037037 -2,19.333333 0,16.296295 0.314176,19.333333 2,19.333333 1.685824,0 2,-3.037038 2,-19.333333 z m 6.666666,0 c 0,-16.296296 -0.314176,-19.333333 -2,-19.333333 -1.685824,0 -2,3.037037 -2,19.333333 0,16.296295 0.314176,19.333333 2,19.333333 1.685824,0 2,-3.037038 2,-19.333333 z m 32.000002,0 c 0,-16.296296 -0.31418,-19.333333 -2,-19.333333 -1.68583,0 -2.000003,3.037037 -2.000003,19.333333 0,16.296295 0.314173,19.333333 2.000003,19.333333 1.68582,0 2,-3.037038 2,-19.333333 z m 6.66666,0 c 0,-16.296296 -0.31417,-19.333333 -2,-19.333333 -1.68582,0 -2,3.037037 -2,19.333333 0,16.296295 0.31418,19.333333 2,19.333333 1.68583,0 2,-3.037038 2,-19.333333 z M 37.561678,51.126681 c 5.093748,-4.609777 3.156389,-5.793349 -9.482989,-5.793349 -6.556722,0 -12.2317,0.50222 -12.611063,1.116043 -0.379364,0.613824 0.219248,2.413824 1.330248,4 1.696234,2.421712 3.326739,2.883957 10.172743,2.883957 5.715112,0 8.881786,-0.659777 10.591061,-2.206651 z m 38.525975,0.826406 c 1.418457,-0.759135 2.579012,-2.559135 2.579012,-4 0,-2.410061 -0.960516,-2.619755 -12,-2.619755 -11.009198,0 -12,0.214708 -12,2.600413 0,1.430227 1.05,3.211982 2.333334,3.959455 3.058483,1.781404 15.796298,1.821368 19.087654,0.05988 z m 40.447807,-1.503712 c 1.111,-1.586176 1.70961,-3.386176 1.33024,-4 -1.11979,-1.811871 -24.532369,-1.386576 -24.532369,0.445636 0,4.21643 4.416541,6.438321 12.797709,6.438321 7.0835,0 8.69783,-0.447472 10.40442,-2.883957 z m 12.79787,-11.751833 c 0,-2.103631 -6.31553,-5.811481 -31.280831,-18.365009 L 66.771668,4.603314 35.385834,20.307141 c -44.8537563,22.44247 -46.960766,21.026191 31.280831,21.026191 61.533075,0 62.666665,-0.04768 62.666665,-2.63579 z M 59.513144,31.903226 c -4.962967,-3.903869 -4.962967,-11.902584 0,-15.806453 4.660341,-3.665825 9.214538,-3.490301 13.214128,0.509287 5.055105,5.055106 3.997947,12.927606 -2.163866,16.114003 -5.023136,2.597564 -6.884472,2.459975 -11.050262,-0.816837 z m 11.086605,-3.155931 c 2.110637,-2.543162 1.277825,-8.80447 -1.393381,-10.475819 -3.428756,-2.14534 -9.05424,-0.0085 -10.010759,3.802555 -1.601712,6.381731 7.315519,11.599751 11.40414,6.673264 z"
       id="path124"
       inkscape:connector-curvature="0" />
    <path
       style="fill:#b2b2b2;stroke-width:1.33333325"
       d="m 1.3333333,124 v -9.33334 h 4.5152748 c 4.3474079,0 4.5496589,-0.22929 5.4401349,-6.1674 0.57483,-3.83325 2.145998,-7.38855 4.151391,-9.393942 3.11829,-3.11829 3.226532,-3.879144 3.226532,-22.679699 0,-19.037359 -0.07125,-19.519196 -3.333333,-22.542394 C 13.458362,52.14556 12,49.307779 12,47.396997 12,44.253152 11.546865,43.999999 5.9195128,43.999999 H -0.16097402 L 0.25284631,39.10325 0.66666665,34.206502 33.6596,17.436584 66.652536,0.66666665 99.659599,17.403068 l 33.007061,16.7364 0.41382,4.930266 0.41382,4.930265 h -6.08048 c -5.62736,0 -6.08049,0.253153 -6.08049,3.396998 0,1.910782 -1.45836,4.748563 -3.33333,6.486228 -3.26209,3.023198 -3.33334,3.505035 -3.33334,22.542394 0,18.800555 0.10824,19.561409 3.22654,22.679699 2.00539,2.005392 3.57656,5.560692 4.15139,9.393942 0.89047,5.93811 1.09272,6.1674 5.44013,6.1674 H 132 V 124 133.33333 H 66.666665 1.3333333 Z m 127.9999967,3.33333 c 0,-1.55556 -1.77778,-2 -8,-2 -4.44444,0 -8,-0.59259 -8,-1.33333 0,-0.74074 3.55556,-1.33334 8,-1.33334 6.22222,0 8,-0.44444 8,-2 0,-1.74941 -7.85185,-2 -62.666665,-2 -54.814813,0 -62.6666651,0.25059 -62.6666651,2 0,1.55556 1.7777777,2 8.0000001,2 4.444444,0 7.999999,0.5926 7.999999,1.33334 0,0.74074 -3.555555,1.33333 -7.999999,1.33333 -6.2222224,0 -8.0000001,0.44444 -8.0000001,2 0,1.74941 7.8518521,2 62.6666651,2 54.814815,0 62.666665,-0.25059 62.666665,-2 z M 120,112.66666 c 0,-1.74444 -6.81482,-2 -53.333335,-2 -46.518518,0 -53.333332,0.25556 -53.333332,2 0,1.74445 6.814814,2 53.333332,2 46.518515,0 53.333335,-0.25555 53.333335,-2 z m -68.656745,-8.71184 c 0.488658,-2.22485 2.336332,-4.993856 4.105941,-6.153348 3.147523,-2.062337 3.217469,-2.514061 3.217469,-20.778801 V 58.352039 l -4,-4.555748 c -2.2,-2.505662 -4,-5.774724 -4,-7.264584 0,-2.168481 -0.73142,-2.624675 -3.666666,-2.286937 -2.871687,0.330424 -3.757525,1.210516 -4.085732,4.059226 -0.230487,2.000531 -1.880487,4.786883 -3.666667,6.191893 -3.173106,2.495966 -3.247601,2.995767 -3.247601,21.788889 0,18.854846 0.06576,19.291506 3.333333,22.132621 1.833334,1.594061 3.333334,4.002261 3.333334,5.351561 0,3.226 1.136137,4.23104 4.782947,4.23104 2.262416,0 3.224766,-0.99981 3.893642,-4.04518 z m 39.495152,-0.44447 c 0.558017,-2.10264 2.247656,-4.68666 3.754751,-5.742271 2.551174,-1.786912 2.740173,-3.257319 2.740173,-21.31846 0,-18.967792 -0.07222,-19.455972 -3.247601,-21.95373 -1.78618,-1.40501 -3.43618,-4.191362 -3.666667,-6.191893 -0.328207,-2.84871 -1.214045,-3.728802 -4.085732,-4.059226 -2.935246,-0.337738 -3.666666,0.118456 -3.666666,2.286937 0,1.48986 -1.8,4.758922 -4,7.264584 l -4,4.555748 v 18.670632 c 0,18.26474 0.06995,18.716464 3.217469,20.778801 1.769609,1.159492 3.624864,3.963018 4.122791,6.230058 0.7626,3.4721 1.450108,4.05725 4.361112,3.71185 2.518282,-0.29881 3.731034,-1.44717 4.47037,-4.23303 z m -50.838408,1.23192 c 0,-5.97546 -17.472394,-8.603211 -22.666666,-3.40894 -4.613669,4.61367 -3.264297,5.33333 10,5.33333 10.149194,0 12.666666,-0.38247 12.666666,-1.92439 z m 38.666666,0 c 0,-3.23831 -5.603972,-6.075606 -12,-6.075606 -6.396028,0 -12,2.837296 -12,6.075606 0,1.53442 2.431758,1.92439 12,1.92439 9.568242,0 12,-0.38997 12,-1.92439 z m 39.999995,0.59106 c 0,-0.73333 -1.2,-2.53333 -2.66666,-4 -5.19427,-5.194271 -22.666669,-2.56652 -22.666669,3.40894 0,1.54192 2.517472,1.92439 12.666669,1.92439 7.55555,0 12.66666,-0.53801 12.66666,-1.33333 z M 26.666666,76.666665 c 0,-16.296296 -0.314176,-19.333333 -2,-19.333333 -1.685824,0 -2,3.037037 -2,19.333333 0,16.296295 0.314176,19.333333 2,19.333333 1.685824,0 2,-3.037038 2,-19.333333 z m 6.666666,0 c 0,-18.444444 -0.122605,-19.333333 -2.666666,-19.333333 -2.544061,0 -2.666667,0.888889 -2.666667,19.333333 0,18.444443 0.1226,19.333333 2.666667,19.333333 2.544061,0 2.666666,-0.88889 2.666666,-19.333333 z m 32,0 c 0,-16.296296 -0.314176,-19.333333 -2,-19.333333 -1.685824,0 -2,3.037037 -2,19.333333 0,16.296295 0.314176,19.333333 2,19.333333 1.685824,0 2,-3.037038 2,-19.333333 z m 6.666666,0 c 0,-18.444444 -0.122605,-19.333333 -2.666666,-19.333333 -2.544062,0 -2.666667,0.888889 -2.666667,19.333333 0,18.444443 0.1226,19.333333 2.666667,19.333333 2.544061,0 2.666666,-0.88889 2.666666,-19.333333 z m 33.333332,0 c 0,-18.444444 -0.1226,-19.333333 -2.66667,-19.333333 -2.54406,0 -2.666663,0.888889 -2.666663,19.333333 0,18.444443 0.122603,19.333333 2.666663,19.333333 2.54407,0 2.66667,-0.88889 2.66667,-19.333333 z m 5.33333,0 c 0,-16.296296 -0.31417,-19.333333 -2,-19.333333 -1.68582,0 -2,3.037037 -2,19.333333 0,16.296295 0.31418,19.333333 2,19.333333 1.68583,0 2,-3.037038 2,-19.333333 z M 37.90476,51.238093 c 4.78143,-4.781427 2.7703,-5.904761 -10.571427,-5.904761 -6.966667,0 -12.666667,0.466496 -12.666667,1.036659 0,0.570161 0.934023,2.370161 2.075606,4 1.775601,2.535025 3.303575,2.963341 10.571427,2.963341 5.945699,0 9.124735,-0.628912 10.591061,-2.095239 z m 39.161905,0.495239 c 0.88,-0.88 1.6,-2.68 1.6,-4 0,-2.133333 -1.333334,-2.4 -12,-2.4 -10.666666,0 -12,0.266667 -12,2.4 0,1.32 0.72,3.12 1.6,4 2.107378,2.107377 18.692622,2.107377 20.8,0 z m 39.524395,-1.363341 c 1.14158,-1.629839 2.0756,-3.429839 2.0756,-4 0,-0.570163 -5.7,-1.036659 -12.66666,-1.036659 -10.088892,0 -12.666669,0.387636 -12.666669,1.904761 0,4.165528 4.016395,6.095239 12.686299,6.095239 7.26785,0 8.79583,-0.428316 10.57143,-2.963341 z m 12.74227,-11.617149 c 0,-2.019735 -6.8056,-6.093128 -31.318044,-18.744952 L 66.697242,3.8434304 35.34862,20.020185 C 10.888548,32.642258 3.9999999,36.761275 3.9999999,38.765136 c 0,2.498944 1.6898126,2.568196 62.6666651,2.568196 61.080185,0 62.666665,-0.06533 62.666665,-2.58049 z M 61.753828,33.311599 c -6.552059,-2.611932 -7.875825,-12.782224 -2.240684,-17.214826 4.007664,-3.152429 5.70831,-3.364752 10.277088,-1.283077 3.207941,1.461636 6.209766,6.218985 6.209766,9.841355 0,2.582354 -5.441108,8.32079 -8.666666,9.140255 -1.466667,0.372612 -3.977444,0.154944 -5.579504,-0.483707 z m 8.64617,-4.244933 c 2.062558,-2.062557 2.062558,-8.070776 0,-10.133333 -4.158408,-4.158408 -11.733333,-0.575097 -11.733333,5.55044 0,4.97189 8.157944,8.158282 11.733333,4.582893 z"
       id="path122"
       inkscape:connector-curvature="0" />
  </g>
</svg>
