<?xml version="1.0" encoding="UTF-8" standalone="no"?>
<!-- Created with Inkscape (http://www.inkscape.org/) -->

<svg
   xmlns:dc="http://purl.org/dc/elements/1.1/"
   xmlns:cc="http://creativecommons.org/ns#"
   xmlns:rdf="http://www.w3.org/1999/02/22-rdf-syntax-ns#"
   xmlns:svg="http://www.w3.org/2000/svg"
   xmlns="http://www.w3.org/2000/svg"
   xmlns:sodipodi="http://sodipodi.sourceforge.net/DTD/sodipodi-0.dtd"
   xmlns:inkscape="http://www.inkscape.org/namespaces/inkscape"
   version="1.1"
   id="svg43"
   width="133.33333"
   height="133.33333"
   viewBox="0 0 133.33333 133.33333"
   sodipodi:docname="target.svg"
   inkscape:version="0.92.1 r15371">
  <metadata
     id="metadata49">
    <rdf:RDF>
      <cc:Work
         rdf:about="">
        <dc:format>image/svg+xml</dc:format>
        <dc:type
           rdf:resource="http://purl.org/dc/dcmitype/StillImage" />
        <dc:title></dc:title>
      </cc:Work>
    </rdf:RDF>
  </metadata>
  <defs
     id="defs47" />
  <sodipodi:namedview
     pagecolor="#ffffff"
     bordercolor="#666666"
     borderopacity="1"
     objecttolerance="10"
     gridtolerance="10"
     guidetolerance="10"
     inkscape:pageopacity="0"
     inkscape:pageshadow="2"
     inkscape:window-width="1920"
     inkscape:window-height="1017"
     id="namedview45"
     showgrid="false"
     inkscape:zoom="1.7700001"
     inkscape:cx="66.666664"
     inkscape:cy="66.666664"
     inkscape:window-x="-8"
     inkscape:window-y="-8"
     inkscape:window-maximized="1"
     inkscape:current-layer="svg43" />
  <g
     id="g71"
     transform="translate(0.56497126,-0.56496884)">
    <path
       style="fill:#e2b1ca;stroke-width:1.33333325"
       d="M 42.396928,130.75893 C 31.660599,127.3261 24.350918,122.70517 16.461888,114.36369 4.1442026,101.33955 -0.60725209,87.945055 0.23765033,68.627062 0.71533354,57.705232 1.3333008,55.179521 5.6794752,46.385635 20.156609,17.093146 55.303907,3.4638862 83.828127,16.081505 c 7.010928,3.101267 6.838537,3.086516 6.838537,0.585161 0,-1.333333 1.333334,-2 4,-2 3.377778,0 4,-0.518518 4,-3.333333 0,-2.6666666 0.666667,-3.3333332 3.333336,-3.3333332 2.81481,0 3.33333,-0.6222223 3.33333,-3.9999999 V 0 h 8 8 v 5.3333332 5.3333328 h 6 6 v 8 8 h -4 c -3.55556,0 -4,0.444444 -4,4 0,3.377777 -0.51852,4 -3.33333,4 -2.81482,0 -3.33334,0.622222 -3.33334,4 0,2.666666 -0.66666,4 -2,4 -2.52695,0 -2.53876,-0.122587 0.79839,8.283973 3.44738,8.684236 4.71806,24.78397 2.6991,34.198072 -4.57761,21.344659 -20.847484,39.193789 -41.61876,45.658539 -10.422478,3.24384 -25.916833,3.22313 -36.148462,-0.0483 z m 28.421084,-4.11091 c 34.573868,-6.5084 54.658938,-45.89671 39.424658,-77.314688 -2.7937,-5.761508 -3.16654,-6.016376 -9.38,-6.411997 -3.558871,-0.226599 -6.255432,0.0734 -5.992364,0.666667 0.263066,0.593265 2.274405,4.378663 4.469638,8.411997 3.677606,6.756925 3.991416,8.381347 3.992356,20.666666 9.5e-4,12.259934 -0.31434,13.902616 -3.916404,20.404737 C 85.286939,118.57573 52.468487,124.41768 31.415109,105.17608 12.208836,87.622624 11.478331,59.557632 29.750026,41.205911 43.896079,26.997902 66.673469,24.237477 83.213157,34.726635 c 3.41703,2.167017 6.491946,3.940031 6.833145,3.940031 0.3412,0 0.620362,-2.897438 0.620362,-6.438751 0,-6.389208 -0.04873,-6.460854 -6.333333,-9.311686 C 74.386613,18.404182 66.01467,16.889446 55.770216,17.748305 30.917118,19.8319 10.688897,38.905726 6.3270884,64.369789 1.7218956,91.254718 19.689982,118.64483 46.666665,125.86246 c 8.888199,2.37805 14.689368,2.56674 24.151347,0.78556 z m 8.082006,-20.93254 C 96.954596,95.57382 103.6632,72.657597 93.85374,54.634387 l -3.678405,-6.758443 -3.763037,3.763036 -3.763037,3.763037 2.675369,5.24758 C 93.810843,77.294811 82.166985,98.160242 63.52949,99.705807 45.953059,101.16338 33.435283,89.783103 33.362615,72.280214 33.298262,56.779879 45.000072,45.142856 60.651057,45.142856 c 4.475049,0 9.026041,0.991871 12.363713,2.694625 l 5.281901,2.694624 3.581326,-3.738097 3.581324,-3.738097 -3.490268,-2.286912 C 66.845748,30.859829 46.822964,33.003121 33.913043,45.913043 13.767373,66.058712 21.541131,98.611195 48.9369,108.8252 c 8.191832,3.05417 21.437145,1.6795 29.963118,-3.10972 z M 66.589014,93.3556 c 12.7324,-3.651604 19.338112,-19.330301 13.130176,-31.164551 -1.202868,-2.293037 -1.633736,-2.150831 -5.842251,1.928223 -3.164287,3.066948 -4.543607,5.608052 -4.543607,8.370628 0,5.22531 -3.451018,8.843431 -8.434996,8.843431 -5.37962,0 -8.898337,-3.427106 -8.898337,-8.666666 0,-5.25458 3.941472,-9.112053 9.158897,-8.963711 2.698789,0.07673 5.137093,-1.23588 8.23711,-4.434286 l 4.403524,-4.543284 -4.856941,-2.029359 c -6.401648,-2.67478 -11.062736,-2.521517 -17.915044,0.589067 -13.245106,6.012577 -16.149523,24.054467 -5.574689,34.629302 5.894392,5.89439 13.093703,7.747753 21.136158,5.441206 z M 63.043138,74.999998 c 0.293619,-0.55 -0.58458,-2.063609 -1.951552,-3.363574 -2.109305,-2.005912 -2.599589,-2.066015 -3.239979,-0.397183 -0.415016,1.081516 -0.365998,2.595124 0.108933,3.363574 0.996835,1.612912 4.295949,1.870723 5.082601,0.397183 z M 112,32.666666 c 0,-4.296296 0.31746,-4.666667 4,-4.666667 3.55555,0 4,-0.444444 4,-4 0,-3.555556 0.44444,-4 4,-4 2.2,0 4,-0.599999 4,-1.333333 0,-0.733333 -2.7,-1.333333 -6,-1.333333 h -6 v -6 c 0,-5.1111109 -0.39506,-5.9999998 -2.66667,-5.9999998 -2.15873,0 -2.66667,0.8888889 -2.66667,4.6666665 0,4.0888893 -0.41269,4.6666663 -3.33333,4.6666663 C 104.66666,14.666666 104,15.333333 104,18 c 0,2.814814 -0.62223,3.333333 -4.000003,3.333333 -3.812699,0 -3.999999,0.263538 -3.999999,5.628149 v 5.628148 l 8.333332,-8.139641 C 111.95432,17.006138 116,15.142321 116,19.075237 c 0,0.835825 -3.73267,5.285825 -8.29482,9.888889 l -8.294813,8.369206 H 105.70518 112 Z"
       id="path85"
       inkscape:connector-curvature="0" />
    <path
       style="fill:#d690b4;stroke-width:1.33333325"
       d="M 46.264639,131.95618 C 30.245147,127.92217 13.311447,114.29591 6.3618948,99.847119 -8.5328907,68.879416 3.6848187,32.852642 34.19541,17.773489 c 15.96885,-7.8922335 35.354442,-7.745058 54.804588,0.416079 0.926029,0.388554 1.666666,-0.238819 1.666666,-1.411791 0,-1.456789 1.239767,-2.111111 4,-2.111111 3.377778,0 4,-0.518518 4,-3.333333 0,-2.6666666 0.666667,-3.3333332 3.333336,-3.3333332 2.81481,0 3.33333,-0.6222223 3.33333,-3.9999999 V 0 h 8 8 V 5.9999998 12 h 6 6 v 7.333333 c 0,7.259258 -0.0404,7.333333 -4,7.333333 -3.37778,0 -4,0.518519 -4,3.333333 0,2.666667 -0.66667,3.333333 -3.33333,3.333333 -2.83723,0 -3.33334,0.6139 -3.33334,4.124827 0,2.893815 -0.73704,4.317568 -2.46967,4.77066 -2.3481,0.614043 -2.31115,1.038285 0.75068,8.618625 11.75002,29.090115 -1.91413,62.911676 -30.996589,76.722866 -8.952079,4.25133 -11.553324,4.86013 -22.373775,5.23644 -6.734186,0.23421 -14.524886,-0.14855 -17.312667,-0.85057 z m 27.735359,-5.76866 c 21.222504,-5.66902 36.872552,-22.75179 40.955062,-44.704387 1.84129,-9.901028 0.33518,-21.106493 -4.27836,-31.830949 l -3.00509,-6.985518 h -7.13977 -7.139778 l 3.79124,5.978163 c 5.374188,8.474219 7.286428,16.464632 6.516268,27.228661 -0.825,11.530337 -4.847938,20.116005 -13.2877,28.35828 -9.054075,8.84222 -18.506893,12.1905 -32.428389,11.48646 -12.423446,-0.62828 -21.730917,-4.83046 -29.33047,-13.24225 -8.781165,-9.719704 -10.653129,-14.958346 -10.651985,-29.809315 9.16e-4,-11.902849 0.386387,-14.063968 3.592913,-20.143464 4.759743,-9.024354 15.34468,-18.393841 24.112408,-21.343618 4.014581,-1.350649 10.761256,-2.318276 15.941343,-2.286352 7.484439,0.04612 10.483936,0.809506 18,4.581057 4.960436,2.489142 9.468974,4.725711 10.018974,4.970155 0.55,0.244445 1,-2.523617 1,-6.151248 V 25.697502 L 82.333331,21.848751 C 74.870633,18.402102 72.606982,18.004914 60.666665,18.04704 43.289682,18.108346 35.099495,21.191839 23.505043,32.037881 10.194975,44.488796 4.2575782,59.781737 5.7628368,77.73645 7.2464142,95.43255 18.687914,112.70917 34.507654,121.141 c 12.82143,6.83375 26.336462,8.56077 39.492344,5.04652 z M 73.607027,108.5943 c 13.961704,-4.75723 25.056469,-20.411557 25.058585,-35.356783 0.0012,-8.239521 -2.72103,-17.481548 -6.648141,-22.570852 l -2.572133,-3.333333 -3.595291,3.569589 -3.595289,3.569591 2.87262,6.677585 c 5.128614,11.921785 2.665282,23.406305 -6.803713,31.720193 -8.861567,7.78056 -20.461653,9.0865 -31.242273,3.517253 C 34.730683,90.007196 29.591974,72.612565 36.331812,59.999998 43.32645,46.910612 59.457331,41.60547 72.728353,48.029861 l 6.210182,3.006298 3.07741,-3.851414 c 3.719914,-4.655517 2.959186,-5.863286 -6.165483,-9.788614 -14.649753,-6.302154 -31.921088,-2.632273 -42.912245,9.118164 -8.148024,8.710896 -10.785311,16.277999 -9.990355,28.66509 0.74398,11.592789 4.522523,19.210253 13.223209,26.657715 9.872364,8.45038 24.642453,11.11638 37.435956,6.7572 z M 70.719968,91.596346 c 6.436142,-3.403514 11.946697,-11.944029 11.946697,-18.51555 0,-4.427598 -3.318078,-13.080798 -5.015843,-13.080798 -2.875825,0 -8.31749,7.680575 -8.31749,11.739626 0,2.482597 -1.112752,5.373126 -2.666667,6.927041 -5.372396,5.372396 -14.666666,1.800046 -14.666666,-5.637284 0,-5.765703 3.358072,-9.029383 9.290527,-9.029383 3.683639,0 5.819424,-0.98344 8.727214,-4.018517 3.654918,-3.814914 3.732701,-4.135802 1.535169,-6.333333 -3.505587,-3.505587 -18.131678,-3.229921 -23.039418,0.434236 -6.314712,4.714613 -8.919728,9.360457 -9.455035,16.86232 -0.672721,9.427626 3.303264,16.553031 11.562884,20.72196 7.548159,3.80983 12.795877,3.79147 20.098628,-0.07032 z m -7.67683,-16.596348 c 0.293619,-0.55 -0.58458,-2.063609 -1.951552,-3.363574 -2.109305,-2.005912 -2.599589,-2.066015 -3.239979,-0.397183 -0.415016,1.081516 -0.365998,2.595124 0.108933,3.363574 0.996835,1.612912 4.295949,1.870723 5.082601,0.397183 z M 112.24885,32.999999 c 0.34815,-3.610777 1.02921,-4.403681 4.08448,-4.755229 C 119.21329,27.913394 120,27.126686 120,24.578103 c 0,-2.716412 0.65133,-3.24477 4,-3.24477 2.66666,0 4,-0.666667 4,-2 0,-1.481481 -1.55556,-2 -6,-2 h -6 v -6 c 0,-5.1111109 -0.39506,-5.9999998 -2.66667,-5.9999998 -2.07407,0 -2.66667,0.8888889 -2.66667,3.9999999 0,3.3777779 -0.51851,3.9999999 -3.33333,3.9999999 C 104.66666,13.333333 104,14 104,16.666666 c 0,2.814815 -0.62223,3.333333 -4.000003,3.333333 -3.879315,0 -3.999999,0.189823 -3.999999,6.291596 v 6.291595 l 7.705332,-7.624928 C 110.9769,17.762561 116,15.313605 116,18.964126 c 0,0.896936 -3.73267,5.396936 -8.29482,10 l -8.294813,8.369206 h 6.210333 c 6.03195,0 6.22234,-0.12448 6.62815,-4.333333 z"
       id="path83"
       inkscape:connector-curvature="0" />
    <path
       style="fill:#c76799;stroke-width:1.33333325"
       d="M 45.333332,131.4227 C 23.764125,125.41141 7.6906446,108.96611 1.9888906,87.0756 -6.1887374,55.679567 13.162369,22.477985 44.598303,13.968673 c 11.983217,-3.243705 28.376361,-2.21587 38.487422,2.413128 7.022882,3.215181 7.366093,3.250444 8.001126,0.822072 0.431137,-1.648672 1.842073,-2.537207 4.028919,-2.537207 2.47494,0 3.478162,-0.793794 3.791493,-3 0.273812,-1.9279428 1.498127,-3.1522559 3.426067,-3.4260675 2.33169,-0.3311532 3,-1.2964856 3,-4.3333333 0,-3.88665751 0.0422,-3.9072652 8,-3.9072652 h 8 V 5.9999998 12 h 6 6 v 7.333333 c 0,7.259258 -0.0404,7.333333 -4,7.333333 -3.34866,0 -4,0.528359 -4,3.244771 0,2.548582 -0.78671,3.33529 -3.66667,3.666666 -3.05527,0.351548 -3.73633,1.144452 -4.08447,4.755229 -0.25014,2.594334 -1.15644,4.333334 -2.25836,4.333334 -1.45477,0 -1.30416,1.212602 0.71857,5.785321 14.89296,33.668004 -4.67445,73.439493 -40.755685,82.837463 -9.262966,2.41269 -21.577883,2.46748 -29.953383,0.13325 z m 37.654173,-8.39848 C 112.18044,109.3632 123.91587,76.537623 109.92849,47.666665 c -2.35632,-4.863631 -2.61924,-4.999999 -9.63971,-4.999999 h -7.21732 l 2.885771,4.333333 c 6.142719,9.224032 7.311329,13.308141 7.344189,25.666666 0.03,11.28996 -0.25043,12.512806 -4.73981,20.666666 C 84.385182,119.08135 50.546265,124.05351 29.913043,103.42029 8.7285124,82.235757 14.778493,46.63495 41.825923,33.319543 c 6.911688,-3.402612 9.946602,-4.10941 17.59648,-4.098028 10.689447,0.01591 15.860938,1.323719 23.927376,6.050967 3.185456,1.866801 6.134896,3.394184 6.554312,3.394184 0.419415,0 0.762573,-2.956427 0.762573,-6.569839 V 25.526989 L 82.999998,21.858725 C 73.102118,17.122893 56.195715,15.924382 45.039259,19.167653 28.262843,24.044689 13.170914,38.905758 8.0030651,55.637305 -1.1017324,85.115211 14.723713,115.86298 43.999999,125.57691 c 11.58435,3.84372 27.552973,2.79818 38.987506,-2.55269 z M 79.010867,106.25946 C 92.567866,98.314535 99.491302,85.16141 98.366174,69.48831 97.759011,61.030498 93.889348,50.658393 90.57737,48.611479 c -0.803403,-0.496531 -3.118756,0.685702 -5.145228,2.627186 l -3.684495,3.529971 3.126175,6.174985 C 89.905179,70.88182 88.454228,81.686035 80.938699,90.24575 69.78817,102.9455 51.575941,102.98056 40.46304,90.32367 34.900703,83.988513 32.814415,77.245193 33.81166,68.82501 35.98925,50.438679 55.974443,39.919432 73.036408,48.178988 l 5.878339,2.845656 3.373672,-3.373672 c 3.95663,-3.95663 3.35964,-5.422665 -3.668176,-9.007989 C 69.301061,33.888691 61.20092,32.871483 51.813,35.276556 33.635504,39.933415 22.692717,53.983829 22.692717,72.666665 c 0,15.584526 8.400266,28.686445 22.640615,35.312625 8.831065,4.10918 25.15341,3.27564 33.677535,-1.71983 z M 71.333332,91.639242 c 9.659749,-5.403823 13.873433,-18.550036 9.141769,-28.521278 l -2.191564,-4.618379 -4.905055,4.789659 c -3.908022,3.816082 -4.790837,5.567881 -4.343138,8.618242 1.141066,7.774589 -8.716271,12.411587 -14.368679,6.759179 -5.860161,-5.860161 -1.890172,-14.666667 6.611761,-14.666667 3.803844,0 5.845595,-1.011585 9.359783,-4.637306 l 4.494654,-4.637308 -4.856941,-2.029359 C 59.607069,48.238293 48.9969,51.15342 42.122596,60.431105 c -4.360121,5.884499 -3.953733,18.916441 0.783572,25.127368 6.974431,9.14395 18.532118,11.616221 28.427164,6.080769 z M 62.999998,75.222221 c 0.745288,-0.745288 -3.621919,-5.888889 -4.999999,-5.888889 -0.990223,0 -0.80761,4.747945 0.222222,5.777777 1.096348,1.096348 3.731264,1.157625 4.777777,0.111106 z M 113.33333,32.666666 c 0,-4.088889 0.4127,-4.666667 3.33333,-4.666667 2.66667,0 3.33334,-0.666666 3.33334,-3.333333 0,-2.814815 0.62222,-3.333333 4,-3.333333 2.66666,0 4,-0.666667 4,-2 0,-1.481481 -1.55556,-2 -6,-2 h -6 v -6 c 0,-5.1111109 -0.39506,-5.9999998 -2.66667,-5.9999998 -2.07407,0 -2.66667,0.8888889 -2.66667,3.9999999 0,3.3777779 -0.51851,3.9999999 -3.33333,3.9999999 C 104.66666,13.333333 104,14 104,16.666666 c 0,2.814815 -0.62223,3.333333 -4.000003,3.333333 -3.879315,0 -3.999999,0.189823 -3.999999,6.291596 v 6.291595 l 7.705332,-7.624928 c 4.23793,-4.193712 8.40252,-7.624929 9.25464,-7.624929 4.24898,0 2.60587,3.699636 -5.09309,11.467644 l -8.456513,8.532355 h 6.961483 6.96148 z"
       id="path81"
       inkscape:connector-curvature="0" />
    <path
       style="fill:#bb4784;stroke-width:1.33333325"
       d="M 45.47284,131.22331 C 13.520021,122.63071 -6.1716768,89.588262 1.9888906,58.257729 7.9339881,35.432958 25.813857,17.966849 48.134567,13.179913 58.215729,11.017891 72.492229,12.3092 82.229338,16.263785 c 7.800877,3.168213 8.262965,3.213643 8.875173,0.872555 0.413475,-1.58113 1.856655,-2.469674 4.011259,-2.469674 2.47494,0 3.478162,-0.793794 3.791493,-3 0.273812,-1.9279428 1.498127,-3.1522559 3.426067,-3.4260675 2.33169,-0.3311532 3,-1.2964856 3,-4.3333333 0,-3.88665751 0.0422,-3.9072652 8,-3.9072652 h 8 V 5.9999998 12 h 6 6 v 6.666666 c 0,6.518519 -0.0889,6.666667 -4,6.666667 -3.55556,0 -4,0.444444 -4,4 0,3.555556 -0.44444,3.999999 -4,3.999999 -3.68254,0 -4,0.370371 -4,4.666667 0,3.208929 -0.60994,4.666667 -1.95262,4.666667 -1.62507,0 -1.52447,0.998822 0.59972,5.954355 5.92526,13.823059 6.41265,29.339218 1.381,43.963958 C 107.21182,122.08533 75.291151,139.2419 45.47284,131.22331 Z m 30.61849,-5.34099 c 32.25356,-9.43145 48.83432,-46.583111 34.44865,-77.187312 l -2.83365,-6.028342 h -7.16127 -7.161273 l 4.961695,8.999999 c 4.626478,8.391955 4.962578,9.765687 4.974768,20.333333 0.0109,9.459989 -0.56431,12.564557 -3.480006,18.781976 -4.257737,9.079178 -10.979906,16.018916 -20.218146,20.872536 -6.078203,3.19338 -8.468893,3.65582 -18.955433,3.66654 C 46.57919,115.33547 38.969332,112.37284 29.964911,103.36842 18.038104,91.44161 14.057088,72.660054 20.074577,56.707988 24.140741,45.928787 33.945424,36.129599 44.707988,32.088386 58.514153,26.904335 75.701305,29.316894 87.666664,38.118488 l 3,2.20677 V 32.75553 25.185803 L 82.999998,21.592901 C 76.130646,18.373653 73.808034,18 60.666665,18 46.923289,18 45.431314,18.269373 36.966312,22.279045 25.647295,27.640597 16.28258,37.057039 10.413801,48.978221 6.2521778,57.431679 6.0024169,58.745403 6.042305,71.971962 6.076912,83.447394 6.6463222,87.411322 9.1715424,93.756038 14.922669,108.20597 32.106493,123.15767 47.041904,126.70715 c 7.453931,1.77147 21.538248,1.37156 29.049426,-0.82483 z m 1.446913,-18.59525 C 83.809562,104.12796 91.729644,96.287347 95.000536,89.999998 99.319068,81.698861 99.794568,66.449566 96.009256,57.650371 91.748962,47.747048 90.106211,46.760623 85.393361,51.27582 l -3.843554,3.682359 2.520206,4.144145 c 9.501645,15.624203 -1.08236,37.553299 -19.454719,40.308406 -15.782186,2.36668 -31.16752,-10.888252 -31.252679,-26.925142 -0.01852,-3.488088 1.334897,-8.125751 3.683177,-12.620873 3.005362,-5.752919 5.066004,-7.813562 10.818923,-10.818923 8.877124,-4.637465 16.178139,-4.812 24.524994,-0.586284 l 6.174985,3.126175 3.384319,-3.532467 c 1.861376,-1.942857 3.384318,-3.941122 3.384318,-4.44059 0,-2.159294 -10.699266,-7.708492 -17.493265,-9.072923 -31.148859,-6.255585 -56.017037,27.305243 -41.325279,55.770495 3.109547,6.024741 11.10948,13.868002 17.355823,17.015922 9.380379,4.72736 24.239795,4.71012 33.667633,-0.0391 z M 70.207088,92.479028 C 80.56383,87.564432 85.360587,74.361814 80.775951,63.389236 l -2.173245,-5.201311 -5.101952,4.981923 c -3.63954,3.553916 -4.940098,5.828597 -4.537293,7.935741 0.773605,4.046852 -4.298848,10.227742 -8.393569,10.227742 -4.194029,0 -8.569893,-4.425278 -8.569893,-8.666666 0,-4.860595 4.727861,-9.058196 9.425845,-8.368679 3.058245,0.448855 4.807197,-0.440274 8.69229,-4.41897 l 4.863707,-4.980887 -4.091375,-2.115732 c -2.250256,-1.163652 -7.032441,-2.115732 -10.627077,-2.115732 -19.686849,0 -29.205336,24.731357 -14.722725,38.253243 6.365177,5.942935 16.546949,7.412063 24.666424,3.55912 z m -7.20709,-17.256807 c 0.745288,-0.745288 -3.621919,-5.888889 -4.999999,-5.888889 -0.990223,0 -0.80761,4.747945 0.222222,5.777777 1.096348,1.096348 3.731264,1.157625 4.777777,0.111106 z M 113.33333,33.333332 c 0,-3.377777 0.51852,-3.999999 3.33333,-3.999999 2.81482,0 3.33334,-0.622223 3.33334,-4 0,-3.555556 0.44444,-4 4,-4 6.57938,0 5.10454,-3.766756 -1.66667,-4.256669 C 116.69421,16.66866 116.66467,16.639118 116.25667,11 c -0.33146,-4.581156 -0.90614,-5.6666668 -3,-5.6666668 -1.9889,0 -2.59001,0.9283553 -2.59001,3.9999999 0,3.3777779 -0.51851,3.9999999 -3.33333,3.9999999 C 104.66666,13.333333 104,14 104,16.666666 c 0,2.814815 -0.62223,3.333333 -4.000003,3.333333 -3.938607,0 -3.999746,0.10744 -3.983457,7 l 0.01655,7 8.13655,-8.333333 c 4.47511,-4.583333 8.63226,-8.333333 9.23811,-8.333333 3.79498,0 1.86407,3.996296 -5.54087,11.467644 l -8.45651,8.532355 h 6.96148 c 6.84609,0 6.96148,-0.0663 6.96148,-4 z"
       id="path79"
       inkscape:connector-curvature="0" />
    <path
       style="fill:#b22e73;stroke-width:1.33333325"
       d="M 45.333332,130.91428 C 22.250949,124.88093 5.2913671,106.02223 1.1312915,81.762538 -3.1072846,57.045067 10.450237,30.154438 32.785642,18.977805 51.439628,9.643353 66.869406,9.7322363 89.666664,19.305469 c 1.636508,0.687217 2.333334,0.366401 2.333334,-1.074255 0,-1.249657 1.435956,-2.219313 3.666666,-2.475985 2.625342,-0.302079 3.78767,-1.273889 4.092735,-3.421896 0.273811,-1.927943 1.345871,-2.9999999 3.000001,-2.9999999 2.05275,0 2.57393,-0.944933 2.57393,-4.6666666 V 0 h 8 8 V 5.9999998 12 h 6 6 v 6.666666 c 0,6.518519 -0.0889,6.666667 -4,6.666667 -3.55556,0 -4,0.444444 -4,4 0,3.555556 -0.44444,3.999999 -4,3.999999 -3.68254,0 -4,0.370371 -4,4.666667 0,3.259259 -0.60317,4.666667 -2,4.666667 -2.5112,0 -2.53305,-0.210704 0.74745,7.205415 14.72502,33.288356 -7.17819,74.269699 -43.813076,81.975129 -9.5491,2.00847 -16.617912,1.76363 -26.934372,-0.93293 z m 37.670191,-7.23151 c 8.796312,-4.05798 20.777077,-14.79896 25.503957,-22.86476 8.33977,-14.230741 9.66741,-33.761814 3.36375,-49.484678 l -3.20738,-8 -7.66526,-0.399872 c -4.215892,-0.219929 -7.665259,-0.09657 -7.665259,0.274122 0,0.370696 1.51326,2.903905 3.3628,5.629354 7.755549,11.428442 9.145939,28.266622 3.405629,41.24354 C 96.41334,98.418771 86.451602,108.50187 78.285017,112.163 67.765009,116.8792 51.241984,116.64657 41.711232,111.64808 32.881551,107.01728 26.322034,100.45986 21.678821,91.622098 18.485436,85.543895 18.023005,83.153205 18.012277,72.666665 18.00201,62.613712 18.5306,59.584973 21.270186,53.999999 32.989189,30.109409 63.221584,21.835969 84.921129,36.581191 c 4.249082,2.887327 5.155643,3.092197 6.113022,1.381456 0.618244,-1.10474 0.938477,-4.248275 0.711631,-6.985633 C 91.367378,26.410837 90.725114,25.695567 83.965177,22.312015 57.039529,8.8349152 23.430969,20.971718 10.366333,48.890204 5.0333039,60.286624 3.7357874,76.48887 7.2014589,88.41036 11.92021,104.64229 27.66121,120.82824 43.7129,125.95386 c 10.222232,3.26416 29.737238,2.13615 39.290623,-2.27109 z M 75.999998,107.82401 C 95.30375,99.387378 104.3351,75.563214 95.457342,56.496715 91.32144,47.614164 89.943343,46.91666 85.306515,51.359024 81.878239,54.64352 81.677783,55.292836 83.306331,57.838008 93.186386,73.27903 84.379562,94.67005 66.49448,98.672556 41.032488,104.3707 23.21697,74.651854 40.378002,55.106519 48.885545,45.416962 61.2916,42.84093 72.389709,48.459508 l 6.174985,3.126175 3.717652,-3.895614 3.717652,-3.895611 -3.713568,-3.206951 C 76.990289,36.013883 65.0687,32.835318 56.858105,33.807742 c -20.038606,2.373276 -34.54562,18.31125 -34.763239,38.192256 -0.199968,18.268385 11.020847,33.051042 28.820135,37.968562 8.299516,2.29296 16.54436,1.5881 25.084997,-2.14455 z M 72.93553,91.16457 c 8.902931,-6.646996 12.033936,-17.738841 7.840421,-27.775334 l -2.173245,-5.201311 -5.267209,5.143292 c -4.034484,3.939568 -5.089288,5.852188 -4.506984,8.172273 0.826745,3.294012 -4.440188,9.829841 -7.921431,9.829841 -3.415359,0 -8.907083,-5.40316 -8.907083,-8.763439 0,-4.774972 4.764361,-8.956066 9.425845,-8.271906 3.058245,0.448855 4.807197,-0.440274 8.69229,-4.41897 l 4.863707,-4.980887 -4.255603,-2.200657 c -7.949317,-4.110752 -18.123065,-2.816208 -24.51194,3.118985 -11.480032,10.66482 -10.050887,26.965134 3.150763,35.936479 3.875612,2.63372 5.893876,3.061638 12.319521,2.612019 4.922884,-0.344467 8.966271,-1.494627 11.250948,-3.200385 z M 63.333332,74.666665 c 0.453225,-0.733334 0.188634,-1.333334 -0.587978,-1.333334 -0.776612,0 -1.412022,-0.899999 -1.412022,-1.999999 0,-2.414391 -3.464181,-2.681219 -4.327605,-0.333334 -1.487011,4.043595 4.095403,7.278445 6.327605,3.666667 z M 113.33333,33.333332 c 0,-3.377777 0.51852,-3.999999 3.33333,-3.999999 2.81482,0 3.33334,-0.622223 3.33334,-4 0,-3.555556 0.44444,-4 4,-4 3.11111,0 4,-0.592592 4,-2.666667 C 128,16.395061 127.11111,16 122,16 h -6 v -5.333334 c 0,-4.4444439 -0.44445,-5.3333328 -2.66667,-5.3333328 -2.07407,0 -2.66667,0.8888889 -2.66667,3.9999999 0,3.3777779 -0.51851,3.9999999 -3.33333,3.9999999 C 104.66666,13.333333 104,14 104,16.666666 c 0,2.814815 -0.62223,3.333333 -4.000003,3.333333 -3.933697,0 -3.999999,0.115387 -3.999999,6.961483 v 6.961481 l 8.652532,-8.575618 c 6.52499,-6.466995 9.02987,-8.198275 10.18716,-7.040987 1.15729,1.157287 -0.53044,3.685193 -6.86387,10.280803 l -8.398509,8.746171 h 6.878009 c 6.75335,0 6.87801,-0.0725 6.87801,-4 z"
       id="path77"
       inkscape:connector-curvature="0" />
    <path
       style="fill:#aa1864;stroke-width:1.33333325"
       d="M 47.999999,131.51678 C 16.98272,124.77874 -4.2226796,93.488356 1.324699,62.643377 5.7679464,37.937676 24.737849,18.300936 49.033884,13.257099 c 11.939436,-2.478618 24.432655,-0.613486 40.63278,6.066127 1.628823,0.671595 2.333334,0.34188 2.333334,-1.092012 0,-1.249657 1.435956,-2.219313 3.666666,-2.475985 2.625342,-0.302079 3.78767,-1.273889 4.092735,-3.421896 0.273811,-1.927943 1.345871,-2.9999999 3.000001,-2.9999999 2.05275,0 2.57393,-0.944933 2.57393,-4.6666666 V 0 h 7.25667 7.25667 l 0.41,5.6666665 0.40999,5.6666665 6.33334,0.406388 6.33333,0.406389 v 6.509134 c 0,6.369043 -0.0933,6.518125 -4.33333,6.926945 -3.61078,0.348142 -4.40368,1.029204 -4.75523,4.084477 -0.33138,2.879959 -1.11809,3.666666 -3.66667,3.666666 -2.81942,0 -3.24477,0.611744 -3.24477,4.666667 0,3.397345 -0.5828,4.666667 -2.14265,4.666667 -1.53794,0 -1.85653,0.658522 -1.12885,2.333333 5.16368,11.884516 6.19259,17.369415 5.71298,30.454762 -0.45162,12.321493 -0.90852,14.295199 -5.42459,23.43285 -8.41745,17.031539 -24.888466,29.547969 -43.537986,33.084779 -8.851293,1.67861 -13.406567,1.58763 -22.812235,-0.45561 z m 28.957014,-5.52855 c 10.041559,-2.98202 22.226117,-11.71911 28.434927,-20.38961 11.25399,-15.71601 13.86089,-38.698054 6.26888,-55.265288 l -3.51329,-7.666666 h -7.4071 c -4.073904,0 -7.407099,0.279162 -7.407099,0.620362 0,0.341199 1.773013,3.416115 3.940031,6.833145 13.666828,21.550355 4.253748,51.315607 -19.705804,62.312037 -8.90681,4.08785 -24.981447,3.99138 -34.356746,-0.20619 -8.490005,-3.8012 -18.147151,-13.5008 -22.128733,-22.226022 -4.529745,-9.926464 -4.334927,-25.322408 0.449598,-35.530615 4.299936,-9.174295 11.807679,-16.925736 20.571107,-21.238836 5.478411,-2.696312 8.548324,-3.228966 18.563881,-3.220986 12.226159,0.0097 19.461662,2.309789 26.364838,8.380949 3.407725,2.997004 5.223685,0.480146 4.720676,-6.542692 C 91.356991,26.330323 90.952775,25.796047 84.596233,22.389383 80.890829,20.403543 73.612294,18.077416 68.421712,17.220209 50.791092,14.308574 30.86159,21.597546 18.803516,35.367456 12.560521,42.496744 6.4502126,56.121351 5.4516959,65.138993 1.6726592,99.267616 26.243903,127.87074 59.424664,127.96835 c 5.916898,0.0174 13.806456,-0.87365 17.532349,-1.98012 z m 0.187385,-18.22411 C 98.198568,97.588683 105.63869,70.667825 92.817931,51.051985 l -2.798253,-4.281346 -4.27202,4.140604 -4.272019,4.140604 2.768323,5.426362 C 90.022122,71.804336 86.265758,87.45876 76.131946,94.284564 64.500616,102.11905 51.595943,100.99945 41.912184,91.315691 30.960211,80.363719 30.923662,64.725458 41.824558,53.82456 50.719101,44.930016 64.022881,43.055388 74.224151,49.259151 l 4.137294,2.516038 4.284673,-4.420661 4.284674,-4.420661 -5.982449,-3.505949 C 67.962577,31.81775 53.520688,31.681814 41.238315,39.054142 11.436851,56.942068 17.093046,100.84983 50.40428,110.20746 c 7.960404,2.2362 19.17853,1.21116 26.740118,-2.44334 z M 72.104425,91.634935 C 82.01013,84.959482 85.664158,72.330753 80.550933,62.442864 L 78.435201,58.351489 73.251745,63.413 c -3.961829,3.868622 -5.004289,5.775374 -4.423232,8.09049 0.853791,3.401773 -4.483519,9.829841 -8.161848,9.829841 -2.918884,0 -8.666666,-5.995584 -8.666666,-9.040307 0,-3.91048 5.954366,-8.740063 9.856025,-7.994214 2.543994,0.486316 4.454526,-0.520474 8.1295,-4.283988 5.497867,-5.630327 4.958082,-6.788819 -4.318859,-9.269185 -20.042523,-5.358745 -35.671584,18.842212 -22.764861,35.250452 7.098376,9.024122 20.375025,11.587762 29.202621,5.638846 z M 63.999998,73.999998 c 0,-1.1 -0.6,-2 -1.333333,-2 -0.733333,0 -1.333333,-0.9 -1.333333,-2 0,-1.1 -0.57889,-2 -1.286422,-2 -1.744793,0 -3.82821,4.271651 -3.088963,6.333333 0.864381,2.410671 7.042051,2.118252 7.042051,-0.333333 z M 113.33333,33.333332 c 0,-3.377777 0.51852,-3.999999 3.33333,-3.999999 2.79884,0 3.33334,-0.627855 3.33334,-3.915523 0,-3.442917 0.52303,-3.965951 4.33333,-4.333333 2.77727,-0.267779 4.33333,-1.135995 4.33333,-2.417811 0,-1.440038 -1.77321,-2.113781 -6.33333,-2.406388 L 116,15.85389 V 9.9269448 c 0,-5.038056 -0.39993,-5.9269449 -2.66667,-5.9269449 -2.15873,0 -2.66667,0.8888889 -2.66667,4.6666665 0,4.0888886 -0.41269,4.6666666 -3.33333,4.6666666 C 104.66666,13.333333 104,14 104,16.666666 c 0,2.814815 -0.62223,3.333333 -4.000003,3.333333 -3.933697,0 -3.999999,0.115387 -3.999999,6.961483 v 6.961481 l 8.369202,-8.294814 c 4.60307,-4.56215 8.80307,-8.294816 9.33334,-8.294816 2.13698,0 0.75954,3.725956 -2.5019,6.767581 -1.90631,1.777831 -5.25673,5.482419 -7.44537,8.232419 l -3.979351,4.999999 h 6.778711 c 6.643,0 6.7787,-0.08007 6.7787,-4 z"
       id="path75"
       inkscape:connector-curvature="0" />
    <path
       style="fill:#a60b5c;stroke-width:1.33333325"
       d="M 46.338862,130.63827 C 37.403684,128.38238 25.662105,121.53512 18.573542,114.44656 0.7028911,96.575904 -3.6735475,68.938925 7.6736514,45.614319 12.840543,34.993574 23.999013,24.075241 35.333332,18.549892 44.30341,14.177082 45.263443,14 59.999998,14 c 13.940737,0 16.044265,0.333012 23.161124,3.666666 4.305285,2.016667 8.055285,3.666667 8.333333,3.666667 0.278048,0 0.505543,-1.2 0.505543,-2.666667 0,-2.074074 0.888889,-2.666666 4,-2.666666 3.377777,0 3.999999,-0.518519 3.999999,-3.333334 0,-2.6666663 0.666663,-3.3333329 3.333333,-3.3333329 2.81482,0 3.33333,-0.6222223 3.33333,-3.9999999 0,-3.9049066 0.15667,-3.9999999 6.59001,-3.9999999 h 6.59 l 0.41,5.6666665 c 0.408,5.6391192 0.43754,5.6686602 6.07666,6.0766632 L 132,13.486661 v 5.923336 c 0,5.692596 -0.15582,5.923336 -4,5.923336 -3.37778,0 -4,0.518518 -4,3.333333 0,2.666667 -0.66667,3.333333 -3.33334,3.333333 -2.89874,0 -3.33333,0.588146 -3.33333,4.511159 0,3.334525 -0.67087,4.686594 -2.57209,5.183773 -2.48638,0.650204 -2.46136,0.946731 0.75068,8.89896 11.79352,29.19781 -1.7752,62.664979 -30.939758,76.312719 -7.502851,3.51101 -10.730157,4.21162 -21.050138,4.5697 -6.70378,0.23261 -14.436204,-0.14451 -17.183162,-0.83804 z m 36.951908,-6.42263 c 27.64109,-12.93483 40.37455,-43.628194 29.81177,-71.859767 -3.49375,-9.337859 -5.41539,-11.022541 -12.57296,-11.022541 -7.240061,0 -8.59086,2.296463 -4.626009,7.86458 6.894119,9.681892 8.663179,24.520285 4.488579,37.648972 C 97.33538,96.460143 84.874335,109.2348 75.429146,112.43815 60.270797,117.57913 42.25096,113.87486 31.476105,103.4029 22.440911,94.621698 19.628562,88.097335 18.929649,74.296406 18.37129,63.270886 18.579838,62.09944 22.529201,54.077145 30.018261,38.864703 43.977499,30.101021 60.666665,30.134243 c 9.507008,0.01892 19.621925,3.300328 24.901625,8.078391 3.993249,3.613841 6.431708,1.315533 6.431708,-6.062043 0,-6.011877 -0.386002,-6.836488 -4.333334,-9.257248 C 74.081586,14.562092 51.754561,13.8061 36.794688,21.170821 26.096207,26.437666 17.798832,33.808518 12.38979,42.850551 -7.2262397,75.641723 9.4798534,116.9503 46.666665,127.60579 c 10.173594,2.91514 26.349824,1.41777 36.624105,-3.39015 z m -9.194957,-14.45017 c 9.537273,-3.24331 20.981645,-15.006819 23.785654,-24.448943 1.165192,-3.923626 2.11853,-10.002457 2.11853,-13.508514 0,-7.51108 -4.263914,-19.760237 -8.080982,-23.214636 -2.627072,-2.377467 -2.791611,-2.33617 -6.84608,1.7183 l -4.154316,4.154315 2.874023,6.680845 c 3.503254,8.143533 3.614584,15.121686 0.353965,22.186494 C 74.783346,103.62078 47.438435,103.6816 37.059855,83.438065 33.458352,76.413293 34.180034,64.821072 38.622495,58.337724 46.194644,47.286896 60.586622,43.48548 72.682917,49.341196 l 6.164745,2.984301 3.909501,-3.74554 c 2.150226,-2.060042 3.909501,-4.48645 3.909501,-5.392014 0,-0.905563 -3.695833,-3.493308 -8.212962,-5.750544 -13.904429,-6.948125 -29.701695,-5.538466 -41.861182,3.735457 -8.857842,6.755792 -14.125213,16.61114 -14.926158,27.927122 -0.758416,10.715104 0.951597,17.689668 6.326751,25.804669 9.692309,14.632713 28.729004,20.769033 46.1027,14.860823 z M 69.999998,93.492356 c 2.933334,-1.346992 6.360451,-3.605773 7.615816,-5.019516 3.0739,-3.461701 6.384184,-11.621217 6.384184,-15.736368 0,-4.477115 -3.918919,-14.069807 -5.747963,-14.069807 -0.80213,0 -3.436982,1.9177 -5.855227,4.261556 -3.033335,2.940023 -4.39681,5.491679 -4.39681,8.228345 0,7.479448 -7.704494,11.615128 -12.571427,6.748193 -2.479546,-2.479544 -2.760604,-8.706062 -0.495239,-10.971427 0.88,-0.88 3.701436,-1.6 6.269857,-1.6 3.446432,0 5.821747,-1.116456 9.066667,-4.261556 5.581395,-5.409701 5.535345,-7.398804 -0.227032,-9.80648 -24.601849,-10.279308 -44.89205,22.350471 -24.190041,38.901327 7.866358,6.289001 15.426602,7.330255 24.147215,3.325733 z M 63.733332,75.733331 c 2.177608,-2.177608 2.010922,-3.733333 -0.4,-3.733333 -1.1,0 -2,-0.943994 -2,-2.097765 0,-2.892137 -4.511879,-1.849687 -5.094789,1.177129 -0.915456,4.753576 4.211526,7.937232 7.494789,4.653969 z M 113.33333,33.999999 c 0,-4.296296 0.31746,-4.666666 4,-4.666666 3.34866,0 4,-0.528359 4,-3.244771 0,-2.548583 0.78671,-3.335291 3.66667,-3.666667 2.62534,-0.302078 3.78767,-1.273889 4.09273,-3.421895 0.38852,-2.735592 -0.11092,-3 -5.66667,-3 h -6.09273 V 9.9114367 c 0,-5.8554579 -0.14038,-6.0724104 -3.66667,-5.6666665 -2.87995,0.3313756 -3.75718,1.2086049 -4.08856,4.0885629 C 109.24673,11.213291 108.46002,12 105.91143,12 c -2.5722,0 -3.24477,0.690928 -3.24477,3.333333 0,2.814815 -0.62222,3.333333 -3.999996,3.333333 h -4 v 8 c 0,4.4 0.433858,8 0.964127,8 0.530269,0 4.713859,-3.716407 9.296879,-8.258681 4.58301,-4.542275 8.76556,-7.825868 9.29455,-7.296875 0.52899,0.528994 -2.7546,4.711544 -7.29687,9.294555 -4.54228,4.583012 -8.258686,8.766605 -8.258686,9.296874 0,0.530269 3.299996,0.964127 7.333336,0.964127 h 7.33333 z"
       id="path73"
       inkscape:connector-curvature="0" />
  </g>
</svg>
