<?xml version="1.0" encoding="UTF-8" standalone="no"?>
<!-- Created with Inkscape (http://www.inkscape.org/) -->

<svg
   xmlns:dc="http://purl.org/dc/elements/1.1/"
   xmlns:cc="http://creativecommons.org/ns#"
   xmlns:rdf="http://www.w3.org/1999/02/22-rdf-syntax-ns#"
   xmlns:svg="http://www.w3.org/2000/svg"
   xmlns="http://www.w3.org/2000/svg"
   xmlns:sodipodi="http://sodipodi.sourceforge.net/DTD/sodipodi-0.dtd"
   xmlns:inkscape="http://www.inkscape.org/namespaces/inkscape"
   version="1.1"
   id="svg290"
   width="133.33333"
   height="130.66667"
   viewBox="0 0 133.33333 130.66667"
   sodipodi:docname="twitter.svg"
   inkscape:version="0.92.1 r15371">
  <metadata
     id="metadata296">
    <rdf:RDF>
      <cc:Work
         rdf:about="">
        <dc:format>image/svg+xml</dc:format>
        <dc:type
           rdf:resource="http://purl.org/dc/dcmitype/StillImage" />
        <dc:title></dc:title>
      </cc:Work>
    </rdf:RDF>
  </metadata>
  <defs
     id="defs294" />
  <sodipodi:namedview
     pagecolor="#ffffff"
     bordercolor="#666666"
     borderopacity="1"
     objecttolerance="10"
     gridtolerance="10"
     guidetolerance="10"
     inkscape:pageopacity="0"
     inkscape:pageshadow="2"
     inkscape:window-width="1920"
     inkscape:window-height="1017"
     id="namedview292"
     showgrid="false"
     inkscape:zoom="1.8061224"
     inkscape:cx="66.666664"
     inkscape:cy="65.333336"
     inkscape:window-x="-8"
     inkscape:window-y="-8"
     inkscape:window-maximized="1"
     inkscape:current-layer="svg290" />
  <g
     id="g300"
     transform="translate(0.55366954,0.55367234)">
    <path
       style="fill:#f9f9f9;stroke-width:1.33333337"
       d="M 45.028938,127.54047 C -6.9031556,109.8419 -16.041454,41.178569 29.488753,10.774662 51.172151,-3.7049553 81.371945,-3.854021 103.4406,10.409637 c 39.8528,25.758111 39.8528,84.089285 0,109.847393 -16.594414,10.72549 -39.815696,13.62099 -58.411662,7.28344 z m 40.304393,-1.7579 C 111.78813,118.59522 130.66666,93.421846 130.66666,65.333335 130.66666,29.648803 102.35307,2.080091 66.001594,2.3695015 18.966944,2.7439657 -11.221923,50.503529 8.8101448,92.847846 12.929965,101.55643 23.145563,112.98479 31.739929,118.49978 c 15.709096,10.0805 34.098033,12.57937 53.593402,7.28279 z M 46.999999,79.671005 c -5.293,-1.69795 -5.636496,-3.637696 -0.666667,-3.764716 3.605892,-0.09216 10.348765,-2.296215 7.584748,-2.47924 -2.156201,-0.142778 -7.402816,-5.436718 -6.628993,-6.688789 0.374852,-0.606525 -0.211843,-1.844225 -1.303768,-2.750442 -2.453995,-2.036635 -2.736188,-7.235785 -0.318653,-5.870901 1.333333,0.752771 1.333333,0.581842 0,-0.854644 -1.886944,-2.032924 -2.288258,-10.595605 -0.496594,-10.595605 0.643542,0 1.949841,0.939561 2.902891,2.087916 2.248848,2.709696 7.484449,5.352036 12.927035,6.524107 3.759391,0.809592 4.333334,0.578781 4.333334,-1.742643 0,-4.452585 6.494257,-8.56402 11.984722,-7.58738 2.575069,0.458051 6.71022,0.801191 9.189225,0.762532 4.079175,-0.06361 4.332457,0.145207 2.666667,2.198535 -1.237462,1.525348 -1.294463,1.940705 -0.173948,1.267521 2.260785,-1.358235 2.123873,1.116777 -0.166948,3.017991 -1.008487,0.83697 -2.233243,4.020906 -2.721679,7.075415 -1.146517,7.169929 -10.971797,17.410289 -18.778039,19.571341 -6.434298,1.781247 -14.457964,1.71377 -20.333333,-0.170998 z"
       id="path314"
       inkscape:connector-curvature="0" />
    <path
       style="fill:#f3f3f3;stroke-width:1.33333337"
       d="M 49.21576,128.74063 C 26.499622,122.47418 8.0400217,103.6408 2.0415895,80.611263 -6.6945582,47.070927 15.135234,11.090178 49.824521,1.8535003 58.533305,-0.4653778 74.722305,-0.48677965 83.333331,1.8092018 117.91281,11.029222 139.01113,44.558517 131.86438,78.934374 126.96079,102.52066 106.02829,123.82934 82.410911,129.27659 74.574191,131.0841 56.662567,130.7949 49.21576,128.74063 Z m 28.117571,-0.80951 c 12.595047,-2.00853 24.116989,-7.87482 33.879869,-17.24962 13.66637,-13.123128 19.42181,-26.561553 19.42181,-45.348165 0,-18.786612 -5.75544,-32.225037 -19.42181,-45.348168 C 70.584461,-19.028551 2.6666666,9.3458942 2.6666666,65.333335 c 0,34.296257 27.4870164,62.295315 62.6666654,63.834055 1.833333,0.0802 7.233333,-0.47613 11.999999,-1.23627 z M 48.398972,79.858638 c -5.65855,-1.636425 -6.851149,-3.834579 -2.144329,-3.952349 2.059945,-0.05155 4.931973,-0.557318 6.382284,-1.123943 2.550442,-0.996441 2.537417,-1.083485 -0.397158,-2.654023 -1.668746,-0.893085 -3.60393,-2.937312 -4.30041,-4.542724 -0.696479,-1.605412 -2.017759,-3.986011 -2.936176,-5.29022 -1.351632,-1.919397 -1.325111,-2.586384 0.139167,-3.5 1.260596,-0.786532 1.361649,-1.405199 0.333333,-2.040734 -1.340663,-0.828574 -2.195691,-8.754644 -0.944412,-8.754644 0.2922,0 3.953128,1.8 8.135394,4 9.325743,4.905626 12.114069,5.049904 13.209959,0.683534 1.215636,-4.843482 6.490193,-7.857267 11.787529,-6.735178 2.384714,0.505134 6.01761,0.957903 8.073102,1.006155 2.649145,0.06219 3.527049,0.635524 3.015273,1.969193 -0.398508,1.038494 -0.13144,1.516487 0.596075,1.066858 1.894212,-1.170687 1.623388,0.769678 -0.451908,3.237784 -0.973484,1.157744 -2.535716,4.804988 -3.471628,8.104988 -4.078869,14.381984 -21.394946,23.045754 -37.026095,18.525303 z"
       id="path312"
       inkscape:connector-curvature="0" />
    <path
       style="fill:#ededed;stroke-width:1.33333337"
       d="M 49.4831,128.55927 C 17.466874,119.94903 -4.2689908,87.199346 1.1045008,55.666668 5.5189409,29.761887 24.823893,8.6135638 50.055404,2.0415897 95.380194,-9.7640189 139.39768,29.214131 132.32704,74.894367 126.40652,113.14414 87.02421,138.65534 49.4831,128.55927 Z M 80.359741,127.3743 C 113.06191,120.44456 135.0928,89.267705 130.56028,56.333335 125.81039,21.819494 91.087134,-3.2756738 56.240308,2.6208539 35.604259,6.112737 16.66804,20.513322 7.6353642,39.583861 c -4.1332944,8.726556 -4.302031,9.736516 -4.302031,25.749474 0,16.012958 0.1687366,17.022918 4.302031,25.749474 8.3730098,17.677801 26.3458468,32.240901 44.7148428,36.231711 10.899809,2.36807 17.054461,2.38121 28.009534,0.0598 z M 48.999999,79.793469 c -5.848475,-1.627871 -6.602448,-3.784544 -1.333334,-3.813884 6.175208,-0.03439 7.67138,-1.899651 3.641659,-4.540026 -2.076503,-1.360577 -3.218657,-3.083383 -2.788071,-4.205475 0.401163,-1.045412 0.169327,-1.900749 -0.515189,-1.900749 -0.684516,0 -1.927633,-1.276304 -2.76248,-2.836232 -1.153352,-2.155056 -1.13043,-3.075705 0.09544,-3.833334 1.153691,-0.713021 1.192912,-1.256942 0.13766,-1.909124 -1.446552,-0.894017 -2.147285,-8.754644 -0.780432,-8.754644 0.38239,0 2.998285,1.524075 5.813101,3.386831 2.814816,1.862757 7.22052,3.728048 9.790453,4.145092 4.193786,0.680557 4.761446,0.404296 5.539548,-2.695913 0.506104,-2.016479 2.634435,-4.368179 5.113479,-5.650143 3.537156,-1.829135 4.982561,-1.929819 8.652573,-0.602725 2.423321,0.876284 5.599912,1.214322 7.059092,0.751197 2.035413,-0.646016 2.466596,-0.356143 1.852125,1.24514 -0.481596,1.255019 -0.07955,2.104095 1.008389,2.129592 1.274418,0.02987 1.1195,0.566052 -0.524014,1.813657 -1.283334,0.97419 -2.33668,2.305107 -2.340769,2.957596 -0.02384,3.804353 -3.236582,11.667885 -6.211524,15.203403 -6.801292,8.082877 -20.686316,12.105077 -31.447706,9.109741 z"
       id="path310"
       inkscape:connector-curvature="0" />
    <path
       style="fill:#e9e9e9;stroke-width:1.33333337"
       d="M 49.225081,128.2223 C 17.67768,119.98704 -4.0115136,87.257578 1.1932884,55.741303 9.9052671,2.9882646 74.133377,-18.234372 112.77545,18.871656 161.39673,65.560212 115.00114,145.39278 49.225081,128.2223 Z m 39.499474,-3.01056 c 19.009385,-7.07745 32.806325,-20.8887 39.505805,-39.546768 3.83688,-10.685749 3.83688,-29.977525 0,-40.663274 C 119.55407,20.838191 97.988892,4.204443 72.299889,1.8611648 31.514167,-1.8591932 -2.791523,33.899776 2.7730547,74.333335 4.4645514,86.624157 11.663664,100.93903 20.695651,109.97102 c 7.713304,7.7133 22.544137,15.89036 32.637681,17.99495 9.307645,1.94072 26.341475,0.61511 35.391223,-2.75423 z M 50.815871,79.821029 c -3.217936,-0.592994 -6.118719,-1.346096 -6.446183,-1.67356 -0.327464,-0.327464 2.305393,-1.426508 5.850795,-2.44232 l 6.446182,-1.846931 -4,-1.947073 c -2.2,-1.070893 -4,-2.838991 -4,-3.92911 0,-1.090119 -1.05,-3.032033 -2.333333,-4.315367 -2.565058,-2.565058 -3.065966,-5 -1.028585,-5 0.802811,0 0.735381,-1.249625 -0.175279,-3.248307 -0.814016,-1.786569 -1.113564,-4.203296 -0.665664,-5.370505 0.702542,-1.830793 1.52482,-1.652039 5.98838,1.301805 2.845709,1.883202 7.259444,3.762422 9.8083,4.176043 4.203196,0.682085 4.79042,0.375089 6.312813,-3.300292 2.110972,-5.096336 7.75497,-7.336127 13.4678,-5.344624 2.222605,0.774804 5.256896,1.090797 6.742867,0.702207 2.214008,-0.578976 2.417827,-0.364399 1.128975,1.188572 -1.216099,1.46531 -1.196355,1.895101 0.08706,1.895101 1.167648,0 1.254718,0.494225 0.293624,1.666667 -0.751426,0.916666 -2.080199,4.366666 -2.952829,7.666667 -3.896416,14.734949 -18.045192,22.857873 -34.524923,19.821027 z"
       id="path308"
       inkscape:connector-curvature="0" />
    <path
       style="fill:#e3e3e3;stroke-width:1.33333337"
       d="m 68.666665,129.42671 c 5.866666,-0.58566 13.032929,-1.72999 15.925028,-2.54296 2.892098,-0.81298 5.498361,-1.23813 5.791694,-0.9448 1.291359,1.29136 -10.67811,3.59605 -21.050055,4.05314 l -11.333333,0.49946 z m -21.812878,-1.62297 c -7.151387,-2.05797 -4.241801,-2.41631 3.812878,-0.46958 4.033334,0.97482 5.833334,1.7693 4,1.76553 -1.833333,-0.004 -5.349129,-0.58695 -7.812878,-1.29595 z M 31.206714,120.24018 C 17.691585,111.49747 5.7348123,95.65663 3.3491811,83.333335 c -0.4258917,-2.2 0.6469961,-0.315684 2.384195,4.187369 5.5431329,14.368546 15.9305389,26.157386 30.2685869,34.352326 3.29892,1.8855 5.341057,3.43541 4.538084,3.44425 -0.802973,0.009 -5.002973,-2.27586 -9.333333,-5.0771 z m 68.205054,0.34513 C 109.82778,114.34216 117.1816,107.01481 123.14033,96.942144 125.81315,92.424002 128,89.346222 128,90.102632 c 0,2.289862 -7.94392,14.230838 -13.12891,19.734828 -4.95584,5.26076 -19.48656,15.49588 -21.99937,15.49588 -0.759832,0 2.18319,-2.13662 6.540048,-4.74803 z M 130.24441,78.666669 c 0.43634,-3.3 1.00985,-6.25 1.27447,-6.555556 1.003,-1.158173 0.24047,7.342405 -0.88706,9.888889 -0.78842,1.780616 -0.91715,0.673052 -0.38741,-3.333333 z m -82.911078,0.143652 c -2.281937,-0.973995 -1.849116,-1.362426 3,-2.692323 3.116667,-0.854763 5.666667,-1.815579 5.666667,-2.135148 0,-0.319569 -1.887374,-1.557033 -4.194163,-2.74992 -2.649616,-1.37017 -3.628129,-2.518712 -2.657123,-3.118828 1.037196,-0.641022 0.44994,-1.895164 -1.805837,-3.856536 -3.417848,-2.971782 -4.372632,-5.590898 -2.038129,-5.590898 0.802811,0 0.735381,-1.249625 -0.175279,-3.248307 -0.814016,-1.786569 -1.088642,-4.268241 -0.610282,-5.514826 0.780902,-2.035002 1.105245,-2.060111 3.175278,-0.245811 3.555687,3.116415 9.889093,6.015489 14.280794,6.53694 3.126448,0.37122 4.08111,-0.09739 4.470984,-2.194663 1.09232,-5.875969 4.138998,-7.445757 13.671348,-7.044108 6.977158,0.293987 8.655401,0.745954 7.590173,2.044108 -0.955356,1.164258 -0.893685,1.666667 0.20458,1.666667 1.056373,0 0.891209,0.972248 -0.503407,2.963341 -1.141582,1.629839 -2.075605,4.098146 -2.075605,5.485129 0,4.372906 -5.599601,12.706718 -11.098133,16.517204 -4.3869,3.040124 -6.917596,3.724457 -14.764778,3.992589 -5.208732,0.17798 -10.670421,-0.188594 -12.137088,-0.81461 z M 1.6426702,74.666669 c 0,-2.566667 0.2743938,-3.616667 0.6097637,-2.333334 0.3353702,1.283334 0.3353702,3.383334 0,4.666667 C 1.917064,78.283335 1.6426702,77.233335 1.6426702,74.666669 Z M 132.36315,65.333335 c 0,-3.3 0.26002,-4.65 0.57782,-3 0.31781,1.65 0.31781,4.35 0,6 -0.3178,1.65 -0.57782,0.3 -0.57782,-3 z m -132.05381307,0 c 0,-2.566667 0.27439368,-3.616667 0.60976373,-2.333333 0.33537004,1.283333 0.33537004,3.383333 0,4.666666 -0.33537005,1.283334 -0.60976373,0.233334 -0.60976373,-2.333333 z M 1.6426702,56.000001 c 0,-2.566666 0.2743938,-3.616666 0.6097637,-2.333333 0.3353702,1.283333 0.3353702,3.383333 0,4.666667 -0.3353699,1.283333 -0.6097637,0.233333 -0.6097637,-2.333334 z m 129.2055598,0 c -0.11989,-1.833333 -0.52671,-4.833333 -0.90405,-6.666666 l -0.68607,-3.333334 1.43229,3.281996 c 0.78777,1.805099 1.19459,4.805099 0.90406,6.666667 l -0.52824,3.384671 z M 3.3491811,47.333335 C 7.1372364,27.765631 32.192335,4.4828102 52.069061,2.0596646 L 57.999999,1.3366319 51.333332,3.1203707 C 29.837033,8.8719386 13.387382,23.27955 5.7791697,43.019497 4.0167843,47.592108 2.9232894,49.533335 3.3491811,47.333335 Z M 122.85223,33.326342 C 117.31467,23.776617 109.7573,16.28226 99.411768,10.081359 95.05491,7.469945 92.111888,5.3333335 92.87172,5.3333335 c 2.781012,0 17.27937,10.3956165 22.59269,16.1994135 5.37258,5.86852 13.33507,18.139543 12.36425,19.054573 -0.27243,0.256773 -2.51183,-3.010667 -4.97643,-7.260978 z M 84.666665,3.8282705 c -2.2,-0.7017206 -9.1,-1.7664888 -15.333333,-2.3661517 C 58.586015,0.42819888 58.413657,0.36328664 65.999998,0.20673926 73.541743,0.05111216 88.472162,2.6943866 90.283687,4.5059122 91.38268,5.6049047 89.539564,5.3825499 84.666665,3.8282705 Z"
       id="path306"
       inkscape:connector-curvature="0" />
    <path
       style="fill:#dbdbdb;stroke-width:1.33333337"
       d="m 62.999998,129.71166 c 2.016667,-0.3055 5.316667,-0.3055 7.333334,0 2.016666,0.3055 0.366666,0.55546 -3.666667,0.55546 -4.033333,0 -5.683333,-0.24996 -3.666667,-0.55546 z m -9.916666,-1.28914 c 0.9625,-0.38516 2.1125,-0.33779 2.555556,0.10526 0.443055,0.44306 -0.344445,0.75819 -1.75,0.7003 -1.553257,-0.064 -1.8692,-0.37992 -0.805556,-0.80556 z m 25.333333,0 c 0.9625,-0.38516 2.1125,-0.33779 2.555556,0.10526 0.443054,0.44306 -0.344446,0.75819 -1.75,0.7003 -1.553258,-0.064 -1.8692,-0.37992 -0.805556,-0.80556 z M 112.66666,110.66667 C 116.2782,107 119.53309,104 119.89975,104 c 0.36667,0 -2.28822,3 -5.89975,6.66667 -3.61153,3.66667 -6.86642,6.66667 -7.23309,6.66667 -0.36667,0 2.28822,-3 5.89975,-6.66667 z M 19.270597,110.33334 14,104.66667 l 5.666666,5.2706 c 3.116667,2.89882 5.666667,5.44882 5.666667,5.66666 0,1.00877 -1.161134,-6.5e-4 -6.062736,-5.27059 z M 124.75239,94.275832 c 0.50071,-1.314962 1.24625,-2.054962 1.65677,-1.644444 0.41052,0.410516 8.4e-4,1.486392 -0.91038,2.390837 -1.31682,1.307023 -1.46997,1.153871 -0.74639,-0.746393 z M 2.7719298,81.888891 c 0.063979,-1.553257 0.3799204,-1.8692 0.8055554,-0.805556 0.3851608,0.9625 0.3377924,2.1125 -0.1052626,2.555556 -0.4430556,0.443055 -0.7581872,-0.344445 -0.7002928,-1.75 z M 47.505476,78.832298 c -2.011758,-0.790564 -1.43117,-1.298863 3,-2.626475 6.230956,-1.86684 6.804347,-2.99355 2.494523,-4.901737 -1.654839,-0.732684 -2.839951,-2.30105 -2.643058,-3.497792 0.19632,-1.193244 -0.514432,-2.503914 -1.579446,-2.912599 -1.065015,-0.408684 -2.64544,-2.067932 -3.512055,-3.687219 -1.351797,-2.525856 -1.26947,-2.826657 0.579447,-2.117161 2.679989,1.028408 2.704394,0.321843 0.124867,-3.615018 -1.116638,-1.704202 -1.657914,-4.068837 -1.202839,-5.254744 0.722764,-1.883492 1.358959,-1.755181 5.030248,1.014524 3.55383,2.681094 12.371183,6.065808 15.869503,6.091822 0.55,0.0041 1,-1.478732 1,-3.29516 0,-4.625931 5.370038,-7.933639 10.997488,-6.773971 2.384715,0.491425 5.641601,0.925917 7.237524,0.965537 2.062328,0.0512 2.671734,0.671264 2.106749,2.143594 -0.581549,1.515489 -0.286728,1.772368 1.09832,0.95697 1.338163,-0.787797 1.258649,-0.36327 -0.271199,1.44794 -1.190447,1.40939 -2.570042,4.825354 -3.065765,7.591034 -1.124937,6.276112 -7.739004,13.962696 -14.758347,17.151516 -5.438758,2.470775 -17.740327,3.191696 -22.50596,1.318939 z M 1.5438596,76.000002 c 0,-1.833333 0.3026316,-2.583333 0.6725146,-1.666667 0.3698831,0.916667 0.3698831,2.416667 0,3.333334 -0.369883,0.916666 -0.6725146,0.166666 -0.6725146,-1.666667 z m 129.3333304,0 c 0,-1.833333 0.30263,-2.583333 0.67251,-1.666667 0.36989,0.916667 0.36989,2.416667 0,3.333334 -0.36988,0.916666 -0.67251,0.166666 -0.67251,-1.666667 z m 1.33333,-10.666667 c 0,-1.833333 0.30263,-2.583333 0.67252,-1.666667 0.36988,0.916667 0.36988,2.416667 0,3.333334 -0.36989,0.916666 -0.67252,0.166666 -0.67252,-1.666667 z M 1.5438596,54.666668 c 0,-1.833333 0.3026316,-2.583333 0.6725146,-1.666667 0.3698831,0.916667 0.3698831,2.416667 0,3.333334 -0.369883,0.916666 -0.6725146,0.166666 -0.6725146,-1.666667 z m 129.3333304,0 c 0,-1.833333 0.30263,-2.583333 0.67251,-1.666667 0.36989,0.916667 0.36989,2.416667 0,3.333334 -0.36988,0.916666 -0.67251,0.166666 -0.67251,-1.666667 z M 2.7719298,48.555557 c 0.063979,-1.553257 0.3799204,-1.8692 0.8055554,-0.805556 0.3851608,0.9625 0.3377924,2.1125 -0.1052626,2.555556 -0.4430556,0.443055 -0.7581872,-0.344445 -0.7002928,-1.75 z M 124.75239,36.390838 c -0.72358,-1.900264 -0.57043,-2.053416 0.74639,-0.746393 0.91122,0.904445 1.3209,1.980321 0.91038,2.390837 -0.41052,0.410518 -1.15606,-0.329482 -1.65677,-1.644444 z m -12.13585,-16.724171 -6.61654,-7 7,6.616544 c 6.50452,6.148211 7.61146,7.383456 6.61654,7.383456 -0.2109,0 -3.3609,-3.15 -7,-7 z m -93.283207,0.333334 c 2.864324,-2.933334 5.507861,-5.333334 5.874528,-5.333334 0.366666,0 -1.676871,2.4 -4.541195,5.333334 -2.864324,2.933333 -5.507861,5.333333 -5.874528,5.333333 -0.366666,0 1.676871,-2.4 4.541195,-5.333333 z M 53.083332,1.755848 c 0.9625,-0.3851608 2.1125,-0.3377924 2.555556,0.1052627 0.443055,0.4430556 -0.344445,0.7581872 -1.75,0.7002924 -1.553257,-0.063978 -1.8692,-0.37992 -0.805556,-0.8055551 z m 25.333333,0 c 0.9625,-0.3851608 2.1125,-0.3377924 2.555556,0.1052627 0.443054,0.4430556 -0.344446,0.7581872 -1.75,0.7002924 -1.553258,-0.063978 -1.8692,-0.37992 -0.805556,-0.8055551 z M 62.999998,0.37832742 c 2.016667,-0.30549952 5.316667,-0.30549952 7.333334,0 2.016666,0.30549953 0.366666,0.5554537 -3.666667,0.5554537 -4.033333,0 -5.683333,-0.24995417 -3.666667,-0.5554537 z"
       id="path304"
       inkscape:connector-curvature="0" />
    <path
       style="fill:#d3d3d3;stroke-width:1.33333337"
       d="m 64.333332,129.74757 c 1.283333,-0.33537 3.383333,-0.33537 4.666666,0 1.283334,0.33537 0.233334,0.60976 -2.333333,0.60976 -2.566667,0 -3.616667,-0.27439 -2.333333,-0.60976 z M 19.249454,110.33334 15.333333,106 l 4.333333,3.91612 c 2.383333,2.15387 4.333333,4.10387 4.333333,4.33334 0,1.03008 -1.10017,0.12314 -4.750545,-3.91612 z m 90.083876,4.16557 c 0,-0.36666 1.8,-2.39117 4,-4.49891 2.2,-2.10773 4,-3.53224 4,-3.16557 0,0.36666 -1.8,2.39117 -4,4.49891 -2.2,2.10773 -4,3.53224 -4,3.16557 z M 16,23.832243 c 0,-0.366666 1.8,-2.391176 3.999999,-4.498909 2.2,-2.107734 4,-3.532243 4,-3.165576 0,0.366666 -1.8,2.391176 -4,4.498909 C 17.8,22.774401 16,24.19891 16,23.832243 Z M 112.58279,19.666667 108.66666,15.333334 113,19.249455 c 4.03927,3.650375 4.9462,4.750546 3.91612,4.750546 -0.22947,0 -2.17947,-1.95 -4.33333,-4.333334 z M 64.333332,0.41423266 c 1.283333,-0.33537007 3.383333,-0.33537007 4.666666,0 1.283334,0.33537007 0.233334,0.60976374 -2.333333,0.60976374 -2.566667,0 -3.616667,-0.27439367 -2.333333,-0.60976374 z"
       id="path302"
       inkscape:connector-curvature="0" />
  </g>
</svg>
