<?xml version="1.0" encoding="UTF-8" standalone="no"?>
<!-- Created with Inkscape (http://www.inkscape.org/) -->

<svg
   xmlns:dc="http://purl.org/dc/elements/1.1/"
   xmlns:cc="http://creativecommons.org/ns#"
   xmlns:rdf="http://www.w3.org/1999/02/22-rdf-syntax-ns#"
   xmlns:svg="http://www.w3.org/2000/svg"
   xmlns="http://www.w3.org/2000/svg"
   xmlns:sodipodi="http://sodipodi.sourceforge.net/DTD/sodipodi-0.dtd"
   xmlns:inkscape="http://www.inkscape.org/namespaces/inkscape"
   version="1.1"
   id="svg136"
   width="66.666664"
   height="66.666664"
   viewBox="0 0 66.666664 66.666664"
   sodipodi:docname="youtube.svg"
   inkscape:version="0.92.1 r15371">
  <metadata
     id="metadata142">
    <rdf:RDF>
      <cc:Work
         rdf:about="">
        <dc:format>image/svg+xml</dc:format>
        <dc:type
           rdf:resource="http://purl.org/dc/dcmitype/StillImage" />
        <dc:title></dc:title>
      </cc:Work>
    </rdf:RDF>
  </metadata>
  <defs
     id="defs140" />
  <sodipodi:namedview
     pagecolor="#ffffff"
     bordercolor="#666666"
     borderopacity="1"
     objecttolerance="10"
     gridtolerance="10"
     guidetolerance="10"
     inkscape:pageopacity="0"
     inkscape:pageshadow="2"
     inkscape:window-width="1920"
     inkscape:window-height="1017"
     id="namedview138"
     showgrid="false"
     inkscape:zoom="3.5400001"
     inkscape:cx="33.333332"
     inkscape:cy="33.333332"
     inkscape:window-x="-8"
     inkscape:window-y="-8"
     inkscape:window-maximized="1"
     inkscape:current-layer="svg136" />
  <g
     id="g146"
     transform="translate(2.2474387e-7,-0.28248557)">
    <path
       style="fill:#f3f3f4;stroke-width:1.33333325"
       d="M 19.333333,64.129657 C 12.697321,61.04585 4.7894033,52.915706 2.0651022,46.376157 0.92929599,43.64971 0,37.780438 0,33.333332 0,28.886226 0.92929599,23.016954 2.0651022,20.290507 4.7894033,13.750958 12.697321,5.6208138 19.333333,2.537007 c 7.160474,-3.32752862 20.839524,-3.32752862 27.999998,0 6.636012,3.0838068 14.543929,11.213951 17.26823,17.7535 2.854367,6.851764 2.618059,20.393566 -0.471904,27.042824 -3.083807,6.636012 -11.213951,14.543929 -17.7535,17.26823 -6.851764,2.854367 -20.393566,2.618059 -27.042824,-0.471904 z M 51.61887,44.501652 c 1.020504,-1.395623 1.714461,-6.2231 1.714461,-11.926567 0,-12.986396 -0.391708,-13.241752 -20.312407,-13.241752 -19.094617,0 -19.687591,0.421669 -19.687591,13.999999 0,13.787134 1.730073,14.796765 23.952204,13.97795 10.14612,-0.373852 12.954832,-0.924419 14.333333,-2.80963 z M 27.999999,33.333332 c 0,-4.556392 0.58624,-8 1.36192,-8 1.840009,0 11.971413,6.770399 11.971413,8 0,1.229601 -10.131404,8 -11.971413,8 -0.77568,0 -1.36192,-3.443608 -1.36192,-8 z"
       id="path160"
       inkscape:connector-curvature="0" />
    <path
       style="fill:#e8e8ea;stroke-width:1.33333325"
       d="M 19.999999,63.892113 C 11.942522,60.244782 6.9656521,55.345867 3.1777209,47.333331 -7.1997154,25.382146 8.9536807,0.05856533 33.333332,0.05856533 c 13.287645,0 24.401844,7.10393887 30.155611,19.27476767 10.377437,21.951185 -5.77596,47.274766 -30.155611,47.274766 -4.525149,0 -9.630938,-1.040044 -13.333333,-2.715986 z M 50.36999,45.924393 c 2.629192,-1.841559 2.961039,-3.232275 2.942924,-12.333333 -0.01123,-5.64175 -0.588277,-11.157728 -1.282329,-12.257728 -0.973882,-1.543498 -4.78636,-2.10259 -16.703044,-2.449466 -20.994672,-0.611123 -21.994208,0.0435 -21.994208,14.404598 0,14.035771 0.918685,14.711534 19.999999,14.711534 10.579494,0 14.808991,-0.515287 17.036658,-2.075605 z M 29.333332,33.333332 V 25.18257 l 3.666667,2.173864 c 2.016666,1.195624 4.831343,3.029546 6.254839,4.075381 2.562008,1.882294 2.562008,1.92074 0,3.803034 -1.423496,1.045835 -4.238173,2.879757 -6.254839,4.075381 l -3.666667,2.173864 z"
       id="path158"
       inkscape:connector-curvature="0" />
    <path
       style="fill:#e1e2e4;stroke-width:1.33333325"
       d="M 22.330624,64.84612 C 14.870082,62.061738 8.5059007,56.669112 4.3630605,49.621483 1.2017556,44.243602 0.66666664,41.870598 0.66666664,33.228772 c 0,-8.915784 0.47516096,-10.876574 4.03885396,-16.666666 C 17.805414,-4.721875 48.113867,-5.2968613 61.295571,15.488527 74.787788,36.763545 60.772799,64.556263 35.737963,66.171081 30.512035,66.508168 25.441266,66.007057 22.330624,64.84612 Z M 50.963578,45.666665 c 4.291108,-4.899611 3.916793,-23.019442 -0.533823,-25.8413 -0.9697,-0.614826 -8.720098,-1.127052 -17.223106,-1.138282 -19.311047,-0.0255 -20.265473,0.664279 -20.265473,14.646249 0,13.991734 0.938409,14.666666 20.392156,14.666666 13.177093,0 15.902619,-0.360719 17.630246,-2.333333 z M 29.333332,33.333332 V 25.18257 l 3.666667,2.173864 c 2.016666,1.195624 4.831343,3.029546 6.254839,4.075381 2.562008,1.882294 2.562008,1.92074 0,3.803034 -1.423496,1.045835 -4.238173,2.879757 -6.254839,4.075381 l -3.666667,2.173864 z"
       id="path156"
       inkscape:connector-curvature="0" />
    <path
       style="fill:#dddde0;stroke-width:1.33333325"
       d="M 21.447367,64.377191 C 9.6852725,60.22277 0,46.203882 0,33.333332 0,25.280115 3.9777038,15.952119 9.9649119,9.9649119 23.007004,-3.0771812 43.65966,-3.0771812 56.701752,9.9649119 81.789169,35.052328 55.09022,76.259986 21.447367,64.377191 Z M 49.876473,47.196234 c 5.355713,-2.05518 5.997803,-24.409206 0.781312,-27.200987 -1.365362,-0.73072 -9.379064,-1.328581 -17.808226,-1.328581 -11.753917,0 -15.785714,0.459964 -17.299326,1.973577 -4.283691,4.283691 -4.283691,21.102487 0,25.386178 1.510636,1.510637 5.522383,1.973577 17.10262,1.973577 8.320975,0 16.071604,-0.361693 17.22362,-0.803764 z M 29.333332,33.333332 v -8.037836 l 5.333333,3.529434 c 2.933333,1.941187 5.333333,3.969969 5.333333,4.508402 0,0.538433 -2.4,2.567215 -5.333333,4.508402 l -5.333333,3.529434 z"
       id="path154"
       inkscape:connector-curvature="0" />
    <path
       style="fill:#d6d7da;stroke-width:1.33333325"
       d="M 22.503732,64.661389 C 11.370873,61.091816 2.2316052,49.592463 0.50273007,36.978944 -2.0306991,18.495563 14.390009,0 33.333332,0 47.075926,0 60.974114,10.434078 64.810772,23.631718 72.360801,49.602906 48.303639,72.933716 22.503732,64.661389 Z M 51.185717,45.957137 c 2.659625,-2.659625 3.978594,-9.952221 3.142161,-17.373038 -1.079304,-9.575552 -1.781307,-9.920218 -20.157806,-9.897016 -8.89354,0.01123 -16.882535,0.47344 -17.753325,1.027136 C 14.04261,21.223827 12,27.522251 12,33.333332 c 0,5.811081 2.04261,12.109505 4.416747,13.619113 0.87079,0.553696 8.590395,1.015906 17.15468,1.027136 12.228767,0.01604 16.009962,-0.418116 17.61429,-2.022444 z M 29.333332,33.333332 v -8.037836 l 5.333333,3.529434 c 2.933333,1.941187 5.333333,3.969969 5.333333,4.508402 0,0.538433 -2.4,2.567215 -5.333333,4.508402 l -5.333333,3.529434 z"
       id="path152"
       inkscape:connector-curvature="0" />
    <path
       style="fill:#cbccd1;stroke-width:1.33333325"
       d="M 25.999999,65.483219 C 16.60621,63.047625 7.9851102,55.920848 3.2380385,46.666665 -0.19819545,39.967894 0.00441501,26.288294 3.6428763,19.333333 9.8798115,7.4113586 20.425567,0.84420242 33.333332,0.84420242 c 9.675048,0 15.297718,2.24698128 22.450171,8.97173468 C 62.879281,16.487406 65.8139,23.36795 65.8139,33.333332 c 0,12.877855 -6.868798,23.871075 -18.605394,29.777145 -5.084548,2.558636 -15.847406,3.762752 -21.208507,2.372742 z M 52.135727,45.836454 c 2.841992,-3.424392 3.289448,-19.813562 0.650891,-23.840508 -2.138885,-3.264352 -2.51568,-3.32928 -19.320763,-3.32928 -20.814534,0 -20.799189,-0.01082 -20.799189,14.666666 0,14.665191 0.0021,14.666666 20.666666,14.666666 14.061927,0 17.317735,-0.374637 18.802395,-2.163544 z M 29.333332,33.333332 v -8.037836 l 5.333333,3.529434 c 2.933333,1.941187 5.333333,3.969969 5.333333,4.508402 0,0.538433 -2.4,2.567215 -5.333333,4.508402 l -5.333333,3.529434 z"
       id="path150"
       inkscape:connector-curvature="0" />
    <path
       style="fill:#c8c9ce;stroke-width:1.33333325"
       d="M 26.78077,65.148365 C 16.603719,63.273785 6.5185799,54.713638 2.6432831,44.660752 1.7964567,42.464004 1.095289,37.230044 1.0851326,33.029728 1.041577,15.016565 15.115921,1.0666666 33.333332,1.0666666 c 18.352525,0 32.266665,13.9141404 32.266665,32.2666654 0,20.815105 -18.082212,35.634724 -38.819227,31.815033 z M 52.333331,45.045838 c 2.381267,-2.72954 3.2531,-15.479159 1.5045,-22.00168 C 52.746015,18.971534 49.917243,18.358974 32.201888,18.358974 13.207659,18.358974 12,19.245229 12,33.184369 c 0,12.191517 1.818101,14.546885 11.696284,15.15265 14.863129,0.911459 26.096983,-0.379618 28.637047,-3.291181 z M 29.333332,33.333332 c 0,-3.666667 0.308415,-6.666666 0.685365,-6.666666 1.096294,0 9.948292,5.932005 9.948292,6.666666 0,0.734661 -8.851998,6.666666 -9.948292,6.666666 -0.37695,0 -0.685365,-2.999999 -0.685365,-6.666666 z"
       id="path148"
       inkscape:connector-curvature="0" />
  </g>
</svg>
